<?xml version="1.0" encoding="us-ascii" standalone="no"?><svg xmlns="http://www.w3.org/2000/svg" xmlns:xlink="http://www.w3.org/1999/xlink" contentStyleType="text/css" height="882px" preserveAspectRatio="none" style="width:669px;height:882px;background:#FFFFFF;" version="1.1" viewBox="0 0 669 882" width="669px" zoomAndPan="magnify"><defs/><g><!--cluster java--><g id="cluster_java"><path d="M213.5,51.0137 L243.5,51.0137 A3.75,3.75 0 0 1 246,53.5137 L253,75.6348 L352.5,75.6348 A2.5,2.5 0 0 1 355,78.1348 L355,202.5137 A2.5,2.5 0 0 1 352.5,205.0137 L213.5,205.0137 A2.5,2.5 0 0 1 211,202.5137 L211,53.5137 A2.5,2.5 0 0 1 213.5,51.0137 " fill="none" style="stroke:#000000;stroke-width:1.5;"/><line style="stroke:#000000;stroke-width:1.5;" x1="211" x2="253" y1="75.6348" y2="75.6348"/><text fill="#000000" font-family="sans-serif" font-size="14" font-weight="bold" lengthAdjust="spacing" textLength="29" x="215" y="68.1211">java</text></g><!--cluster util--><g id="cluster_util"><path d="M237.5,96.0137 L260.5,96.0137 A3.75,3.75 0 0 1 263,98.5137 L270,120.6348 L328.5,120.6348 A2.5,2.5 0 0 1 331,123.1348 L331,178.5137 A2.5,2.5 0 0 1 328.5,181.0137 L237.5,181.0137 A2.5,2.5 0 0 1 235,178.5137 L235,98.5137 A2.5,2.5 0 0 1 237.5,96.0137 " fill="none" style="stroke:#000000;stroke-width:1.5;"/><line style="stroke:#000000;stroke-width:1.5;" x1="235" x2="270" y1="120.6348" y2="120.6348"/><text fill="#000000" font-family="sans-serif" font-size="14" font-weight="bold" lengthAdjust="spacing" textLength="22" x="239" y="113.1211">util</text></g><!--cluster org--><g id="cluster_org"><path d="M381.5,6.0137 L406.5,6.0137 A3.75,3.75 0 0 1 409,8.5137 L416,30.6348 L582.5,30.6348 A2.5,2.5 0 0 1 585,33.1348 L585,226.5137 A2.5,2.5 0 0 1 582.5,229.0137 L381.5,229.0137 A2.5,2.5 0 0 1 379,226.5137 L379,8.5137 A2.5,2.5 0 0 1 381.5,6.0137 " fill="none" style="stroke:#000000;stroke-width:1.5;"/><line style="stroke:#000000;stroke-width:1.5;" x1="379" x2="416" y1="30.6348" y2="30.6348"/><text fill="#000000" font-family="sans-serif" font-size="14" font-weight="bold" lengthAdjust="spacing" textLength="24" x="383" y="23.1211">org</text></g><!--cluster springframework--><g id="cluster_springframework"><path d="M405.5,51.0137 L525.5,51.0137 A3.75,3.75 0 0 1 528,53.5137 L535,75.6348 L558.5,75.6348 A2.5,2.5 0 0 1 561,78.1348 L561,202.5137 A2.5,2.5 0 0 1 558.5,205.0137 L405.5,205.0137 A2.5,2.5 0 0 1 403,202.5137 L403,53.5137 A2.5,2.5 0 0 1 405.5,51.0137 " fill="none" style="stroke:#000000;stroke-width:1.5;"/><line style="stroke:#000000;stroke-width:1.5;" x1="403" x2="535" y1="75.6348" y2="75.6348"/><text fill="#000000" font-family="sans-serif" font-size="14" font-weight="bold" lengthAdjust="spacing" textLength="119" x="407" y="68.1211">springframework</text></g><!--cluster stereotype--><g id="cluster_stereotype"><path d="M429.5,96.0137 L506.5,96.0137 A3.75,3.75 0 0 1 509,98.5137 L516,120.6348 L534.5,120.6348 A2.5,2.5 0 0 1 537,123.1348 L537,178.5137 A2.5,2.5 0 0 1 534.5,181.0137 L429.5,181.0137 A2.5,2.5 0 0 1 427,178.5137 L427,98.5137 A2.5,2.5 0 0 1 429.5,96.0137 " fill="none" style="stroke:#000000;stroke-width:1.5;"/><line style="stroke:#000000;stroke-width:1.5;" x1="427" x2="516" y1="120.6348" y2="120.6348"/><text fill="#000000" font-family="sans-serif" font-size="14" font-weight="bold" lengthAdjust="spacing" textLength="76" x="431" y="113.1211">stereotype</text></g><!--cluster com--><g id="cluster_com"><path d="M8.5,280.0137 L38.5,280.0137 A3.75,3.75 0 0 1 41,282.5137 L48,304.6348 L659.5,304.6348 A2.5,2.5 0 0 1 662,307.1348 L662,853.0837 A2.5,2.5 0 0 1 659.5,855.5837 L8.5,855.5837 A2.5,2.5 0 0 1 6,853.0837 L6,282.5137 A2.5,2.5 0 0 1 8.5,280.0137 " fill="none" style="stroke:#000000;stroke-width:1.5;"/><line style="stroke:#000000;stroke-width:1.5;" x1="6" x2="48" y1="304.6348" y2="304.6348"/><text fill="#000000" font-family="sans-serif" font-size="14" font-weight="bold" lengthAdjust="spacing" textLength="29" x="10" y="297.1211">com</text></g><!--cluster acme--><g id="cluster_acme"><path d="M32.5,325.0137 L70.5,325.0137 A3.75,3.75 0 0 1 73,327.5137 L80,349.6348 L635.5,349.6348 A2.5,2.5 0 0 1 638,352.1348 L638,829.0837 A2.5,2.5 0 0 1 635.5,831.5837 L32.5,831.5837 A2.5,2.5 0 0 1 30,829.0837 L30,327.5137 A2.5,2.5 0 0 1 32.5,325.0137 " fill="none" style="stroke:#000000;stroke-width:1.5;"/><line style="stroke:#000000;stroke-width:1.5;" x1="30" x2="80" y1="349.6348" y2="349.6348"/><text fill="#000000" font-family="sans-serif" font-size="14" font-weight="bold" lengthAdjust="spacing" textLength="37" x="34" y="342.1211">acme</text></g><!--cluster faculty--><g id="cluster_faculty"><path d="M56.5,370.0137 L103.5,370.0137 A3.75,3.75 0 0 1 106,372.5137 L113,394.6348 L611.5,394.6348 A2.5,2.5 0 0 1 614,397.1348 L614,805.0837 A2.5,2.5 0 0 1 611.5,807.5837 L56.5,807.5837 A2.5,2.5 0 0 1 54,805.0837 L54,372.5137 A2.5,2.5 0 0 1 56.5,370.0137 " fill="none" style="stroke:#000000;stroke-width:1.5;"/><line style="stroke:#000000;stroke-width:1.5;" x1="54" x2="113" y1="394.6348" y2="394.6348"/><text fill="#000000" font-family="sans-serif" font-size="14" font-weight="bold" lengthAdjust="spacing" textLength="46" x="58" y="387.1211">faculty</text></g><!--cluster entity--><g id="cluster_entity"><path d="M80.5,468.2337 L120.5,468.2337 A3.75,3.75 0 0 1 123,470.7337 L130,492.8548 L185.5,492.8548 A2.5,2.5 0 0 1 188,495.3548 L188,563.3137 A2.5,2.5 0 0 1 185.5,565.8137 L80.5,565.8137 A2.5,2.5 0 0 1 78,563.3137 L78,470.7337 A2.5,2.5 0 0 1 80.5,468.2337 " fill="none" style="stroke:#000000;stroke-width:1.5;"/><line style="stroke:#000000;stroke-width:1.5;" x1="78" x2="130" y1="492.8548" y2="492.8548"/><text fill="#000000" font-family="sans-serif" font-size="14" font-weight="bold" lengthAdjust="spacing" textLength="39" x="82" y="485.3411">entity</text></g><!--cluster repository--><g id="cluster_repository"><path d="M314.5,670.0437 L387.5,670.0437 A3.75,3.75 0 0 1 390,672.5437 L397,694.6648 L487.5,694.6648 A2.5,2.5 0 0 1 490,697.1648 L490,781.0837 A2.5,2.5 0 0 1 487.5,783.5837 L314.5,783.5837 A2.5,2.5 0 0 1 312,781.0837 L312,672.5437 A2.5,2.5 0 0 1 314.5,670.0437 " fill="none" style="stroke:#000000;stroke-width:1.5;"/><line style="stroke:#000000;stroke-width:1.5;" x1="312" x2="397" y1="694.6648" y2="694.6648"/><text fill="#000000" font-family="sans-serif" font-size="14" font-weight="bold" lengthAdjust="spacing" textLength="72" x="316" y="687.1511">repository</text></g><!--cluster service--><g id="cluster_service"><path d="M214.5,415.0137 L268.5,415.0137 A3.75,3.75 0 0 1 271,417.5137 L278,439.6348 L587.5,439.6348 A2.5,2.5 0 0 1 590,442.1348 L590,616.5437 A2.5,2.5 0 0 1 587.5,619.0437 L214.5,619.0437 A2.5,2.5 0 0 1 212,616.5437 L212,417.5137 A2.5,2.5 0 0 1 214.5,415.0137 " fill="none" style="stroke:#000000;stroke-width:1.5;"/><line style="stroke:#000000;stroke-width:1.5;" x1="212" x2="278" y1="439.6348" y2="439.6348"/><text fill="#000000" font-family="sans-serif" font-size="14" font-weight="bold" lengthAdjust="spacing" textLength="53" x="216" y="432.1211">service</text></g><!--class UUID--><g id="elem_UUID"><rect codeLine="3" fill="#F1F1F1" height="32" id="UUID" rx="2.5" ry="2.5" style="stroke:#181818;stroke-width:0.5;" width="63" x="251.5" y="133.0137"/><ellipse cx="266.5" cy="149.0137" fill="#ADD1B2" rx="11" ry="11" style="stroke:#181818;stroke-width:1.0;"/><path d="M269.2656,144.8887 Q269.4219,144.6699 269.6094,144.5605 Q269.7969,144.4512 270.0156,144.4512 Q270.3906,144.4512 270.625,144.7168 Q270.8594,144.9668 270.8594,145.5762 L270.8594,147.0293 Q270.8594,147.6387 270.625,147.9043 Q270.3906,148.1699 270.0156,148.1699 Q269.6719,148.1699 269.4688,147.9668 Q269.2656,147.7793 269.1563,147.2637 Q269.1094,146.9043 268.9219,146.7168 Q268.5938,146.3418 267.9844,146.123 Q267.375,145.9043 266.75,145.9043 Q265.9844,145.9043 265.3438,146.2324 Q264.7188,146.5605 264.2188,147.3105 Q263.7344,148.0605 263.7344,149.0918 L263.7344,150.1855 Q263.7344,151.4199 264.625,152.248 Q265.5156,153.0605 267.1094,153.0605 Q268.0469,153.0605 268.7031,152.8105 Q269.0938,152.6543 269.5156,152.2168 Q269.7813,151.9512 269.9219,151.873 Q270.0781,151.7949 270.2813,151.7949 Q270.6094,151.7949 270.8594,152.0605 Q271.125,152.3105 271.125,152.6543 Q271.125,152.998 270.7813,153.4043 Q270.2813,153.9824 269.4844,154.3105 Q268.4063,154.7637 267.1094,154.7637 Q265.5938,154.7637 264.3906,154.1387 Q263.4063,153.6387 262.7188,152.5762 Q262.0313,151.498 262.0313,150.2168 L262.0313,149.0605 Q262.0313,147.7324 262.6406,146.5918 Q263.2656,145.4355 264.3594,144.8262 Q265.4531,144.2012 266.6875,144.2012 Q267.4219,144.2012 268.0625,144.373 Q268.7188,144.5293 269.2656,144.8887 Z " fill="#000000"/><text fill="#000000" font-family="sans-serif" font-size="14" lengthAdjust="spacing" textLength="31" x="280.5" y="154.8105">UUID</text></g><!--class Service--><g id="elem_Service"><rect codeLine="7" fill="#F1F1F1" height="32" id="Service" rx="2.5" ry="2.5" style="stroke:#181818;stroke-width:0.5;" width="78" x="443" y="133.0137"/><ellipse cx="458" cy="149.0137" fill="#B4A7E5" rx="11" ry="11" style="stroke:#181818;stroke-width:1.0;"/><path d="M458.9531,145.6543 L458.9531,152.3105 L460.6719,152.3105 Q461.2813,152.3105 461.5469,152.5449 Q461.8125,152.7793 461.8125,153.1699 Q461.8125,153.5449 461.5469,153.7793 Q461.2813,154.0137 460.6719,154.0137 L455.5313,154.0137 Q454.9219,154.0137 454.6563,153.7793 Q454.3906,153.5449 454.3906,153.1543 Q454.3906,152.7793 454.6563,152.5449 Q454.9219,152.3105 455.5313,152.3105 L457.25,152.3105 L457.25,145.6543 L455.5313,145.6543 Q454.9219,145.6543 454.6563,145.4199 Q454.3906,145.1855 454.3906,144.7949 Q454.3906,144.4199 454.6563,144.1855 Q454.9219,143.9512 455.5313,143.9512 L460.6719,143.9512 Q461.2813,143.9512 461.5469,144.1855 Q461.8125,144.4199 461.8125,144.7949 Q461.8125,145.1855 461.5469,145.4199 Q461.2813,145.6543 460.6719,145.6543 L458.9531,145.6543 Z " fill="#000000"/><text fill="#000000" font-family="sans-serif" font-size="14" font-style="italic" lengthAdjust="spacing" textLength="46" x="472" y="154.8105">Service</text></g><!--class Faculty--><g id="elem_Faculty"><rect codeLine="11" fill="#F1F1F1" height="44.582" id="Faculty" rx="2.5" ry="2.5" style="stroke:#181818;stroke-width:0.5;" width="78" x="94" y="505.2337"/><ellipse cx="109" cy="527.5247" fill="#ADD1B2" rx="11" ry="11" style="stroke:#181818;stroke-width:1.0;"/><path d="M111.7656,523.3997 Q111.9219,523.1809 112.1094,523.0716 Q112.2969,522.9622 112.5156,522.9622 Q112.8906,522.9622 113.125,523.2278 Q113.3594,523.4778 113.3594,524.0872 L113.3594,525.5403 Q113.3594,526.1497 113.125,526.4153 Q112.8906,526.6809 112.5156,526.6809 Q112.1719,526.6809 111.9688,526.4778 Q111.7656,526.2903 111.6563,525.7747 Q111.6094,525.4153 111.4219,525.2278 Q111.0938,524.8528 110.4844,524.6341 Q109.875,524.4153 109.25,524.4153 Q108.4844,524.4153 107.8438,524.7434 Q107.2188,525.0716 106.7188,525.8216 Q106.2344,526.5716 106.2344,527.6028 L106.2344,528.6966 Q106.2344,529.9309 107.125,530.7591 Q108.0156,531.5716 109.6094,531.5716 Q110.5469,531.5716 111.2031,531.3216 Q111.5938,531.1653 112.0156,530.7278 Q112.2813,530.4622 112.4219,530.3841 Q112.5781,530.3059 112.7813,530.3059 Q113.1094,530.3059 113.3594,530.5716 Q113.625,530.8216 113.625,531.1653 Q113.625,531.5091 113.2813,531.9153 Q112.7813,532.4934 111.9844,532.8216 Q110.9063,533.2747 109.6094,533.2747 Q108.0938,533.2747 106.8906,532.6497 Q105.9063,532.1497 105.2188,531.0872 Q104.5313,530.0091 104.5313,528.7278 L104.5313,527.5716 Q104.5313,526.2434 105.1406,525.1028 Q105.7656,523.9466 106.8594,523.3372 Q107.9531,522.7122 109.1875,522.7122 Q109.9219,522.7122 110.5625,522.8841 Q111.2188,523.0403 111.7656,523.3997 Z " fill="#000000"/><text fill="#000000" font-family="sans-serif" font-size="12" font-style="italic" lengthAdjust="spacing" textLength="43" x="124.5" y="523.1829">&#171;entity&#187;</text><text fill="#000000" font-family="sans-serif" font-size="14" lengthAdjust="spacing" textLength="46" x="123" y="541.302">Faculty</text></g><!--class FacultyRepository--><g id="elem_FacultyRepository"><rect codeLine="15" fill="#F1F1F1" height="60.543" id="FacultyRepository" rx="2.5" ry="2.5" style="stroke:#181818;stroke-width:0.5;" width="146" x="328" y="707.0437"/><ellipse cx="343" cy="737.3152" fill="#ADD1B2" rx="11" ry="11" style="stroke:#181818;stroke-width:1.0;"/><path d="M345.7656,733.1902 Q345.9219,732.9714 346.1094,732.862 Q346.2969,732.7527 346.5156,732.7527 Q346.8906,732.7527 347.125,733.0183 Q347.3594,733.2683 347.3594,733.8777 L347.3594,735.3308 Q347.3594,735.9402 347.125,736.2058 Q346.8906,736.4714 346.5156,736.4714 Q346.1719,736.4714 345.9688,736.2683 Q345.7656,736.0808 345.6563,735.5652 Q345.6094,735.2058 345.4219,735.0183 Q345.0938,734.6433 344.4844,734.4245 Q343.875,734.2058 343.25,734.2058 Q342.4844,734.2058 341.8438,734.5339 Q341.2188,734.862 340.7188,735.612 Q340.2344,736.362 340.2344,737.3933 L340.2344,738.487 Q340.2344,739.7214 341.125,740.5495 Q342.0156,741.362 343.6094,741.362 Q344.5469,741.362 345.2031,741.112 Q345.5938,740.9558 346.0156,740.5183 Q346.2813,740.2527 346.4219,740.1745 Q346.5781,740.0964 346.7813,740.0964 Q347.1094,740.0964 347.3594,740.362 Q347.625,740.612 347.625,740.9558 Q347.625,741.2995 347.2813,741.7058 Q346.7813,742.2839 345.9844,742.612 Q344.9063,743.0652 343.6094,743.0652 Q342.0938,743.0652 340.8906,742.4402 Q339.9063,741.9402 339.2188,740.8777 Q338.5313,739.7995 338.5313,738.5183 L338.5313,737.362 Q338.5313,736.0339 339.1406,734.8933 Q339.7656,733.737 340.8594,733.1277 Q341.9531,732.5027 343.1875,732.5027 Q343.9219,732.5027 344.5625,732.6745 Q345.2188,732.8308 345.7656,733.1902 Z " fill="#000000"/><text fill="#000000" font-family="sans-serif" font-size="12" font-style="italic" lengthAdjust="spacing" textLength="51" x="388.5" y="724.9929">&#171;control&#187;</text><text fill="#000000" font-family="sans-serif" font-size="12" font-style="italic" lengthAdjust="spacing" textLength="85" x="371.5" y="740.9538">&#171;@Repository&#187;</text><text fill="#000000" font-family="sans-serif" font-size="14" lengthAdjust="spacing" textLength="114" x="357" y="759.073">FacultyRepository</text></g><!--class FacultyWriteService--><g id="elem_FacultyWriteService"><rect codeLine="19" fill="#F1F1F1" height="151.0273" id="FacultyWriteService" rx="2.5" ry="2.5" style="stroke:#181818;stroke-width:0.5;" width="347" x="227.5" y="452.0137"/><ellipse cx="333.75" cy="482.2852" fill="#ADD1B2" rx="11" ry="11" style="stroke:#181818;stroke-width:1.0;"/><path d="M336.5156,478.1602 Q336.6719,477.9414 336.8594,477.832 Q337.0469,477.7227 337.2656,477.7227 Q337.6406,477.7227 337.875,477.9883 Q338.1094,478.2383 338.1094,478.8477 L338.1094,480.3008 Q338.1094,480.9102 337.875,481.1758 Q337.6406,481.4414 337.2656,481.4414 Q336.9219,481.4414 336.7188,481.2383 Q336.5156,481.0508 336.4063,480.5352 Q336.3594,480.1758 336.1719,479.9883 Q335.8438,479.6133 335.2344,479.3945 Q334.625,479.1758 334,479.1758 Q333.2344,479.1758 332.5938,479.5039 Q331.9688,479.832 331.4688,480.582 Q330.9844,481.332 330.9844,482.3633 L330.9844,483.457 Q330.9844,484.6914 331.875,485.5195 Q332.7656,486.332 334.3594,486.332 Q335.2969,486.332 335.9531,486.082 Q336.3438,485.9258 336.7656,485.4883 Q337.0313,485.2227 337.1719,485.1445 Q337.3281,485.0664 337.5313,485.0664 Q337.8594,485.0664 338.1094,485.332 Q338.375,485.582 338.375,485.9258 Q338.375,486.2695 338.0313,486.6758 Q337.5313,487.2539 336.7344,487.582 Q335.6563,488.0352 334.3594,488.0352 Q332.8438,488.0352 331.6406,487.4102 Q330.6563,486.9102 329.9688,485.8477 Q329.2813,484.7695 329.2813,483.4883 L329.2813,482.332 Q329.2813,481.0039 329.8906,479.8633 Q330.5156,478.707 331.6094,478.0977 Q332.7031,477.4727 333.9375,477.4727 Q334.6719,477.4727 335.3125,477.6445 Q335.9688,477.8008 336.5156,478.1602 Z " fill="#000000"/><text fill="#000000" font-family="sans-serif" font-size="12" font-style="italic" lengthAdjust="spacing" textLength="51" x="391.75" y="469.9629">&#171;control&#187;</text><text fill="#000000" font-family="sans-serif" font-size="12" font-style="italic" lengthAdjust="spacing" textLength="67" x="383.75" y="485.9238">&#171;@Service&#187;</text><text fill="#000000" font-family="sans-serif" font-size="14" lengthAdjust="spacing" textLength="126" x="354.25" y="504.043">FacultyWriteService</text><line style="stroke:#181818;stroke-width:0.5;" x1="228.5" x2="573.5" y1="512.5566" y2="512.5566"/><rect fill="none" height="6" style="stroke:#C82930;stroke-width:1.0;" width="6" x="235.5" y="524.3672"/><text fill="#000000" font-family="sans-serif" font-size="14" lengthAdjust="spacing" textLength="185" x="247.5" y="531.6641">repository: FacultyRepository</text><line style="stroke:#181818;stroke-width:0.5;" x1="228.5" x2="573.5" y1="539.1777" y2="539.1777"/><ellipse cx="238.5" cy="553.9883" fill="#84BE84" rx="3" ry="3" style="stroke:#038048;stroke-width:1.0;"/><text fill="#000000" font-family="sans-serif" font-size="14" lengthAdjust="spacing" textLength="321" x="247.5" y="558.2852">FacultyWriteService(repository: FacultyRepository)</text><ellipse cx="238.5" cy="572.6094" fill="#84BE84" rx="3" ry="3" style="stroke:#038048;stroke-width:1.0;"/><text fill="#000000" font-family="sans-serif" font-size="14" lengthAdjust="spacing" textLength="265" x="247.5" y="576.9063">create(@NonNull faculty: Faculty): Faculty</text><ellipse cx="238.5" cy="591.2305" fill="#84BE84" rx="3" ry="3" style="stroke:#038048;stroke-width:1.0;"/><text fill="#000000" font-family="sans-serif" font-size="14" lengthAdjust="spacing" textLength="307" x="247.5" y="595.5273">update(id: UUID, @NonNull faculty: Faculty): void</text></g><!--link FacultyWriteService to FacultyRepository--><g id="link_FacultyWriteService_FacultyRepository"><path codeLine="27" d="M401,615.2437 C401,650.9637 401,673.6937 401,700.5737 " fill="none" id="FacultyWriteService-FacultyRepository" style="stroke:#181818;stroke-width:1.0;"/><polygon fill="none" points="401,603.2437,397,609.2437,401,615.2437,405,609.2437,401,603.2437" style="stroke:#181818;stroke-width:1.0;"/><polygon fill="#181818" points="401,706.5737,405,697.5737,401,701.5737,397,697.5737,401,706.5737" style="stroke:#181818;stroke-width:1.0;"/><text fill="#000000" font-family="sans-serif" font-size="13" lengthAdjust="spacing" textLength="25" x="402" y="650.072">repo</text><text fill="#000000" font-family="sans-serif" font-size="13" lengthAdjust="spacing" textLength="7" x="393.2781" y="695.5384">1</text></g><!--link FacultyWriteService to Faculty--><g id="link_FacultyWriteService_Faculty"><path codeLine="28" d="M227.21,527.5237 C208.89,527.5237 196.58,527.5237 178.26,527.5237 " fill="none" id="FacultyWriteService-to-Faculty" style="stroke:#181818;stroke-width:1.0;stroke-dasharray:7.0,7.0;"/><polygon fill="#181818" points="172.26,527.5237,181.26,531.5237,177.26,527.5237,181.26,523.5237,172.26,527.5237" style="stroke:#181818;stroke-width:1.0;"/></g><!--reverse link UUID to FacultyWriteService--><g id="link_UUID_FacultyWriteService"><path codeLine="29" d="M289.5648,170.9689 C304.4648,218.4989 349.02,360.6737 377.59,451.8337 " fill="none" id="UUID-backto-FacultyWriteService" style="stroke:#181818;stroke-width:1.0;stroke-dasharray:7.0,7.0;"/><polygon fill="#181818" points="287.77,165.2437,286.6453,175.0281,289.2657,170.0147,294.279,172.635,287.77,165.2437" style="stroke:#181818;stroke-width:1.0;"/><text fill="#000000" font-family="sans-serif" font-size="13" lengthAdjust="spacing" textLength="28" x="318" y="260.042">uses</text></g><!--reverse link Service to FacultyWriteService--><g id="link_Service_FacultyWriteService"><path codeLine="30" d="M477.4587,171.1096 C467.2387,218.6396 436.68,360.6737 417.07,451.8337 " fill="none" id="Service-backto-FacultyWriteService" style="stroke:#181818;stroke-width:1.0;stroke-dasharray:7.0,7.0;"/><polygon fill="#181818" points="478.72,165.2437,472.9174,173.2017,477.6689,170.1319,480.7387,174.8834,478.72,165.2437" style="stroke:#181818;stroke-width:1.0;"/></g><text fill="#888888" font-family="sans-serif" font-size="10" lengthAdjust="spacing" textLength="99" x="278" y="872.3747">(c) Ahmad Hawarnah</text><!--SRC=[XP8zJyCm48Pt_ufJfqPGIwnL51K98LWwW2fcurmJqpYspawh2FM_upGXAM05JxRlVTxxiAsG1r4WV8YZu8rN5Nmo24jMmZdOxPuVs9anEwWC5TnPKdMn9w7nPEZ0dKT2urkB0whgSBCN4k4LwQWaNZj8excG6daGD9LlETPU-VP7riS-16dQ1xDire7G6gUyeQZBonHDKsbgJwRAih3VJ95_4hY-ZPZx6ocFGvk__OVhSEZ1RgrWgdRzjyHHTnDBi9nbaojO4WgFoytMrDkcgc3ePAIISNS5DJRl89MlB-z-2tFuqQZymfwxqSMcOLQh31PtYyX3h2zJY5ASL55wdetrHKMD3Ogko63LE7Gpgky_o4gL8w2suMDfrEz8Zh6zCU6lmb8cS5zgaSEJE0cgHSc-0000]--></g></svg>