<?xml version="1.0" encoding="us-ascii" standalone="no"?><svg xmlns="http://www.w3.org/2000/svg" xmlns:xlink="http://www.w3.org/1999/xlink" contentStyleType="text/css" height="1297px" preserveAspectRatio="none" style="width:1695px;height:1297px;background:#FFFFFF;" version="1.1" viewBox="0 0 1695 1297" width="1695px" zoomAndPan="magnify"><defs/><g><!--cluster org--><g id="cluster_org"><path d="M8.5,6.0137 L33.5,6.0137 A3.75,3.75 0 0 1 36,8.5137 L43,30.6348 L1685.5,30.6348 A2.5,2.5 0 0 1 1688,33.1348 L1688,364.5137 A2.5,2.5 0 0 1 1685.5,367.0137 L8.5,367.0137 A2.5,2.5 0 0 1 6,364.5137 L6,8.5137 A2.5,2.5 0 0 1 8.5,6.0137 " fill="none" style="stroke:#000000;stroke-width:1.5;"/><line style="stroke:#000000;stroke-width:1.5;" x1="6" x2="43" y1="30.6348" y2="30.6348"/><text fill="#000000" font-family="sans-serif" font-size="14" font-weight="bold" lengthAdjust="spacing" textLength="24" x="10" y="23.1211">org</text></g><!--cluster springframework--><g id="cluster_springframework"><path d="M32.5,51.0137 L152.5,51.0137 A3.75,3.75 0 0 1 155,53.5137 L162,75.6348 L1661.5,75.6348 A2.5,2.5 0 0 1 1664,78.1348 L1664,340.5137 A2.5,2.5 0 0 1 1661.5,343.0137 L32.5,343.0137 A2.5,2.5 0 0 1 30,340.5137 L30,53.5137 A2.5,2.5 0 0 1 32.5,51.0137 " fill="none" style="stroke:#000000;stroke-width:1.5;"/><line style="stroke:#000000;stroke-width:1.5;" x1="30" x2="162" y1="75.6348" y2="75.6348"/><text fill="#000000" font-family="sans-serif" font-size="14" font-weight="bold" lengthAdjust="spacing" textLength="119" x="34" y="68.1211">springframework</text></g><!--cluster http--><g id="cluster_http"><path d="M1468.5,186.0137 L1497.5,186.0137 A3.75,3.75 0 0 1 1500,188.5137 L1507,210.6348 L1637.5,210.6348 A2.5,2.5 0 0 1 1640,213.1348 L1640,268.5137 A2.5,2.5 0 0 1 1637.5,271.0137 L1468.5,271.0137 A2.5,2.5 0 0 1 1466,268.5137 L1466,188.5137 A2.5,2.5 0 0 1 1468.5,186.0137 " fill="none" style="stroke:#000000;stroke-width:1.5;"/><line style="stroke:#000000;stroke-width:1.5;" x1="1466" x2="1507" y1="210.6348" y2="210.6348"/><text fill="#000000" font-family="sans-serif" font-size="14" font-weight="bold" lengthAdjust="spacing" textLength="28" x="1470" y="203.1211">http</text></g><!--cluster hateoas--><g id="cluster_hateoas"><path d="M56.5,186.0137 L113.5,186.0137 A3.75,3.75 0 0 1 116,188.5137 L123,210.6348 L227.5,210.6348 A2.5,2.5 0 0 1 230,213.1348 L230,268.5137 A2.5,2.5 0 0 1 227.5,271.0137 L56.5,271.0137 A2.5,2.5 0 0 1 54,268.5137 L54,188.5137 A2.5,2.5 0 0 1 56.5,186.0137 " fill="none" style="stroke:#000000;stroke-width:1.5;"/><line style="stroke:#000000;stroke-width:1.5;" x1="54" x2="123" y1="210.6348" y2="210.6348"/><text fill="#000000" font-family="sans-serif" font-size="14" font-weight="bold" lengthAdjust="spacing" textLength="56" x="58" y="203.1211">hateoas</text></g><!--cluster util--><g id="cluster_util"><path d="M256.5,186.0137 L279.5,186.0137 A3.75,3.75 0 0 1 282,188.5137 L289,210.6348 L431.5,210.6348 A2.5,2.5 0 0 1 434,213.1348 L434,268.5137 A2.5,2.5 0 0 1 431.5,271.0137 L256.5,271.0137 A2.5,2.5 0 0 1 254,268.5137 L254,188.5137 A2.5,2.5 0 0 1 256.5,186.0137 " fill="none" style="stroke:#000000;stroke-width:1.5;"/><line style="stroke:#000000;stroke-width:1.5;" x1="254" x2="289" y1="210.6348" y2="210.6348"/><text fill="#000000" font-family="sans-serif" font-size="14" font-weight="bold" lengthAdjust="spacing" textLength="22" x="258" y="203.1211">util</text></g><!--cluster web--><g id="cluster_web"><path d="M460.5,96.0137 L490.5,96.0137 A3.75,3.75 0 0 1 493,98.5137 L500,120.6348 L1439.5,120.6348 A2.5,2.5 0 0 1 1442,123.1348 L1442,316.5137 A2.5,2.5 0 0 1 1439.5,319.0137 L460.5,319.0137 A2.5,2.5 0 0 1 458,316.5137 L458,98.5137 A2.5,2.5 0 0 1 460.5,96.0137 " fill="none" style="stroke:#000000;stroke-width:1.5;"/><line style="stroke:#000000;stroke-width:1.5;" x1="458" x2="500" y1="120.6348" y2="120.6348"/><text fill="#000000" font-family="sans-serif" font-size="14" font-weight="bold" lengthAdjust="spacing" textLength="29" x="462" y="113.1211">web</text></g><!--cluster bind--><g id="cluster_bind"><path d="M484.5,141.0137 L516.5,141.0137 A3.75,3.75 0 0 1 519,143.5137 L526,165.6348 L1415.5,165.6348 A2.5,2.5 0 0 1 1418,168.1348 L1418,292.5137 A2.5,2.5 0 0 1 1415.5,295.0137 L484.5,295.0137 A2.5,2.5 0 0 1 482,292.5137 L482,143.5137 A2.5,2.5 0 0 1 484.5,141.0137 " fill="none" style="stroke:#000000;stroke-width:1.5;"/><line style="stroke:#000000;stroke-width:1.5;" x1="482" x2="526" y1="165.6348" y2="165.6348"/><text fill="#000000" font-family="sans-serif" font-size="14" font-weight="bold" lengthAdjust="spacing" textLength="31" x="486" y="158.1211">bind</text></g><!--cluster annotation--><g id="cluster_annotation"><path d="M508.5,186.0137 L584.5,186.0137 A3.75,3.75 0 0 1 587,188.5137 L594,210.6348 L1391.5,210.6348 A2.5,2.5 0 0 1 1394,213.1348 L1394,268.5137 A2.5,2.5 0 0 1 1391.5,271.0137 L508.5,271.0137 A2.5,2.5 0 0 1 506,268.5137 L506,188.5137 A2.5,2.5 0 0 1 508.5,186.0137 " fill="none" style="stroke:#000000;stroke-width:1.5;"/><line style="stroke:#000000;stroke-width:1.5;" x1="506" x2="594" y1="210.6348" y2="210.6348"/><text fill="#000000" font-family="sans-serif" font-size="14" font-weight="bold" lengthAdjust="spacing" textLength="75" x="510" y="203.1211">annotation</text></g><!--cluster jakarta--><g id="cluster_jakarta"><path d="M1181.5,489.8837 L1229.5,489.8837 A3.75,3.75 0 0 1 1232,492.3837 L1239,514.5048 L1458.5,514.5048 A2.5,2.5 0 0 1 1461,517.0048 L1461,710.3837 A2.5,2.5 0 0 1 1458.5,712.8837 L1181.5,712.8837 A2.5,2.5 0 0 1 1179,710.3837 L1179,492.3837 A2.5,2.5 0 0 1 1181.5,489.8837 " fill="none" style="stroke:#000000;stroke-width:1.5;"/><line style="stroke:#000000;stroke-width:1.5;" x1="1179" x2="1239" y1="514.5048" y2="514.5048"/><text fill="#000000" font-family="sans-serif" font-size="14" font-weight="bold" lengthAdjust="spacing" textLength="47" x="1183" y="506.9911">jakarta</text></g><!--cluster servlet--><g id="cluster_servlet"><path d="M1205.5,534.8837 L1256.5,534.8837 A3.75,3.75 0 0 1 1259,537.3837 L1266,559.5048 L1434.5,559.5048 A2.5,2.5 0 0 1 1437,562.0048 L1437,686.3837 A2.5,2.5 0 0 1 1434.5,688.8837 L1205.5,688.8837 A2.5,2.5 0 0 1 1203,686.3837 L1203,537.3837 A2.5,2.5 0 0 1 1205.5,534.8837 " fill="none" style="stroke:#000000;stroke-width:1.5;"/><line style="stroke:#000000;stroke-width:1.5;" x1="1203" x2="1266" y1="559.5048" y2="559.5048"/><text fill="#000000" font-family="sans-serif" font-size="14" font-weight="bold" lengthAdjust="spacing" textLength="50" x="1207" y="551.9911">servlet</text></g><!--cluster http--><g id="cluster_http"><path d="M1229.5,579.8837 L1258.5,579.8837 A3.75,3.75 0 0 1 1261,582.3837 L1268,604.5048 L1410.5,604.5048 A2.5,2.5 0 0 1 1413,607.0048 L1413,662.3837 A2.5,2.5 0 0 1 1410.5,664.8837 L1229.5,664.8837 A2.5,2.5 0 0 1 1227,662.3837 L1227,582.3837 A2.5,2.5 0 0 1 1229.5,579.8837 " fill="none" style="stroke:#000000;stroke-width:1.5;"/><line style="stroke:#000000;stroke-width:1.5;" x1="1227" x2="1268" y1="604.5048" y2="604.5048"/><text fill="#000000" font-family="sans-serif" font-size="14" font-weight="bold" lengthAdjust="spacing" textLength="28" x="1231" y="596.9911">http</text></g><!--cluster java--><g id="cluster_java"><path d="M1199.5,745.8837 L1229.5,745.8837 A3.75,3.75 0 0 1 1232,748.3837 L1239,770.5048 L1338.5,770.5048 A2.5,2.5 0 0 1 1341,773.0048 L1341,897.3837 A2.5,2.5 0 0 1 1338.5,899.8837 L1199.5,899.8837 A2.5,2.5 0 0 1 1197,897.3837 L1197,748.3837 A2.5,2.5 0 0 1 1199.5,745.8837 " fill="none" style="stroke:#000000;stroke-width:1.5;"/><line style="stroke:#000000;stroke-width:1.5;" x1="1197" x2="1239" y1="770.5048" y2="770.5048"/><text fill="#000000" font-family="sans-serif" font-size="14" font-weight="bold" lengthAdjust="spacing" textLength="29" x="1201" y="762.9911">java</text></g><!--cluster util--><g id="cluster_util"><path d="M1223.5,790.8837 L1246.5,790.8837 A3.75,3.75 0 0 1 1249,793.3837 L1256,815.5048 L1314.5,815.5048 A2.5,2.5 0 0 1 1317,818.0048 L1317,873.3837 A2.5,2.5 0 0 1 1314.5,875.8837 L1223.5,875.8837 A2.5,2.5 0 0 1 1221,873.3837 L1221,793.3837 A2.5,2.5 0 0 1 1223.5,790.8837 " fill="none" style="stroke:#000000;stroke-width:1.5;"/><line style="stroke:#000000;stroke-width:1.5;" x1="1221" x2="1256" y1="815.5048" y2="815.5048"/><text fill="#000000" font-family="sans-serif" font-size="14" font-weight="bold" lengthAdjust="spacing" textLength="22" x="1225" y="807.9911">util</text></g><!--cluster com--><g id="cluster_com"><path d="M49.5,400.0137 L79.5,400.0137 A3.75,3.75 0 0 1 82,402.5137 L89,424.6348 L1152.5,424.6348 A2.5,2.5 0 0 1 1155,427.1348 L1155,1268.1337 A2.5,2.5 0 0 1 1152.5,1270.6337 L49.5,1270.6337 A2.5,2.5 0 0 1 47,1268.1337 L47,402.5137 A2.5,2.5 0 0 1 49.5,400.0137 " fill="none" style="stroke:#000000;stroke-width:1.5;"/><line style="stroke:#000000;stroke-width:1.5;" x1="47" x2="89" y1="424.6348" y2="424.6348"/><text fill="#000000" font-family="sans-serif" font-size="14" font-weight="bold" lengthAdjust="spacing" textLength="29" x="51" y="417.1211">com</text></g><!--cluster acme--><g id="cluster_acme"><path d="M73.5,445.0137 L111.5,445.0137 A3.75,3.75 0 0 1 114,447.5137 L121,469.6348 L1128.5,469.6348 A2.5,2.5 0 0 1 1131,472.1348 L1131,1244.1337 A2.5,2.5 0 0 1 1128.5,1246.6337 L73.5,1246.6337 A2.5,2.5 0 0 1 71,1244.1337 L71,447.5137 A2.5,2.5 0 0 1 73.5,445.0137 " fill="none" style="stroke:#000000;stroke-width:1.5;"/><line style="stroke:#000000;stroke-width:1.5;" x1="71" x2="121" y1="469.6348" y2="469.6348"/><text fill="#000000" font-family="sans-serif" font-size="14" font-weight="bold" lengthAdjust="spacing" textLength="37" x="75" y="462.1211">acme</text></g><!--cluster faculty--><g id="cluster_faculty"><path d="M97.5,490.0137 L144.5,490.0137 A3.75,3.75 0 0 1 147,492.5137 L154,514.6348 L1104.5,514.6348 A2.5,2.5 0 0 1 1107,517.1348 L1107,1220.1337 A2.5,2.5 0 0 1 1104.5,1222.6337 L97.5,1222.6337 A2.5,2.5 0 0 1 95,1220.1337 L95,492.5137 A2.5,2.5 0 0 1 97.5,490.0137 " fill="none" style="stroke:#000000;stroke-width:1.5;"/><line style="stroke:#000000;stroke-width:1.5;" x1="95" x2="154" y1="514.6348" y2="514.6348"/><text fill="#000000" font-family="sans-serif" font-size="14" font-weight="bold" lengthAdjust="spacing" textLength="46" x="99" y="507.1211">faculty</text></g><!--cluster service--><g id="cluster_service"><path d="M346.5,1085.0937 L400.5,1085.0937 A3.75,3.75 0 0 1 403,1087.5937 L410,1109.7148 L722.5,1109.7148 A2.5,2.5 0 0 1 725,1112.2148 L725,1196.1337 A2.5,2.5 0 0 1 722.5,1198.6337 L346.5,1198.6337 A2.5,2.5 0 0 1 344,1196.1337 L344,1087.5937 A2.5,2.5 0 0 1 346.5,1085.0937 " fill="none" style="stroke:#000000;stroke-width:1.5;"/><line style="stroke:#000000;stroke-width:1.5;" x1="344" x2="410" y1="1109.7148" y2="1109.7148"/><text fill="#000000" font-family="sans-serif" font-size="14" font-weight="bold" lengthAdjust="spacing" textLength="53" x="348" y="1102.2011">service</text></g><!--cluster controller--><g id="cluster_rest"><path d="M121.5,535.0137 L150.5,535.0137 A3.75,3.75 0 0 1 153,537.5137 L160,559.6348 L1080.5,559.6348 A2.5,2.5 0 0 1 1083,562.1348 L1083,1049.5937 A2.5,2.5 0 0 1 1080.5,1052.0937 L121.5,1052.0937 A2.5,2.5 0 0 1 119,1049.5937 L119,537.5137 A2.5,2.5 0 0 1 121.5,535.0137 " fill="#DDDDDD" style="stroke:#000000;stroke-width:1.5;"/><line style="stroke:#000000;stroke-width:1.5;" x1="119" x2="160" y1="559.6348" y2="559.6348"/><text fill="#000000" font-family="sans-serif" font-size="14" font-weight="bold" lengthAdjust="spacing" textLength="28" x="123" y="552.1211">rest</text></g><!--class ResponseEntity--><g id="elem_ResponseEntity"><rect codeLine="5" fill="#F1F1F1" height="32" id="ResponseEntity" rx="2.5" ry="2.5" style="stroke:#181818;stroke-width:0.5;" width="142" x="1482" y="223.0137"/><ellipse cx="1497" cy="239.0137" fill="#ADD1B2" rx="11" ry="11" style="stroke:#181818;stroke-width:1.0;"/><path d="M1499.7656,234.8887 Q1499.9219,234.6699 1500.1094,234.5605 Q1500.2969,234.4512 1500.5156,234.4512 Q1500.8906,234.4512 1501.125,234.7168 Q1501.3594,234.9668 1501.3594,235.5762 L1501.3594,237.0293 Q1501.3594,237.6387 1501.125,237.9043 Q1500.8906,238.1699 1500.5156,238.1699 Q1500.1719,238.1699 1499.9688,237.9668 Q1499.7656,237.7793 1499.6563,237.2637 Q1499.6094,236.9043 1499.4219,236.7168 Q1499.0938,236.3418 1498.4844,236.123 Q1497.875,235.9043 1497.25,235.9043 Q1496.4844,235.9043 1495.8438,236.2324 Q1495.2188,236.5605 1494.7188,237.3105 Q1494.2344,238.0605 1494.2344,239.0918 L1494.2344,240.1855 Q1494.2344,241.4199 1495.125,242.248 Q1496.0156,243.0605 1497.6094,243.0605 Q1498.5469,243.0605 1499.2031,242.8105 Q1499.5938,242.6543 1500.0156,242.2168 Q1500.2813,241.9512 1500.4219,241.873 Q1500.5781,241.7949 1500.7813,241.7949 Q1501.1094,241.7949 1501.3594,242.0605 Q1501.625,242.3105 1501.625,242.6543 Q1501.625,242.998 1501.2813,243.4043 Q1500.7813,243.9824 1499.9844,244.3105 Q1498.9063,244.7637 1497.6094,244.7637 Q1496.0938,244.7637 1494.8906,244.1387 Q1493.9063,243.6387 1493.2188,242.5762 Q1492.5313,241.498 1492.5313,240.2168 L1492.5313,239.0605 Q1492.5313,237.7324 1493.1406,236.5918 Q1493.7656,235.4355 1494.8594,234.8262 Q1495.9531,234.2012 1497.1875,234.2012 Q1497.9219,234.2012 1498.5625,234.373 Q1499.2188,234.5293 1499.7656,234.8887 Z " fill="#000000"/><text fill="#000000" font-family="sans-serif" font-size="14" lengthAdjust="spacing" textLength="99" x="1511" y="244.8105">ResponseEntity</text><rect fill="#FFFFFF" height="17.9609" style="stroke:#181818;stroke-width:1.0;stroke-dasharray:2.0,2.0;" width="9" x="1618" y="220.0137"/><text fill="#000000" font-family="sans-serif" font-size="12" font-style="italic" lengthAdjust="spacing" textLength="7" x="1619" y="233.9629">T</text></g><!--class CollectionModel--><g id="elem_CollectionModel"><rect codeLine="8" fill="#F1F1F1" height="32" id="CollectionModel" rx="2.5" ry="2.5" style="stroke:#181818;stroke-width:0.5;" width="144" x="70" y="223.0137"/><ellipse cx="85" cy="239.0137" fill="#ADD1B2" rx="11" ry="11" style="stroke:#181818;stroke-width:1.0;"/><path d="M87.7656,234.8887 Q87.9219,234.6699 88.1094,234.5605 Q88.2969,234.4512 88.5156,234.4512 Q88.8906,234.4512 89.125,234.7168 Q89.3594,234.9668 89.3594,235.5762 L89.3594,237.0293 Q89.3594,237.6387 89.125,237.9043 Q88.8906,238.1699 88.5156,238.1699 Q88.1719,238.1699 87.9688,237.9668 Q87.7656,237.7793 87.6563,237.2637 Q87.6094,236.9043 87.4219,236.7168 Q87.0938,236.3418 86.4844,236.123 Q85.875,235.9043 85.25,235.9043 Q84.4844,235.9043 83.8438,236.2324 Q83.2188,236.5605 82.7188,237.3105 Q82.2344,238.0605 82.2344,239.0918 L82.2344,240.1855 Q82.2344,241.4199 83.125,242.248 Q84.0156,243.0605 85.6094,243.0605 Q86.5469,243.0605 87.2031,242.8105 Q87.5938,242.6543 88.0156,242.2168 Q88.2813,241.9512 88.4219,241.873 Q88.5781,241.7949 88.7813,241.7949 Q89.1094,241.7949 89.3594,242.0605 Q89.625,242.3105 89.625,242.6543 Q89.625,242.998 89.2813,243.4043 Q88.7813,243.9824 87.9844,244.3105 Q86.9063,244.7637 85.6094,244.7637 Q84.0938,244.7637 82.8906,244.1387 Q81.9063,243.6387 81.2188,242.5762 Q80.5313,241.498 80.5313,240.2168 L80.5313,239.0605 Q80.5313,237.7324 81.1406,236.5918 Q81.7656,235.4355 82.8594,234.8262 Q83.9531,234.2012 85.1875,234.2012 Q85.9219,234.2012 86.5625,234.373 Q87.2188,234.5293 87.7656,234.8887 Z " fill="#000000"/><text fill="#000000" font-family="sans-serif" font-size="14" lengthAdjust="spacing" textLength="100" x="99" y="244.8105">CollectionModel</text><rect fill="#FFFFFF" height="17.9609" style="stroke:#181818;stroke-width:1.0;stroke-dasharray:2.0,2.0;" width="10" x="207" y="220.0137"/><text fill="#000000" font-family="sans-serif" font-size="12" font-style="italic" lengthAdjust="spacing" textLength="8" x="208" y="233.9629">E</text></g><!--class MultiValueMap--><g id="elem_MultiValueMap"><rect codeLine="11" fill="#F1F1F1" height="32" id="MultiValueMap" rx="2.5" ry="2.5" style="stroke:#181818;stroke-width:0.5;" width="147" x="270.5" y="223.0137"/><ellipse cx="285.5" cy="239.0137" fill="#ADD1B2" rx="11" ry="11" style="stroke:#181818;stroke-width:1.0;"/><path d="M288.2656,234.8887 Q288.4219,234.6699 288.6094,234.5605 Q288.7969,234.4512 289.0156,234.4512 Q289.3906,234.4512 289.625,234.7168 Q289.8594,234.9668 289.8594,235.5762 L289.8594,237.0293 Q289.8594,237.6387 289.625,237.9043 Q289.3906,238.1699 289.0156,238.1699 Q288.6719,238.1699 288.4688,237.9668 Q288.2656,237.7793 288.1563,237.2637 Q288.1094,236.9043 287.9219,236.7168 Q287.5938,236.3418 286.9844,236.123 Q286.375,235.9043 285.75,235.9043 Q284.9844,235.9043 284.3438,236.2324 Q283.7188,236.5605 283.2188,237.3105 Q282.7344,238.0605 282.7344,239.0918 L282.7344,240.1855 Q282.7344,241.4199 283.625,242.248 Q284.5156,243.0605 286.1094,243.0605 Q287.0469,243.0605 287.7031,242.8105 Q288.0938,242.6543 288.5156,242.2168 Q288.7813,241.9512 288.9219,241.873 Q289.0781,241.7949 289.2813,241.7949 Q289.6094,241.7949 289.8594,242.0605 Q290.125,242.3105 290.125,242.6543 Q290.125,242.998 289.7813,243.4043 Q289.2813,243.9824 288.4844,244.3105 Q287.4063,244.7637 286.1094,244.7637 Q284.5938,244.7637 283.3906,244.1387 Q282.4063,243.6387 281.7188,242.5762 Q281.0313,241.498 281.0313,240.2168 L281.0313,239.0605 Q281.0313,237.7324 281.6406,236.5918 Q282.2656,235.4355 283.3594,234.8262 Q284.4531,234.2012 285.6875,234.2012 Q286.4219,234.2012 287.0625,234.373 Q287.7188,234.5293 288.2656,234.8887 Z " fill="#000000"/><text fill="#000000" font-family="sans-serif" font-size="14" lengthAdjust="spacing" textLength="92" x="299.5" y="244.8105">MultiValueMap</text><rect fill="#FFFFFF" height="17.9609" style="stroke:#181818;stroke-width:1.0;stroke-dasharray:2.0,2.0;" width="21" x="399.5" y="220.0137"/><text fill="#000000" font-family="sans-serif" font-size="12" font-style="italic" lengthAdjust="spacing" textLength="19" x="400.5" y="233.9629">K,V</text></g><!--class RestController--><g id="elem_RestController"><rect codeLine="14" fill="#F1F1F1" height="32" id="RestController" rx="2.5" ry="2.5" style="stroke:#181818;stroke-width:0.5;" width="137" x="1048.5" y="223.0137"/><ellipse cx="1063.5" cy="239.0137" fill="#B4A7E5" rx="11" ry="11" style="stroke:#181818;stroke-width:1.0;"/><path d="M1064.4531,235.6543 L1064.4531,242.3105 L1066.1719,242.3105 Q1066.7813,242.3105 1067.0469,242.5449 Q1067.3125,242.7793 1067.3125,243.1699 Q1067.3125,243.5449 1067.0469,243.7793 Q1066.7813,244.0137 1066.1719,244.0137 L1061.0313,244.0137 Q1060.4219,244.0137 1060.1563,243.7793 Q1059.8906,243.5449 1059.8906,243.1543 Q1059.8906,242.7793 1060.1563,242.5449 Q1060.4219,242.3105 1061.0313,242.3105 L1062.75,242.3105 L1062.75,235.6543 L1061.0313,235.6543 Q1060.4219,235.6543 1060.1563,235.4199 Q1059.8906,235.1855 1059.8906,234.7949 Q1059.8906,234.4199 1060.1563,234.1855 Q1060.4219,233.9512 1061.0313,233.9512 L1066.1719,233.9512 Q1066.7813,233.9512 1067.0469,234.1855 Q1067.3125,234.4199 1067.3125,234.7949 Q1067.3125,235.1855 1067.0469,235.4199 Q1066.7813,235.6543 1066.1719,235.6543 L1064.4531,235.6543 Z " fill="#000000"/><text fill="#000000" font-family="sans-serif" font-size="14" font-style="italic" lengthAdjust="spacing" textLength="105" x="1077.5" y="244.8105">@RestController</text></g><!--class RequestMapping--><g id="elem_RequestMapping"><rect codeLine="15" fill="#F1F1F1" height="32" id="RequestMapping" rx="2.5" ry="2.5" style="stroke:#181818;stroke-width:0.5;" width="154" x="859" y="223.0137"/><ellipse cx="874" cy="239.0137" fill="#B4A7E5" rx="11" ry="11" style="stroke:#181818;stroke-width:1.0;"/><path d="M874.9531,235.6543 L874.9531,242.3105 L876.6719,242.3105 Q877.2813,242.3105 877.5469,242.5449 Q877.8125,242.7793 877.8125,243.1699 Q877.8125,243.5449 877.5469,243.7793 Q877.2813,244.0137 876.6719,244.0137 L871.5313,244.0137 Q870.9219,244.0137 870.6563,243.7793 Q870.3906,243.5449 870.3906,243.1543 Q870.3906,242.7793 870.6563,242.5449 Q870.9219,242.3105 871.5313,242.3105 L873.25,242.3105 L873.25,235.6543 L871.5313,235.6543 Q870.9219,235.6543 870.6563,235.4199 Q870.3906,235.1855 870.3906,234.7949 Q870.3906,234.4199 870.6563,234.1855 Q870.9219,233.9512 871.5313,233.9512 L876.6719,233.9512 Q877.2813,233.9512 877.5469,234.1855 Q877.8125,234.4199 877.8125,234.7949 Q877.8125,235.1855 877.5469,235.4199 Q877.2813,235.6543 876.6719,235.6543 L874.9531,235.6543 Z " fill="#000000"/><text fill="#000000" font-family="sans-serif" font-size="14" font-style="italic" lengthAdjust="spacing" textLength="122" x="888" y="244.8105">@RequestMapping</text></g><!--class PathVariable--><g id="elem_PathVariable"><rect codeLine="16" fill="#F1F1F1" height="32" id="PathVariable" rx="2.5" ry="2.5" style="stroke:#181818;stroke-width:0.5;" width="127" x="696.5" y="223.0137"/><ellipse cx="711.5" cy="239.0137" fill="#B4A7E5" rx="11" ry="11" style="stroke:#181818;stroke-width:1.0;"/><path d="M712.4531,235.6543 L712.4531,242.3105 L714.1719,242.3105 Q714.7813,242.3105 715.0469,242.5449 Q715.3125,242.7793 715.3125,243.1699 Q715.3125,243.5449 715.0469,243.7793 Q714.7813,244.0137 714.1719,244.0137 L709.0313,244.0137 Q708.4219,244.0137 708.1563,243.7793 Q707.8906,243.5449 707.8906,243.1543 Q707.8906,242.7793 708.1563,242.5449 Q708.4219,242.3105 709.0313,242.3105 L710.75,242.3105 L710.75,235.6543 L709.0313,235.6543 Q708.4219,235.6543 708.1563,235.4199 Q707.8906,235.1855 707.8906,234.7949 Q707.8906,234.4199 708.1563,234.1855 Q708.4219,233.9512 709.0313,233.9512 L714.1719,233.9512 Q714.7813,233.9512 715.0469,234.1855 Q715.3125,234.4199 715.3125,234.7949 Q715.3125,235.1855 715.0469,235.4199 Q714.7813,235.6543 714.1719,235.6543 L712.4531,235.6543 Z " fill="#000000"/><text fill="#000000" font-family="sans-serif" font-size="14" font-style="italic" lengthAdjust="spacing" textLength="95" x="725.5" y="244.8105">@PathVariable</text></g><!--class RequestParam--><g id="elem_RequestParam"><rect codeLine="17" fill="#F1F1F1" height="32" id="RequestParam" rx="2.5" ry="2.5" style="stroke:#181818;stroke-width:0.5;" width="140" x="522" y="223.0137"/><ellipse cx="537" cy="239.0137" fill="#B4A7E5" rx="11" ry="11" style="stroke:#181818;stroke-width:1.0;"/><path d="M537.9531,235.6543 L537.9531,242.3105 L539.6719,242.3105 Q540.2813,242.3105 540.5469,242.5449 Q540.8125,242.7793 540.8125,243.1699 Q540.8125,243.5449 540.5469,243.7793 Q540.2813,244.0137 539.6719,244.0137 L534.5313,244.0137 Q533.9219,244.0137 533.6563,243.7793 Q533.3906,243.5449 533.3906,243.1543 Q533.3906,242.7793 533.6563,242.5449 Q533.9219,242.3105 534.5313,242.3105 L536.25,242.3105 L536.25,235.6543 L534.5313,235.6543 Q533.9219,235.6543 533.6563,235.4199 Q533.3906,235.1855 533.3906,234.7949 Q533.3906,234.4199 533.6563,234.1855 Q533.9219,233.9512 534.5313,233.9512 L539.6719,233.9512 Q540.2813,233.9512 540.5469,234.1855 Q540.8125,234.4199 540.8125,234.7949 Q540.8125,235.1855 540.5469,235.4199 Q540.2813,235.6543 539.6719,235.6543 L537.9531,235.6543 Z " fill="#000000"/><text fill="#000000" font-family="sans-serif" font-size="14" font-style="italic" lengthAdjust="spacing" textLength="108" x="551" y="244.8105">@RequestParam</text></g><!--class ExceptionHandler--><g id="elem_ExceptionHandler"><rect codeLine="18" fill="#F1F1F1" height="32" id="ExceptionHandler" rx="2.5" ry="2.5" style="stroke:#181818;stroke-width:0.5;" width="157" x="1220.5" y="223.0137"/><ellipse cx="1235.5" cy="239.0137" fill="#B4A7E5" rx="11" ry="11" style="stroke:#181818;stroke-width:1.0;"/><path d="M1236.4531,235.6543 L1236.4531,242.3105 L1238.1719,242.3105 Q1238.7813,242.3105 1239.0469,242.5449 Q1239.3125,242.7793 1239.3125,243.1699 Q1239.3125,243.5449 1239.0469,243.7793 Q1238.7813,244.0137 1238.1719,244.0137 L1233.0313,244.0137 Q1232.4219,244.0137 1232.1563,243.7793 Q1231.8906,243.5449 1231.8906,243.1543 Q1231.8906,242.7793 1232.1563,242.5449 Q1232.4219,242.3105 1233.0313,242.3105 L1234.75,242.3105 L1234.75,235.6543 L1233.0313,235.6543 Q1232.4219,235.6543 1232.1563,235.4199 Q1231.8906,235.1855 1231.8906,234.7949 Q1231.8906,234.4199 1232.1563,234.1855 Q1232.4219,233.9512 1233.0313,233.9512 L1238.1719,233.9512 Q1238.7813,233.9512 1239.0469,234.1855 Q1239.3125,234.4199 1239.3125,234.7949 Q1239.3125,235.1855 1239.0469,235.4199 Q1238.7813,235.6543 1238.1719,235.6543 L1236.4531,235.6543 Z " fill="#000000"/><text fill="#000000" font-family="sans-serif" font-size="14" font-style="italic" lengthAdjust="spacing" textLength="125" x="1249.5" y="244.8105">@ExceptionHandler</text></g><!--class HttpServletRequest--><g id="elem_HttpServletRequest"><rect codeLine="23" fill="#F1F1F1" height="32" id="HttpServletRequest" rx="2.5" ry="2.5" style="stroke:#181818;stroke-width:0.5;" width="154" x="1243" y="616.8837"/><ellipse cx="1258" cy="632.8837" fill="#B4A7E5" rx="11" ry="11" style="stroke:#181818;stroke-width:1.0;"/><path d="M1258.9531,629.5243 L1258.9531,636.1805 L1260.6719,636.1805 Q1261.2813,636.1805 1261.5469,636.4149 Q1261.8125,636.6493 1261.8125,637.0399 Q1261.8125,637.4149 1261.5469,637.6493 Q1261.2813,637.8837 1260.6719,637.8837 L1255.5313,637.8837 Q1254.9219,637.8837 1254.6563,637.6493 Q1254.3906,637.4149 1254.3906,637.0243 Q1254.3906,636.6493 1254.6563,636.4149 Q1254.9219,636.1805 1255.5313,636.1805 L1257.25,636.1805 L1257.25,629.5243 L1255.5313,629.5243 Q1254.9219,629.5243 1254.6563,629.2899 Q1254.3906,629.0555 1254.3906,628.6649 Q1254.3906,628.2899 1254.6563,628.0555 Q1254.9219,627.8212 1255.5313,627.8212 L1260.6719,627.8212 Q1261.2813,627.8212 1261.5469,628.0555 Q1261.8125,628.2899 1261.8125,628.6649 Q1261.8125,629.0555 1261.5469,629.2899 Q1261.2813,629.5243 1260.6719,629.5243 L1258.9531,629.5243 Z " fill="#000000"/><text fill="#000000" font-family="sans-serif" font-size="14" font-style="italic" lengthAdjust="spacing" textLength="122" x="1272" y="638.6805">HttpServletRequest</text></g><!--class UUID--><g id="elem_UUID"><rect codeLine="27" fill="#F1F1F1" height="32" id="UUID" rx="2.5" ry="2.5" style="stroke:#181818;stroke-width:0.5;" width="63" x="1237.5" y="827.8837"/><ellipse cx="1252.5" cy="843.8837" fill="#ADD1B2" rx="11" ry="11" style="stroke:#181818;stroke-width:1.0;"/><path d="M1255.2656,839.7587 Q1255.4219,839.5399 1255.6094,839.4305 Q1255.7969,839.3212 1256.0156,839.3212 Q1256.3906,839.3212 1256.625,839.5868 Q1256.8594,839.8368 1256.8594,840.4462 L1256.8594,841.8993 Q1256.8594,842.5087 1256.625,842.7743 Q1256.3906,843.0399 1256.0156,843.0399 Q1255.6719,843.0399 1255.4688,842.8368 Q1255.2656,842.6493 1255.1563,842.1337 Q1255.1094,841.7743 1254.9219,841.5868 Q1254.5938,841.2118 1253.9844,840.993 Q1253.375,840.7743 1252.75,840.7743 Q1251.9844,840.7743 1251.3438,841.1024 Q1250.7188,841.4305 1250.2188,842.1805 Q1249.7344,842.9305 1249.7344,843.9618 L1249.7344,845.0555 Q1249.7344,846.2899 1250.625,847.118 Q1251.5156,847.9305 1253.1094,847.9305 Q1254.0469,847.9305 1254.7031,847.6805 Q1255.0938,847.5243 1255.5156,847.0868 Q1255.7813,846.8212 1255.9219,846.743 Q1256.0781,846.6649 1256.2813,846.6649 Q1256.6094,846.6649 1256.8594,846.9305 Q1257.125,847.1805 1257.125,847.5243 Q1257.125,847.868 1256.7813,848.2743 Q1256.2813,848.8524 1255.4844,849.1805 Q1254.4063,849.6337 1253.1094,849.6337 Q1251.5938,849.6337 1250.3906,849.0087 Q1249.4063,848.5087 1248.7188,847.4462 Q1248.0313,846.368 1248.0313,845.0868 L1248.0313,843.9305 Q1248.0313,842.6024 1248.6406,841.4618 Q1249.2656,840.3055 1250.3594,839.6962 Q1251.4531,839.0712 1252.6875,839.0712 Q1253.4219,839.0712 1254.0625,839.243 Q1254.7188,839.3993 1255.2656,839.7587 Z " fill="#000000"/><text fill="#000000" font-family="sans-serif" font-size="14" lengthAdjust="spacing" textLength="31" x="1266.5" y="849.6805">UUID</text></g><!--class FacultyReadService--><g id="elem_FacultyReadService"><rect codeLine="33" fill="#F1F1F1" height="60.543" id="FacultyReadService" rx="2.5" ry="2.5" style="stroke:#181818;stroke-width:0.5;" width="159" x="359.5" y="1122.0937"/><ellipse cx="374.5" cy="1152.3652" fill="#ADD1B2" rx="11" ry="11" style="stroke:#181818;stroke-width:1.0;"/><path d="M377.2656,1148.2402 Q377.4219,1148.0214 377.6094,1147.912 Q377.7969,1147.8027 378.0156,1147.8027 Q378.3906,1147.8027 378.625,1148.0683 Q378.8594,1148.3183 378.8594,1148.9277 L378.8594,1150.3808 Q378.8594,1150.9902 378.625,1151.2558 Q378.3906,1151.5214 378.0156,1151.5214 Q377.6719,1151.5214 377.4688,1151.3183 Q377.2656,1151.1308 377.1563,1150.6152 Q377.1094,1150.2558 376.9219,1150.0683 Q376.5938,1149.6933 375.9844,1149.4745 Q375.375,1149.2558 374.75,1149.2558 Q373.9844,1149.2558 373.3438,1149.5839 Q372.7188,1149.912 372.2188,1150.662 Q371.7344,1151.412 371.7344,1152.4433 L371.7344,1153.537 Q371.7344,1154.7714 372.625,1155.5995 Q373.5156,1156.412 375.1094,1156.412 Q376.0469,1156.412 376.7031,1156.162 Q377.0938,1156.0058 377.5156,1155.5683 Q377.7813,1155.3027 377.9219,1155.2245 Q378.0781,1155.1464 378.2813,1155.1464 Q378.6094,1155.1464 378.8594,1155.412 Q379.125,1155.662 379.125,1156.0058 Q379.125,1156.3495 378.7813,1156.7558 Q378.2813,1157.3339 377.4844,1157.662 Q376.4063,1158.1152 375.1094,1158.1152 Q373.5938,1158.1152 372.3906,1157.4902 Q371.4063,1156.9902 370.7188,1155.9277 Q370.0313,1154.8495 370.0313,1153.5683 L370.0313,1152.412 Q370.0313,1151.0839 370.6406,1149.9433 Q371.2656,1148.787 372.3594,1148.1777 Q373.4531,1147.5527 374.6875,1147.5527 Q375.4219,1147.5527 376.0625,1147.7245 Q376.7188,1147.8808 377.2656,1148.2402 Z " fill="#000000"/><text fill="#000000" font-family="sans-serif" font-size="12" font-style="italic" lengthAdjust="spacing" textLength="51" x="426.5" y="1140.0429">&#171;control&#187;</text><text fill="#000000" font-family="sans-serif" font-size="12" font-style="italic" lengthAdjust="spacing" textLength="67" x="418.5" y="1156.0038">&#171;@Service&#187;</text><text fill="#000000" font-family="sans-serif" font-size="14" lengthAdjust="spacing" textLength="127" x="388.5" y="1174.123">FacultyReadService</text></g><!--class NotFoundException--><g id="elem_NotFoundException"><rect codeLine="34" fill="#F1F1F1" height="32" id="NotFoundException" rx="2.5" ry="2.5" style="stroke:#181818;stroke-width:0.5;" width="155" x="553.5" y="1136.3637"/><ellipse cx="568.5" cy="1152.3637" fill="#ADD1B2" rx="11" ry="11" style="stroke:#181818;stroke-width:1.0;"/><path d="M571.2656,1148.2387 Q571.4219,1148.0199 571.6094,1147.9105 Q571.7969,1147.8012 572.0156,1147.8012 Q572.3906,1147.8012 572.625,1148.0668 Q572.8594,1148.3168 572.8594,1148.9262 L572.8594,1150.3793 Q572.8594,1150.9887 572.625,1151.2543 Q572.3906,1151.5199 572.0156,1151.5199 Q571.6719,1151.5199 571.4688,1151.3168 Q571.2656,1151.1293 571.1563,1150.6137 Q571.1094,1150.2543 570.9219,1150.0668 Q570.5938,1149.6918 569.9844,1149.473 Q569.375,1149.2543 568.75,1149.2543 Q567.9844,1149.2543 567.3438,1149.5824 Q566.7188,1149.9105 566.2188,1150.6605 Q565.7344,1151.4105 565.7344,1152.4418 L565.7344,1153.5355 Q565.7344,1154.7699 566.625,1155.598 Q567.5156,1156.4105 569.1094,1156.4105 Q570.0469,1156.4105 570.7031,1156.1605 Q571.0938,1156.0043 571.5156,1155.5668 Q571.7813,1155.3012 571.9219,1155.223 Q572.0781,1155.1449 572.2813,1155.1449 Q572.6094,1155.1449 572.8594,1155.4105 Q573.125,1155.6605 573.125,1156.0043 Q573.125,1156.348 572.7813,1156.7543 Q572.2813,1157.3324 571.4844,1157.6605 Q570.4063,1158.1137 569.1094,1158.1137 Q567.5938,1158.1137 566.3906,1157.4887 Q565.4063,1156.9887 564.7188,1155.9262 Q564.0313,1154.848 564.0313,1153.5668 L564.0313,1152.4105 Q564.0313,1151.0824 564.6406,1149.9418 Q565.2656,1148.7855 566.3594,1148.1762 Q567.4531,1147.5512 568.6875,1147.5512 Q569.4219,1147.5512 570.0625,1147.723 Q570.7188,1147.8793 571.2656,1148.2387 Z " fill="#000000"/><text fill="#000000" font-family="sans-serif" font-size="14" lengthAdjust="spacing" textLength="123" x="582.5" y="1158.1605">NotFoundException</text></g><!--class FacultyModel--><g id="elem_FacultyModel"><rect codeLine="38" fill="#F1F1F1" height="44.582" id="FacultyModel" rx="2.5" ry="2.5" style="stroke:#181818;stroke-width:0.5;" width="116" x="543" y="821.5937"/><ellipse cx="558" cy="843.8847" fill="#ADD1B2" rx="11" ry="11" style="stroke:#181818;stroke-width:1.0;"/><path d="M560.7656,839.7597 Q560.9219,839.5409 561.1094,839.4316 Q561.2969,839.3222 561.5156,839.3222 Q561.8906,839.3222 562.125,839.5878 Q562.3594,839.8378 562.3594,840.4472 L562.3594,841.9003 Q562.3594,842.5097 562.125,842.7753 Q561.8906,843.0409 561.5156,843.0409 Q561.1719,843.0409 560.9688,842.8378 Q560.7656,842.6503 560.6563,842.1347 Q560.6094,841.7753 560.4219,841.5878 Q560.0938,841.2128 559.4844,840.9941 Q558.875,840.7753 558.25,840.7753 Q557.4844,840.7753 556.8438,841.1034 Q556.2188,841.4316 555.7188,842.1816 Q555.2344,842.9316 555.2344,843.9628 L555.2344,845.0566 Q555.2344,846.2909 556.125,847.1191 Q557.0156,847.9316 558.6094,847.9316 Q559.5469,847.9316 560.2031,847.6816 Q560.5938,847.5253 561.0156,847.0878 Q561.2813,846.8222 561.4219,846.7441 Q561.5781,846.6659 561.7813,846.6659 Q562.1094,846.6659 562.3594,846.9316 Q562.625,847.1816 562.625,847.5253 Q562.625,847.8691 562.2813,848.2753 Q561.7813,848.8534 560.9844,849.1816 Q559.9063,849.6347 558.6094,849.6347 Q557.0938,849.6347 555.8906,849.0097 Q554.9063,848.5097 554.2188,847.4472 Q553.5313,846.3691 553.5313,845.0878 L553.5313,843.9316 Q553.5313,842.6034 554.1406,841.4628 Q554.7656,840.3066 555.8594,839.6972 Q556.9531,839.0722 558.1875,839.0722 Q558.9219,839.0722 559.5625,839.2441 Q560.2188,839.4003 560.7656,839.7597 Z " fill="#000000"/><text fill="#000000" font-family="sans-serif" font-size="12" font-style="italic" lengthAdjust="spacing" textLength="43" x="592.5" y="839.5429">&#171;entity&#187;</text><text fill="#000000" font-family="sans-serif" font-size="14" lengthAdjust="spacing" textLength="84" x="572" y="857.662">FacultyModel</text></g><!--class FacultyGetController--><g id="elem_FacultyGetController"><rect codeLine="40" fill="#F1F1F1" height="121.7461" id="FacultyGetController" rx="2.5" ry="2.5" style="stroke:#181818;stroke-width:0.5;" width="933" x="134.5" y="572.0137"/><ellipse cx="531.25" cy="610.2656" fill="#ADD1B2" rx="11" ry="11" style="stroke:#181818;stroke-width:1.0;"/><path d="M534.0156,606.1406 Q534.1719,605.9219 534.3594,605.8125 Q534.5469,605.7031 534.7656,605.7031 Q535.1406,605.7031 535.375,605.9687 Q535.6094,606.2187 535.6094,606.8281 L535.6094,608.2812 Q535.6094,608.8906 535.375,609.1562 Q535.1406,609.4219 534.7656,609.4219 Q534.4219,609.4219 534.2188,609.2187 Q534.0156,609.0312 533.9063,608.5156 Q533.8594,608.1562 533.6719,607.9687 Q533.3438,607.5937 532.7344,607.375 Q532.125,607.1562 531.5,607.1562 Q530.7344,607.1562 530.0938,607.4844 Q529.4688,607.8125 528.9688,608.5625 Q528.4844,609.3125 528.4844,610.3437 L528.4844,611.4375 Q528.4844,612.6719 529.375,613.5 Q530.2656,614.3125 531.8594,614.3125 Q532.7969,614.3125 533.4531,614.0625 Q533.8438,613.9062 534.2656,613.4687 Q534.5313,613.2031 534.6719,613.125 Q534.8281,613.0469 535.0313,613.0469 Q535.3594,613.0469 535.6094,613.3125 Q535.875,613.5625 535.875,613.9062 Q535.875,614.25 535.5313,614.6562 Q535.0313,615.2344 534.2344,615.5625 Q533.1563,616.0156 531.8594,616.0156 Q530.3438,616.0156 529.1406,615.3906 Q528.1563,614.8906 527.4688,613.8281 Q526.7813,612.75 526.7813,611.4687 L526.7813,610.3125 Q526.7813,608.9844 527.3906,607.8437 Q528.0156,606.6875 529.1094,606.0781 Q530.2031,605.4531 531.4375,605.4531 Q532.1719,605.4531 532.8125,605.625 Q533.4688,605.7812 534.0156,606.1406 Z " fill="#000000"/><text fill="#000000" font-family="sans-serif" font-size="12" font-style="italic" lengthAdjust="spacing" textLength="67" x="583.75" y="589.9629">&#171;boundary&#187;</text><text fill="#000000" font-family="sans-serif" font-size="12" font-style="italic" lengthAdjust="spacing" textLength="105" x="564.75" y="605.9238">&#171;@RestController&#187;</text><text fill="#000000" font-family="sans-serif" font-size="12" font-style="italic" lengthAdjust="spacing" textLength="119" x="557.75" y="621.8848">&#171;@RequestMapping&#187;</text><text fill="#000000" font-family="sans-serif" font-size="14" lengthAdjust="spacing" textLength="131" x="551.75" y="640.0039">FacultyGetController</text><line style="stroke:#181818;stroke-width:0.5;" x1="135.5" x2="1066.5" y1="648.5176" y2="648.5176"/><text fill="#000000" font-family="sans-serif" font-size="14" lengthAdjust="spacing" textLength="587" x="140.5" y="667.625">+@GetMapping getById(@PathVariable id: UUID, request: HttpServletRequest): FacultyModel</text><text fill="#000000" font-family="sans-serif" font-size="14" lengthAdjust="spacing" textLength="921" x="140.5" y="686.2461">+@GetMapping get(@RequestParam queryParams: MultiValueMap&lt;String, String&gt;, request: HttpServletRequest): CollectionModel&lt;FacultyModel&gt;</text></g><!--class CommonExceptionHandler--><g id="elem_CommonExceptionHandler"><rect codeLine="45" fill="#F1F1F1" height="71.2031" id="CommonExceptionHandler" rx="2.5" ry="2.5" style="stroke:#181818;stroke-width:0.5;" width="744" x="259" y="964.8837"/><ellipse cx="543.75" cy="987.1747" fill="#ADD1B2" rx="11" ry="11" style="stroke:#181818;stroke-width:1.0;"/><path d="M546.5156,983.0497 Q546.6719,982.8309 546.8594,982.7216 Q547.0469,982.6122 547.2656,982.6122 Q547.6406,982.6122 547.875,982.8778 Q548.1094,983.1278 548.1094,983.7372 L548.1094,985.1903 Q548.1094,985.7997 547.875,986.0653 Q547.6406,986.3309 547.2656,986.3309 Q546.9219,986.3309 546.7188,986.1278 Q546.5156,985.9403 546.4063,985.4247 Q546.3594,985.0653 546.1719,984.8778 Q545.8438,984.5028 545.2344,984.2841 Q544.625,984.0653 544,984.0653 Q543.2344,984.0653 542.5938,984.3934 Q541.9688,984.7216 541.4688,985.4716 Q540.9844,986.2216 540.9844,987.2528 L540.9844,988.3466 Q540.9844,989.5809 541.875,990.4091 Q542.7656,991.2216 544.3594,991.2216 Q545.2969,991.2216 545.9531,990.9716 Q546.3438,990.8153 546.7656,990.3778 Q547.0313,990.1122 547.1719,990.0341 Q547.3281,989.9559 547.5313,989.9559 Q547.8594,989.9559 548.1094,990.2216 Q548.375,990.4716 548.375,990.8153 Q548.375,991.1591 548.0313,991.5653 Q547.5313,992.1434 546.7344,992.4716 Q545.6563,992.9247 544.3594,992.9247 Q542.8438,992.9247 541.6406,992.2997 Q540.6563,991.7997 539.9688,990.7372 Q539.2813,989.6591 539.2813,988.3778 L539.2813,987.2216 Q539.2813,985.8934 539.8906,984.7528 Q540.5156,983.5966 541.6094,982.9872 Q542.7031,982.3622 543.9375,982.3622 Q544.6719,982.3622 545.3125,982.5341 Q545.9688,982.6903 546.5156,983.0497 Z " fill="#000000"/><text fill="#000000" font-family="sans-serif" font-size="12" font-style="italic" lengthAdjust="spacing" textLength="117" x="588.75" y="982.8329">&#171;@ControllerAdvice&#187;</text><text fill="#000000" font-family="sans-serif" font-size="14" lengthAdjust="spacing" textLength="166" x="564.25" y="1000.952">CommonExceptionHandler</text><line style="stroke:#181818;stroke-width:0.5;" x1="260" x2="1002" y1="1009.4657" y2="1009.4657"/><text fill="#000000" font-family="sans-serif" font-size="14" lengthAdjust="spacing" textLength="732" x="265" y="1028.5731">@ExceptionHandler public ProblemDetail onNotFound(final NotFoundException ex, final HttpServletRequest request)</text></g><!--reverse link HttpServletRequest to UUID--><!--link FacultyGetController to FacultyReadService--><g id="link_FacultyGetController_FacultyReadService"><path codeLine="49" d="M746.0902,699.576 C911.9902,781.866 1146.85,928.7137 1020,1060.0937 C1001.31,1079.4437 561.33,1068.0137 536,1077.0937 C510.05,1086.3937 489.8611,1101.3473 471.9211,1117.8073 " fill="none" id="FacultyGetController-FacultyReadService" style="stroke:#181818;stroke-width:1.0;"/><polygon fill="none" points="735.34,694.2437,738.9376,700.4932,746.0902,699.576,742.4925,693.3264,735.34,694.2437" style="stroke:#181818;stroke-width:1.0;"/><polygon fill="#181818" points="467.5,1121.8637,476.8359,1118.7265,471.1842,1118.4834,471.4274,1112.8317,467.5,1121.8637" style="stroke:#181818;stroke-width:1.0;"/><text fill="#000000" font-family="sans-serif" font-size="13" lengthAdjust="spacing" textLength="40" x="1045" y="930.912">service</text><text fill="#000000" font-family="sans-serif" font-size="13" lengthAdjust="spacing" textLength="7" x="465.6563" y="1110.8779">1</text></g><!--link FacultyGetController to FacultyModel--><g id="link_FacultyGetController_FacultyModel"><path codeLine="50" d="M601,694.0537 C601,736.7437 601,785.5537 601,815.3137 " fill="none" id="FacultyGetController-to-FacultyModel" style="stroke:#181818;stroke-width:1.0;stroke-dasharray:7.0,7.0;"/><polygon fill="#181818" points="601,821.3137,605,812.3137,601,816.3137,597,812.3137,601,821.3137" style="stroke:#181818;stroke-width:1.0;"/></g><!--reverse link RestController to FacultyGetController--><g id="link_RestController_FacultyGetController"><path codeLine="52" d="M1107.61,260.8295 C1095.05,287.7095 1068.67,338.4137 1031,375.0137 C945.09,458.4937 827.13,526.5037 736.49,571.5337 " fill="none" id="RestController-backto-FacultyGetController" style="stroke:#181818;stroke-width:1.0;stroke-dasharray:7.0,7.0;"/><polygon fill="#181818" points="1110.15,255.3937,1102.7161,261.8541,1108.0334,259.9236,1109.964,265.2408,1110.15,255.3937" style="stroke:#181818;stroke-width:1.0;"/></g><!--reverse link RequestMapping to FacultyGetController--><g id="link_RequestMapping_FacultyGetController"><path codeLine="53" d="M922.8597,260.5306 C906.2697,286.1606 874.61,333.6437 841,375.0137 C783.65,445.5937 711.76,521.0337 661.68,571.7637 " fill="none" id="RequestMapping-backto-FacultyGetController" style="stroke:#181818;stroke-width:1.0;stroke-dasharray:7.0,7.0;"/><polygon fill="#181818" points="926.12,255.4937,917.8716,260.8755,923.4031,259.6911,924.5874,265.2226,926.12,255.4937" style="stroke:#181818;stroke-width:1.0;"/></g><!--reverse link PathVariable to FacultyGetController--><g id="link_PathVariable_FacultyGetController"><path codeLine="54" d="M751.5143,260.9335 C730.3843,313.0135 662.96,479.1737 625.44,571.6537 " fill="none" id="PathVariable-backto-FacultyGetController" style="stroke:#181818;stroke-width:1.0;stroke-dasharray:7.0,7.0;"/><polygon fill="#181818" points="753.77,255.3737,746.6798,262.2096,751.8902,260.0069,754.0929,265.2172,753.77,255.3737" style="stroke:#181818;stroke-width:1.0;"/></g><!--reverse link RequestParam to FacultyGetController--><g id="link_RequestParam_FacultyGetController"><path codeLine="55" d="M592.4882,261.3721 C593.6882,313.4521 597.49,479.1737 599.62,571.6537 " fill="none" id="RequestParam-backto-FacultyGetController" style="stroke:#181818;stroke-width:1.0;stroke-dasharray:7.0,7.0;"/><polygon fill="#181818" points="592.35,255.3737,588.5584,264.4634,592.4652,260.3723,596.5563,264.2791,592.35,255.3737" style="stroke:#181818;stroke-width:1.0;"/></g><!--reverse link ResponseEntity to FacultyGetController--><g id="link_ResponseEntity_FacultyGetController"><path codeLine="56" d="M1537.062,259.6973 C1512.772,288.7573 1458.63,347.4837 1394,375.0137 C1325.36,404.2537 1299.58,374.7337 1227,392.0137 C1048.67,434.4637 852.82,515.4737 728.51,571.5337 " fill="none" id="ResponseEntity-backto-FacultyGetController" style="stroke:#181818;stroke-width:1.0;stroke-dasharray:7.0,7.0;"/><polygon fill="#181818" points="1540.91,255.0937,1532.069,259.4338,1537.7034,258.93,1538.2071,264.5644,1540.91,255.0937" style="stroke:#181818;stroke-width:1.0;"/></g><!--reverse link MultiValueMap to FacultyGetController--><g id="link_MultiValueMap_FacultyGetController"><path codeLine="57" d="M357.3608,260.3907 C391.5208,312.4707 500.85,479.1737 561.49,571.6537 " fill="none" id="MultiValueMap-backto-FacultyGetController" style="stroke:#181818;stroke-width:1.0;stroke-dasharray:7.0,7.0;"/><polygon fill="#181818" points="354.07,255.3737,355.6614,265.0931,356.8123,259.5546,362.3508,260.7054,354.07,255.3737" style="stroke:#181818;stroke-width:1.0;"/></g><!--reverse link CollectionModel to FacultyGetController--><g id="link_CollectionModel_FacultyGetController"><path codeLine="58" d="M156.2156,260.0731 C175.0056,286.1731 212.41,335.6637 254,375.0137 C333.22,449.9637 434.48,522.7037 507.14,571.5237 " fill="none" id="CollectionModel-backto-FacultyGetController" style="stroke:#181818;stroke-width:1.0;stroke-dasharray:7.0,7.0;"/><polygon fill="#181818" points="152.71,255.2037,154.7221,264.8448,155.6313,259.2615,161.2146,260.1707,152.71,255.2037" style="stroke:#181818;stroke-width:1.0;"/></g><!--link FacultyGetController to HttpServletRequest--><g id="link_FacultyGetController_HttpServletRequest"><path codeLine="59" d="M1067.93,632.8837 C1126.19,632.8837 1178.45,632.8837 1236.7,632.8837 " fill="none" id="FacultyGetController-to-HttpServletRequest" style="stroke:#181818;stroke-width:1.0;stroke-dasharray:7.0,7.0;"/><polygon fill="#181818" points="1242.7,632.8837,1233.7,628.8837,1237.7,632.8837,1233.7,636.8837,1242.7,632.8837" style="stroke:#181818;stroke-width:1.0;"/></g><!--reverse link ExceptionHandler to CommonExceptionHandler--><g id="link_ExceptionHandler_CommonExceptionHandler"><path codeLine="61" d="M1320.3523,259.3632 C1347.1223,284.6432 1393.7,334.1237 1413,392.0137 C1486.75,613.2637 1507.53,773.4037 1317,907.8837 C1264.36,945.0437 1135.42,967.1437 1003.36,980.2837 " fill="none" id="ExceptionHandler-backto-CommonExceptionHandler" style="stroke:#181818;stroke-width:1.0;stroke-dasharray:7.0,7.0;"/><polygon fill="#181818" points="1315.99,255.2437,1319.7871,264.3311,1319.6253,258.6766,1325.2798,258.5147,1315.99,255.2437" style="stroke:#181818;stroke-width:1.0;"/></g><!--link CommonExceptionHandler to NotFoundException--><g id="link_CommonExceptionHandler_NotFoundException"><path codeLine="62" d="M631,1036.2537 C631,1067.7237 631,1106.6237 631,1129.9537 " fill="none" id="CommonExceptionHandler-to-NotFoundException" style="stroke:#181818;stroke-width:1.0;stroke-dasharray:7.0,7.0;"/><polygon fill="#181818" points="631,1135.9537,635,1126.9537,631,1130.9537,627,1126.9537,631,1135.9537" style="stroke:#181818;stroke-width:1.0;"/></g><!--reverse link FacultyModel to CommonExceptionHandler--><!--link FacultyGetController to UUID--><g id="link_FacultyGetController_UUID"><path codeLine="65" d="M949.54,694.2237 C995.16,706.4137 1040.71,720.8637 1083,737.8837 C1145.09,762.8837 1207.0858,801.5234 1241.2058,824.0934 " fill="none" id="FacultyGetController-to-UUID" style="stroke:#181818;stroke-width:1.0;stroke-dasharray:7.0,7.0;"/><polygon fill="#181818" points="1246.21,827.4037,1240.9105,819.1022,1242.0398,824.6451,1236.4968,825.7745,1246.21,827.4037" style="stroke:#181818;stroke-width:1.0;"/></g><!--link FacultyModel to FacultyReadService--><g id="link_FacultyModel_FacultyReadService"><path codeLine="67" d="M542.8,844.9737 C460.11,848.6237 311.03,869.0337 242,964.8837 C217.27,999.2237 219.22,1024.4337 242,1060.0937 C267.82,1100.5137 310.8999,1121.59 353.4799,1134.28 " fill="none" id="FacultyModel-to-FacultyReadService" style="stroke:#181818;stroke-width:1.0;stroke-dasharray:7.0,7.0;"/><polygon fill="#181818" points="359.23,1135.9937,351.7473,1129.5898,354.4383,1134.5656,349.4624,1137.2565,359.23,1135.9937" style="stroke:#181818;stroke-width:1.0;"/></g><text fill="#888888" font-family="sans-serif" font-size="10" lengthAdjust="spacing" textLength="99" x="791" y="1287.4247">(c) Ahmad Hawarnah</text><!--SRC=[bLNFRzem5Bxdhx3O1JGQRLU4edQ5hjN4XChQoxJ3I_80ZyJE7AUKJVtVQpj9umGJEb_YFB_l_VpydEyeoq10Ig84ylnAIa73Gk9TnDcA_aNooVCoY7QmGSB5niypGTbchG2uvs97_db4hLfZAsLMYVGo9iazvXbdESwPfF8m_H6OyvSs42Hoo8-mrpn9C9AKimMFCPdENU12qkG8kIWIIHyXAN01sVJR-D65t6FeXvJ5FZ369MW_bY7A98erH4W6boe9USsP53eWCI1Wyh949r1_2gMb8iXKrIgKBNAYbY2tZo0eX0aQZ2teyxFKZRIz684JCN-ECDFvtWABwuowmgfYBmq5ViCEX0G_H_6KeFIjXZVMRvLmLIfKSRHDF85ljQniryF3tSpywWtnY-pdbiOnibz-SCPUn5CVeXHzvLlr_D2Xf8wKgg2w_BWfjUyHubMbCfqgOwQV90ZqtsLz4WGTz7SkRtZ1uhUALQLgkHOgKl9XPjOf_uRMoXUQow7ykDM-eaKr7LgelOCur96soTX8RR9fQHE6NX_9fR9S7szGVZdSnSCM0GcD9wOfOvMFiJPnD6GqQINKxsJOuYjHMt4mstpIkROhgQVDc9JVu5m8tMbXXzHqyCKx6Z9fobcN_AQ0JKcluee9dH8UtIII5M528x8KN9KldQ44nNNEQieCrvH1SimWWizZKfuT9rSdFd9buUG8lxW8oE3pm4NqINqh-atuwkwrkdf6lSWKuCHKx4Ku9s8FmZaFptjeJyF-7AmNwps85ctV0-XGzGn4qCrMkYVX6_84YqjtpidUXr8OzuphTsLDxVzXJfsVUGMwkkM8jCXeKRbvePHZ99XcwW58CGrHv9wtvbozIMGOZSZLDeMOtC8U18Ejzme0]--></g></svg>
