<?xml version="1.0" encoding="us-ascii" standalone="no"?><svg xmlns="http://www.w3.org/2000/svg" xmlns:xlink="http://www.w3.org/1999/xlink" contentStyleType="text/css" height="876px" preserveAspectRatio="none" style="width:847px;height:876px;background:#FFFFFF;" version="1.1" viewBox="0 0 847 876" width="847px" zoomAndPan="magnify"><defs/><g><!--cluster org--><g id="cluster_org"><path d="M79.5,6.0137 L104.5,6.0137 A3.75,3.75 0 0 1 107,8.5137 L114,30.6348 L280.5,30.6348 A2.5,2.5 0 0 1 283,33.1348 L283,242.5137 A2.5,2.5 0 0 1 280.5,245.0137 L79.5,245.0137 A2.5,2.5 0 0 1 77,242.5137 L77,8.5137 A2.5,2.5 0 0 1 79.5,6.0137 " fill="none" style="stroke:#000000;stroke-width:1.5;"/><line style="stroke:#000000;stroke-width:1.5;" x1="77" x2="114" y1="30.6348" y2="30.6348"/><text fill="#000000" font-family="sans-serif" font-size="14" font-weight="bold" lengthAdjust="spacing" textLength="24" x="81" y="23.1211">org</text></g><!--cluster springframework--><g id="cluster_springframework"><path d="M103.5,51.0137 L223.5,51.0137 A3.75,3.75 0 0 1 226,53.5137 L233,75.6348 L256.5,75.6348 A2.5,2.5 0 0 1 259,78.1348 L259,218.5137 A2.5,2.5 0 0 1 256.5,221.0137 L103.5,221.0137 A2.5,2.5 0 0 1 101,218.5137 L101,53.5137 A2.5,2.5 0 0 1 103.5,51.0137 " fill="none" style="stroke:#000000;stroke-width:1.5;"/><line style="stroke:#000000;stroke-width:1.5;" x1="101" x2="233" y1="75.6348" y2="75.6348"/><text fill="#000000" font-family="sans-serif" font-size="14" font-weight="bold" lengthAdjust="spacing" textLength="119" x="105" y="68.1211">springframework</text></g><!--cluster stereotype--><g id="cluster_stereotype"><path d="M127.5,96.0137 L204.5,96.0137 A3.75,3.75 0 0 1 207,98.5137 L214,120.6348 L232.5,120.6348 A2.5,2.5 0 0 1 235,123.1348 L235,194.5137 A2.5,2.5 0 0 1 232.5,197.0137 L127.5,197.0137 A2.5,2.5 0 0 1 125,194.5137 L125,98.5137 A2.5,2.5 0 0 1 127.5,96.0137 " fill="none" style="stroke:#000000;stroke-width:1.5;"/><line style="stroke:#000000;stroke-width:1.5;" x1="125" x2="214" y1="120.6348" y2="120.6348"/><text fill="#000000" font-family="sans-serif" font-size="14" font-weight="bold" lengthAdjust="spacing" textLength="76" x="129" y="113.1211">stereotype</text></g><!--cluster java--><g id="cluster_java"><path d="M309.5,51.0137 L339.5,51.0137 A3.75,3.75 0 0 1 342,53.5137 L349,75.6348 L837.5,75.6348 A2.5,2.5 0 0 1 840,78.1348 L840,218.5137 A2.5,2.5 0 0 1 837.5,221.0137 L309.5,221.0137 A2.5,2.5 0 0 1 307,218.5137 L307,53.5137 A2.5,2.5 0 0 1 309.5,51.0137 " fill="none" style="stroke:#000000;stroke-width:1.5;"/><line style="stroke:#000000;stroke-width:1.5;" x1="307" x2="349" y1="75.6348" y2="75.6348"/><text fill="#000000" font-family="sans-serif" font-size="14" font-weight="bold" lengthAdjust="spacing" textLength="29" x="311" y="68.1211">java</text></g><!--cluster util--><g id="cluster_util"><path d="M333.5,96.0137 L356.5,96.0137 A3.75,3.75 0 0 1 359,98.5137 L366,120.6348 L813.5,120.6348 A2.5,2.5 0 0 1 816,123.1348 L816,194.5137 A2.5,2.5 0 0 1 813.5,197.0137 L333.5,197.0137 A2.5,2.5 0 0 1 331,194.5137 L331,98.5137 A2.5,2.5 0 0 1 333.5,96.0137 " fill="none" style="stroke:#000000;stroke-width:1.5;"/><line style="stroke:#000000;stroke-width:1.5;" x1="331" x2="366" y1="120.6348" y2="120.6348"/><text fill="#000000" font-family="sans-serif" font-size="14" font-weight="bold" lengthAdjust="spacing" textLength="22" x="335" y="113.1211">util</text></g><!--cluster com--><g id="cluster_com"><path d="M8.5,278.0137 L38.5,278.0137 A3.75,3.75 0 0 1 41,280.5137 L48,302.6348 L765.5,302.6348 A2.5,2.5 0 0 1 768,305.1348 L768,867.0837 A2.5,2.5 0 0 1 765.5,869.5837 L8.5,869.5837 A2.5,2.5 0 0 1 6,867.0837 L6,280.5137 A2.5,2.5 0 0 1 8.5,278.0137 " fill="none" style="stroke:#000000;stroke-width:1.5;"/><line style="stroke:#000000;stroke-width:1.5;" x1="6" x2="48" y1="302.6348" y2="302.6348"/><text fill="#000000" font-family="sans-serif" font-size="14" font-weight="bold" lengthAdjust="spacing" textLength="29" x="10" y="295.1211">com</text></g><!--cluster acme--><g id="cluster_acme"><path d="M32.5,323.0137 L70.5,323.0137 A3.75,3.75 0 0 1 73,325.5137 L80,347.6348 L741.5,347.6348 A2.5,2.5 0 0 1 744,350.1348 L744,843.0837 A2.5,2.5 0 0 1 741.5,845.5837 L32.5,845.5837 A2.5,2.5 0 0 1 30,843.0837 L30,325.5137 A2.5,2.5 0 0 1 32.5,323.0137 " fill="none" style="stroke:#000000;stroke-width:1.5;"/><line style="stroke:#000000;stroke-width:1.5;" x1="30" x2="80" y1="347.6348" y2="347.6348"/><text fill="#000000" font-family="sans-serif" font-size="14" font-weight="bold" lengthAdjust="spacing" textLength="37" x="34" y="340.1211">acme</text></g><!--cluster faculty--><g id="cluster_faculty"><path d="M56.5,368.0137 L103.5,368.0137 A3.75,3.75 0 0 1 106,370.5137 L113,392.6348 L717.5,392.6348 A2.5,2.5 0 0 1 720,395.1348 L720,819.0837 A2.5,2.5 0 0 1 717.5,821.5837 L56.5,821.5837 A2.5,2.5 0 0 1 54,819.0837 L54,370.5137 A2.5,2.5 0 0 1 56.5,368.0137 " fill="none" style="stroke:#000000;stroke-width:1.5;"/><line style="stroke:#000000;stroke-width:1.5;" x1="54" x2="113" y1="392.6348" y2="392.6348"/><text fill="#000000" font-family="sans-serif" font-size="14" font-weight="bold" lengthAdjust="spacing" textLength="46" x="58" y="385.1211">faculty</text></g><!--cluster entity--><g id="cluster_entity"><path d="M80.5,458.2337 L120.5,458.2337 A3.75,3.75 0 0 1 123,460.7337 L130,482.8548 L185.5,482.8548 A2.5,2.5 0 0 1 188,485.3548 L188,569.3137 A2.5,2.5 0 0 1 185.5,571.8137 L80.5,571.8137 A2.5,2.5 0 0 1 78,569.3137 L78,460.7337 A2.5,2.5 0 0 1 80.5,458.2337 " fill="none" style="stroke:#000000;stroke-width:1.5;"/><line style="stroke:#000000;stroke-width:1.5;" x1="78" x2="130" y1="482.8548" y2="482.8548"/><text fill="#000000" font-family="sans-serif" font-size="14" font-weight="bold" lengthAdjust="spacing" textLength="39" x="82" y="475.3411">entity</text></g><!--cluster repository--><g id="cluster_repository"><path d="M367.5,668.0437 L440.5,668.0437 A3.75,3.75 0 0 1 443,670.5437 L450,692.6648 L540.5,692.6648 A2.5,2.5 0 0 1 543,695.1648 L543,795.0837 A2.5,2.5 0 0 1 540.5,797.5837 L367.5,797.5837 A2.5,2.5 0 0 1 365,795.0837 L365,670.5437 A2.5,2.5 0 0 1 367.5,668.0437 " fill="none" style="stroke:#000000;stroke-width:1.5;"/><line style="stroke:#000000;stroke-width:1.5;" x1="365" x2="450" y1="692.6648" y2="692.6648"/><text fill="#000000" font-family="sans-serif" font-size="14" font-weight="bold" lengthAdjust="spacing" textLength="72" x="369" y="685.1511">repository</text></g><!--cluster service--><g id="cluster_service"><path d="M214.5,413.0137 L268.5,413.0137 A3.75,3.75 0 0 1 271,415.5137 L278,437.6348 L693.5,437.6348 A2.5,2.5 0 0 1 696,440.1348 L696,614.5437 A2.5,2.5 0 0 1 693.5,617.0437 L214.5,617.0437 A2.5,2.5 0 0 1 212,614.5437 L212,415.5137 A2.5,2.5 0 0 1 214.5,413.0137 " fill="none" style="stroke:#000000;stroke-width:1.5;"/><line style="stroke:#000000;stroke-width:1.5;" x1="212" x2="278" y1="437.6348" y2="437.6348"/><text fill="#000000" font-family="sans-serif" font-size="14" font-weight="bold" lengthAdjust="spacing" textLength="53" x="216" y="430.1211">service</text></g><!--class Service--><g id="elem_Service"><rect codeLine="3" fill="#F1F1F1" height="48" id="Service" rx="2.5" ry="2.5" style="stroke:#181818;stroke-width:0.5;" width="78" x="141" y="133.0137"/><ellipse cx="156" cy="149.0137" fill="#B4A7E5" rx="11" ry="11" style="stroke:#181818;stroke-width:1.0;"/><path d="M156.9531,145.6543 L156.9531,152.3105 L158.6719,152.3105 Q159.2813,152.3105 159.5469,152.5449 Q159.8125,152.7793 159.8125,153.1699 Q159.8125,153.5449 159.5469,153.7793 Q159.2813,154.0137 158.6719,154.0137 L153.5313,154.0137 Q152.9219,154.0137 152.6563,153.7793 Q152.3906,153.5449 152.3906,153.1543 Q152.3906,152.7793 152.6563,152.5449 Q152.9219,152.3105 153.5313,152.3105 L155.25,152.3105 L155.25,145.6543 L153.5313,145.6543 Q152.9219,145.6543 152.6563,145.4199 Q152.3906,145.1855 152.3906,144.7949 Q152.3906,144.4199 152.6563,144.1855 Q152.9219,143.9512 153.5313,143.9512 L158.6719,143.9512 Q159.2813,143.9512 159.5469,144.1855 Q159.8125,144.4199 159.8125,144.7949 Q159.8125,145.1855 159.5469,145.4199 Q159.2813,145.6543 158.6719,145.6543 L156.9531,145.6543 Z " fill="#000000"/><text fill="#000000" font-family="sans-serif" font-size="14" font-style="italic" lengthAdjust="spacing" textLength="46" x="170" y="154.8105">Service</text><line style="stroke:#181818;stroke-width:0.5;" x1="142" x2="218" y1="165.0137" y2="165.0137"/><line style="stroke:#181818;stroke-width:0.5;" x1="142" x2="218" y1="173.0137" y2="173.0137"/></g><!--class Collection--><g id="elem_Collection"><rect codeLine="7" fill="#F1F1F1" height="48" id="Collection" rx="2.5" ry="2.5" style="stroke:#181818;stroke-width:0.5;" width="106" x="466" y="133.0137"/><ellipse cx="481" cy="149.0137" fill="#B4A7E5" rx="11" ry="11" style="stroke:#181818;stroke-width:1.0;"/><path d="M481.9531,145.6543 L481.9531,152.3105 L483.6719,152.3105 Q484.2813,152.3105 484.5469,152.5449 Q484.8125,152.7793 484.8125,153.1699 Q484.8125,153.5449 484.5469,153.7793 Q484.2813,154.0137 483.6719,154.0137 L478.5313,154.0137 Q477.9219,154.0137 477.6563,153.7793 Q477.3906,153.5449 477.3906,153.1543 Q477.3906,152.7793 477.6563,152.5449 Q477.9219,152.3105 478.5313,152.3105 L480.25,152.3105 L480.25,145.6543 L478.5313,145.6543 Q477.9219,145.6543 477.6563,145.4199 Q477.3906,145.1855 477.3906,144.7949 Q477.3906,144.4199 477.6563,144.1855 Q477.9219,143.9512 478.5313,143.9512 L483.6719,143.9512 Q484.2813,143.9512 484.5469,144.1855 Q484.8125,144.4199 484.8125,144.7949 Q484.8125,145.1855 484.5469,145.4199 Q484.2813,145.6543 483.6719,145.6543 L481.9531,145.6543 Z " fill="#000000"/><text fill="#000000" font-family="sans-serif" font-size="14" font-style="italic" lengthAdjust="spacing" textLength="62" x="495" y="154.8105">Collection</text><rect fill="#FFFFFF" height="17.9609" style="stroke:#181818;stroke-width:1.0;stroke-dasharray:2.0,2.0;" width="10" x="565" y="130.0137"/><text fill="#000000" font-family="sans-serif" font-size="12" font-style="italic" lengthAdjust="spacing" textLength="8" x="566" y="143.9629">E</text><line style="stroke:#181818;stroke-width:0.5;" x1="467" x2="571" y1="165.0137" y2="165.0137"/><line style="stroke:#181818;stroke-width:0.5;" x1="467" x2="571" y1="173.0137" y2="173.0137"/></g><!--class Map--><g id="elem_Map"><rect codeLine="8" fill="#F1F1F1" height="48" id="Map" rx="2.5" ry="2.5" style="stroke:#181818;stroke-width:0.5;" width="83" x="347.5" y="133.0137"/><ellipse cx="362.5" cy="149.0137" fill="#B4A7E5" rx="11" ry="11" style="stroke:#181818;stroke-width:1.0;"/><path d="M363.4531,145.6543 L363.4531,152.3105 L365.1719,152.3105 Q365.7813,152.3105 366.0469,152.5449 Q366.3125,152.7793 366.3125,153.1699 Q366.3125,153.5449 366.0469,153.7793 Q365.7813,154.0137 365.1719,154.0137 L360.0313,154.0137 Q359.4219,154.0137 359.1563,153.7793 Q358.8906,153.5449 358.8906,153.1543 Q358.8906,152.7793 359.1563,152.5449 Q359.4219,152.3105 360.0313,152.3105 L361.75,152.3105 L361.75,145.6543 L360.0313,145.6543 Q359.4219,145.6543 359.1563,145.4199 Q358.8906,145.1855 358.8906,144.7949 Q358.8906,144.4199 359.1563,144.1855 Q359.4219,143.9512 360.0313,143.9512 L365.1719,143.9512 Q365.7813,143.9512 366.0469,144.1855 Q366.3125,144.4199 366.3125,144.7949 Q366.3125,145.1855 366.0469,145.4199 Q365.7813,145.6543 365.1719,145.6543 L363.4531,145.6543 Z " fill="#000000"/><text fill="#000000" font-family="sans-serif" font-size="14" font-style="italic" lengthAdjust="spacing" textLength="28" x="376.5" y="154.8105">Map</text><rect fill="#FFFFFF" height="17.9609" style="stroke:#181818;stroke-width:1.0;stroke-dasharray:2.0,2.0;" width="21" x="412.5" y="130.0137"/><text fill="#000000" font-family="sans-serif" font-size="12" font-style="italic" lengthAdjust="spacing" textLength="19" x="413.5" y="143.9629">K,V</text><line style="stroke:#181818;stroke-width:0.5;" x1="348.5" x2="429.5" y1="165.0137" y2="165.0137"/><line style="stroke:#181818;stroke-width:0.5;" x1="348.5" x2="429.5" y1="173.0137" y2="173.0137"/></g><!--class Optional--><g id="elem_Optional"><rect codeLine="9" fill="#F1F1F1" height="48" id="Optional" rx="2.5" ry="2.5" style="stroke:#181818;stroke-width:0.5;" width="96" x="704" y="133.0137"/><ellipse cx="719" cy="149.0137" fill="#ADD1B2" rx="11" ry="11" style="stroke:#181818;stroke-width:1.0;"/><path d="M721.7656,144.8887 Q721.9219,144.6699 722.1094,144.5605 Q722.2969,144.4512 722.5156,144.4512 Q722.8906,144.4512 723.125,144.7168 Q723.3594,144.9668 723.3594,145.5762 L723.3594,147.0293 Q723.3594,147.6387 723.125,147.9043 Q722.8906,148.1699 722.5156,148.1699 Q722.1719,148.1699 721.9688,147.9668 Q721.7656,147.7793 721.6563,147.2637 Q721.6094,146.9043 721.4219,146.7168 Q721.0938,146.3418 720.4844,146.123 Q719.875,145.9043 719.25,145.9043 Q718.4844,145.9043 717.8438,146.2324 Q717.2188,146.5605 716.7188,147.3105 Q716.2344,148.0605 716.2344,149.0918 L716.2344,150.1855 Q716.2344,151.4199 717.125,152.248 Q718.0156,153.0605 719.6094,153.0605 Q720.5469,153.0605 721.2031,152.8105 Q721.5938,152.6543 722.0156,152.2168 Q722.2813,151.9512 722.4219,151.873 Q722.5781,151.7949 722.7813,151.7949 Q723.1094,151.7949 723.3594,152.0605 Q723.625,152.3105 723.625,152.6543 Q723.625,152.998 723.2813,153.4043 Q722.7813,153.9824 721.9844,154.3105 Q720.9063,154.7637 719.6094,154.7637 Q718.0938,154.7637 716.8906,154.1387 Q715.9063,153.6387 715.2188,152.5762 Q714.5313,151.498 714.5313,150.2168 L714.5313,149.0605 Q714.5313,147.7324 715.1406,146.5918 Q715.7656,145.4355 716.8594,144.8262 Q717.9531,144.2012 719.1875,144.2012 Q719.9219,144.2012 720.5625,144.373 Q721.2188,144.5293 721.7656,144.8887 Z " fill="#000000"/><text fill="#000000" font-family="sans-serif" font-size="14" lengthAdjust="spacing" textLength="53" x="733" y="154.8105">Optional</text><rect fill="#FFFFFF" height="17.9609" style="stroke:#181818;stroke-width:1.0;stroke-dasharray:2.0,2.0;" width="9" x="794" y="130.0137"/><text fill="#000000" font-family="sans-serif" font-size="12" font-style="italic" lengthAdjust="spacing" textLength="7" x="795" y="143.9629">T</text><line style="stroke:#181818;stroke-width:0.5;" x1="705" x2="799" y1="165.0137" y2="165.0137"/><line style="stroke:#181818;stroke-width:0.5;" x1="705" x2="799" y1="173.0137" y2="173.0137"/></g><!--class UUID--><g id="elem_UUID"><rect codeLine="10" fill="#F1F1F1" height="48" id="UUID" rx="2.5" ry="2.5" style="stroke:#181818;stroke-width:0.5;" width="63" x="606.5" y="133.0137"/><ellipse cx="621.5" cy="149.0137" fill="#ADD1B2" rx="11" ry="11" style="stroke:#181818;stroke-width:1.0;"/><path d="M624.2656,144.8887 Q624.4219,144.6699 624.6094,144.5605 Q624.7969,144.4512 625.0156,144.4512 Q625.3906,144.4512 625.625,144.7168 Q625.8594,144.9668 625.8594,145.5762 L625.8594,147.0293 Q625.8594,147.6387 625.625,147.9043 Q625.3906,148.1699 625.0156,148.1699 Q624.6719,148.1699 624.4688,147.9668 Q624.2656,147.7793 624.1563,147.2637 Q624.1094,146.9043 623.9219,146.7168 Q623.5938,146.3418 622.9844,146.123 Q622.375,145.9043 621.75,145.9043 Q620.9844,145.9043 620.3438,146.2324 Q619.7188,146.5605 619.2188,147.3105 Q618.7344,148.0605 618.7344,149.0918 L618.7344,150.1855 Q618.7344,151.4199 619.625,152.248 Q620.5156,153.0605 622.1094,153.0605 Q623.0469,153.0605 623.7031,152.8105 Q624.0938,152.6543 624.5156,152.2168 Q624.7813,151.9512 624.9219,151.873 Q625.0781,151.7949 625.2813,151.7949 Q625.6094,151.7949 625.8594,152.0605 Q626.125,152.3105 626.125,152.6543 Q626.125,152.998 625.7813,153.4043 Q625.2813,153.9824 624.4844,154.3105 Q623.4063,154.7637 622.1094,154.7637 Q620.5938,154.7637 619.3906,154.1387 Q618.4063,153.6387 617.7188,152.5762 Q617.0313,151.498 617.0313,150.2168 L617.0313,149.0605 Q617.0313,147.7324 617.6406,146.5918 Q618.2656,145.4355 619.3594,144.8262 Q620.4531,144.2012 621.6875,144.2012 Q622.4219,144.2012 623.0625,144.373 Q623.7188,144.5293 624.2656,144.8887 Z " fill="#000000"/><text fill="#000000" font-family="sans-serif" font-size="14" lengthAdjust="spacing" textLength="31" x="635.5" y="154.8105">UUID</text><line style="stroke:#181818;stroke-width:0.5;" x1="607.5" x2="668.5" y1="165.0137" y2="165.0137"/><line style="stroke:#181818;stroke-width:0.5;" x1="607.5" x2="668.5" y1="173.0137" y2="173.0137"/></g><!--class Faculty--><g id="elem_Faculty"><rect codeLine="14" fill="#F1F1F1" height="60.582" id="Faculty" rx="2.5" ry="2.5" style="stroke:#181818;stroke-width:0.5;" width="78" x="94" y="495.2337"/><ellipse cx="109" cy="517.5247" fill="#ADD1B2" rx="11" ry="11" style="stroke:#181818;stroke-width:1.0;"/><path d="M111.7656,513.3997 Q111.9219,513.1809 112.1094,513.0716 Q112.2969,512.9622 112.5156,512.9622 Q112.8906,512.9622 113.125,513.2278 Q113.3594,513.4778 113.3594,514.0872 L113.3594,515.5403 Q113.3594,516.1497 113.125,516.4153 Q112.8906,516.6809 112.5156,516.6809 Q112.1719,516.6809 111.9688,516.4778 Q111.7656,516.2903 111.6563,515.7747 Q111.6094,515.4153 111.4219,515.2278 Q111.0938,514.8528 110.4844,514.6341 Q109.875,514.4153 109.25,514.4153 Q108.4844,514.4153 107.8438,514.7434 Q107.2188,515.0716 106.7188,515.8216 Q106.2344,516.5716 106.2344,517.6028 L106.2344,518.6966 Q106.2344,519.9309 107.125,520.7591 Q108.0156,521.5716 109.6094,521.5716 Q110.5469,521.5716 111.2031,521.3216 Q111.5938,521.1653 112.0156,520.7278 Q112.2813,520.4622 112.4219,520.3841 Q112.5781,520.3059 112.7813,520.3059 Q113.1094,520.3059 113.3594,520.5716 Q113.625,520.8216 113.625,521.1653 Q113.625,521.5091 113.2813,521.9153 Q112.7813,522.4934 111.9844,522.8216 Q110.9063,523.2747 109.6094,523.2747 Q108.0938,523.2747 106.8906,522.6497 Q105.9063,522.1497 105.2188,521.0872 Q104.5313,520.0091 104.5313,518.7278 L104.5313,517.5716 Q104.5313,516.2434 105.1406,515.1028 Q105.7656,513.9466 106.8594,513.3372 Q107.9531,512.7122 109.1875,512.7122 Q109.9219,512.7122 110.5625,512.8841 Q111.2188,513.0403 111.7656,513.3997 Z " fill="#000000"/><text fill="#000000" font-family="sans-serif" font-size="12" font-style="italic" lengthAdjust="spacing" textLength="43" x="124.5" y="513.1829">&#171;entity&#187;</text><text fill="#000000" font-family="sans-serif" font-size="14" lengthAdjust="spacing" textLength="46" x="123" y="531.302">Faculty</text><line style="stroke:#181818;stroke-width:0.5;" x1="95" x2="171" y1="539.8157" y2="539.8157"/><line style="stroke:#181818;stroke-width:0.5;" x1="95" x2="171" y1="547.8157" y2="547.8157"/></g><!--class FacultyRepository--><g id="elem_FacultyRepository"><rect codeLine="18" fill="#F1F1F1" height="76.543" id="FacultyRepository" rx="2.5" ry="2.5" style="stroke:#181818;stroke-width:0.5;" width="146" x="381" y="705.0437"/><ellipse cx="396" cy="735.3152" fill="#ADD1B2" rx="11" ry="11" style="stroke:#181818;stroke-width:1.0;"/><path d="M398.7656,731.1902 Q398.9219,730.9714 399.1094,730.862 Q399.2969,730.7527 399.5156,730.7527 Q399.8906,730.7527 400.125,731.0183 Q400.3594,731.2683 400.3594,731.8777 L400.3594,733.3308 Q400.3594,733.9402 400.125,734.2058 Q399.8906,734.4714 399.5156,734.4714 Q399.1719,734.4714 398.9688,734.2683 Q398.7656,734.0808 398.6563,733.5652 Q398.6094,733.2058 398.4219,733.0183 Q398.0938,732.6433 397.4844,732.4245 Q396.875,732.2058 396.25,732.2058 Q395.4844,732.2058 394.8438,732.5339 Q394.2188,732.862 393.7188,733.612 Q393.2344,734.362 393.2344,735.3933 L393.2344,736.487 Q393.2344,737.7214 394.125,738.5495 Q395.0156,739.362 396.6094,739.362 Q397.5469,739.362 398.2031,739.112 Q398.5938,738.9558 399.0156,738.5183 Q399.2813,738.2527 399.4219,738.1745 Q399.5781,738.0964 399.7813,738.0964 Q400.1094,738.0964 400.3594,738.362 Q400.625,738.612 400.625,738.9558 Q400.625,739.2995 400.2813,739.7058 Q399.7813,740.2839 398.9844,740.612 Q397.9063,741.0652 396.6094,741.0652 Q395.0938,741.0652 393.8906,740.4402 Q392.9063,739.9402 392.2188,738.8777 Q391.5313,737.7995 391.5313,736.5183 L391.5313,735.362 Q391.5313,734.0339 392.1406,732.8933 Q392.7656,731.737 393.8594,731.1277 Q394.9531,730.5027 396.1875,730.5027 Q396.9219,730.5027 397.5625,730.6745 Q398.2188,730.8308 398.7656,731.1902 Z " fill="#000000"/><text fill="#000000" font-family="sans-serif" font-size="12" font-style="italic" lengthAdjust="spacing" textLength="51" x="441.5" y="722.9929">&#171;control&#187;</text><text fill="#000000" font-family="sans-serif" font-size="12" font-style="italic" lengthAdjust="spacing" textLength="85" x="424.5" y="738.9538">&#171;@Repository&#187;</text><text fill="#000000" font-family="sans-serif" font-size="14" lengthAdjust="spacing" textLength="114" x="410" y="757.073">FacultyRepository</text><line style="stroke:#181818;stroke-width:0.5;" x1="382" x2="526" y1="765.5866" y2="765.5866"/><line style="stroke:#181818;stroke-width:0.5;" x1="382" x2="526" y1="773.5866" y2="773.5866"/></g><!--class FacultyReadService--><g id="elem_FacultyReadService"><rect codeLine="22" fill="#F1F1F1" height="151.0273" id="FacultyReadService" rx="2.5" ry="2.5" style="stroke:#181818;stroke-width:0.5;" width="451" x="228.5" y="450.0137"/><ellipse cx="386.25" cy="480.2852" fill="#ADD1B2" rx="11" ry="11" style="stroke:#181818;stroke-width:1.0;"/><path d="M389.0156,476.1602 Q389.1719,475.9414 389.3594,475.832 Q389.5469,475.7227 389.7656,475.7227 Q390.1406,475.7227 390.375,475.9883 Q390.6094,476.2383 390.6094,476.8477 L390.6094,478.3008 Q390.6094,478.9102 390.375,479.1758 Q390.1406,479.4414 389.7656,479.4414 Q389.4219,479.4414 389.2188,479.2383 Q389.0156,479.0508 388.9063,478.5352 Q388.8594,478.1758 388.6719,477.9883 Q388.3438,477.6133 387.7344,477.3945 Q387.125,477.1758 386.5,477.1758 Q385.7344,477.1758 385.0938,477.5039 Q384.4688,477.832 383.9688,478.582 Q383.4844,479.332 383.4844,480.3633 L383.4844,481.457 Q383.4844,482.6914 384.375,483.5195 Q385.2656,484.332 386.8594,484.332 Q387.7969,484.332 388.4531,484.082 Q388.8438,483.9258 389.2656,483.4883 Q389.5313,483.2227 389.6719,483.1445 Q389.8281,483.0664 390.0313,483.0664 Q390.3594,483.0664 390.6094,483.332 Q390.875,483.582 390.875,483.9258 Q390.875,484.2695 390.5313,484.6758 Q390.0313,485.2539 389.2344,485.582 Q388.1563,486.0352 386.8594,486.0352 Q385.3438,486.0352 384.1406,485.4102 Q383.1563,484.9102 382.4688,483.8477 Q381.7813,482.7695 381.7813,481.4883 L381.7813,480.332 Q381.7813,479.0039 382.3906,477.8633 Q383.0156,476.707 384.1094,476.0977 Q385.2031,475.4727 386.4375,475.4727 Q387.1719,475.4727 387.8125,475.6445 Q388.4688,475.8008 389.0156,476.1602 Z " fill="#000000"/><text fill="#000000" font-family="sans-serif" font-size="12" font-style="italic" lengthAdjust="spacing" textLength="51" x="444.75" y="467.9629">&#171;control&#187;</text><text fill="#000000" font-family="sans-serif" font-size="12" font-style="italic" lengthAdjust="spacing" textLength="67" x="436.75" y="483.9238">&#171;@Service&#187;</text><text fill="#000000" font-family="sans-serif" font-size="14" lengthAdjust="spacing" textLength="127" x="406.75" y="502.043">FacultyReadService</text><line style="stroke:#181818;stroke-width:0.5;" x1="229.5" x2="678.5" y1="510.5566" y2="510.5566"/><rect fill="none" height="6" style="stroke:#C82930;stroke-width:1.0;" width="6" x="236.5" y="522.3672"/><text fill="#000000" font-family="sans-serif" font-size="14" lengthAdjust="spacing" textLength="185" x="248.5" y="529.6641">repository: FacultyRepository</text><line style="stroke:#181818;stroke-width:0.5;" x1="229.5" x2="678.5" y1="537.1777" y2="537.1777"/><ellipse cx="239.5" cy="551.9883" fill="#84BE84" rx="3" ry="3" style="stroke:#038048;stroke-width:1.0;"/><text fill="#000000" font-family="sans-serif" font-size="14" lengthAdjust="spacing" textLength="322" x="248.5" y="556.2852">FacultyReadService(repository: FacultyRepository)</text><ellipse cx="239.5" cy="570.6094" fill="#84BE84" rx="3" ry="3" style="stroke:#038048;stroke-width:1.0;"/><text fill="#000000" font-family="sans-serif" font-size="14" lengthAdjust="spacing" textLength="164" x="248.5" y="574.9063">findById(id: UUID): Faculty</text><ellipse cx="239.5" cy="589.2305" fill="#84BE84" rx="3" ry="3" style="stroke:#038048;stroke-width:1.0;"/><text fill="#000000" font-family="sans-serif" font-size="14" lengthAdjust="spacing" textLength="425" x="248.5" y="593.5273">find(searchCriteria: Map&lt;String, List&lt;String&gt;&gt;): Collection&lt;Faculty&gt;</text></g><!--link FacultyReadService to FacultyRepository--><g id="link_FacultyReadService_FacultyRepository"><path codeLine="30" d="M454,613.3937 C454,648.3237 454,670.3737 454,698.8237 " fill="none" id="FacultyReadService-FacultyRepository" style="stroke:#181818;stroke-width:1.0;"/><polygon fill="none" points="454,601.3937,450,607.3937,454,613.3937,458,607.3937,454,601.3937" style="stroke:#181818;stroke-width:1.0;"/><polygon fill="#181818" points="454,704.8237,458,695.8237,454,699.8237,450,695.8237,454,704.8237" style="stroke:#181818;stroke-width:1.0;"/><text fill="#000000" font-family="sans-serif" font-size="13" lengthAdjust="spacing" textLength="25" x="455" y="648.072">repo</text></g><!--link FacultyReadService to Faculty--><g id="link_FacultyReadService_Faculty"><path codeLine="31" d="M228.03,525.5237 C209.52,525.5237 197.01,525.5237 178.5,525.5237 " fill="none" id="FacultyReadService-to-Faculty" style="stroke:#181818;stroke-width:1.0;stroke-dasharray:7.0,7.0;"/><polygon fill="#181818" points="172.5,525.5237,181.5,529.5237,177.5,525.5237,181.5,521.5237,172.5,525.5237" style="stroke:#181818;stroke-width:1.0;"/></g><!--reverse link Service to FacultyReadService--><g id="link_Service_FacultyReadService"><path codeLine="32" d="M201.152,186.2996 C240.832,239.3896 335.28,365.7237 397.99,449.6137 " fill="none" id="Service-backto-FacultyReadService" style="stroke:#181818;stroke-width:1.0;stroke-dasharray:7.0,7.0;"/><polygon fill="#181818" points="197.56,181.4937,199.7441,191.0973,200.5534,185.4986,206.152,186.3079,197.56,181.4937" style="stroke:#181818;stroke-width:1.0;"/></g><!--reverse link UUID to FacultyReadService--><g id="link_UUID_FacultyReadService"><path codeLine="33" d="M623.5182,186.856 C596.8682,239.946 533.72,365.7237 491.61,449.6137 " fill="none" id="UUID-backto-FacultyReadService" style="stroke:#181818;stroke-width:1.0;stroke-dasharray:7.0,7.0;"/><polygon fill="#181818" points="626.21,181.4937,618.5975,187.7426,623.9669,185.9623,625.7472,191.3317,626.21,181.4937" style="stroke:#181818;stroke-width:1.0;"/></g><!--reverse link Collection to FacultyReadService--><g id="link_Collection_FacultyReadService"><path codeLine="34" d="M513.7918,187.4014 C504.3718,240.4914 482.16,365.7237 467.29,449.6137 " fill="none" id="Collection-backto-FacultyReadService" style="stroke:#181818;stroke-width:1.0;stroke-dasharray:7.0,7.0;"/><polygon fill="#181818" points="514.84,181.4937,509.3292,189.6564,513.9665,186.4168,517.2061,191.0541,514.84,181.4937" style="stroke:#181818;stroke-width:1.0;"/></g><!--reverse link Map to FacultyReadService--><g id="link_Map_FacultyReadService"><path codeLine="35" d="M394.2082,187.4014 C403.6282,240.4914 425.84,365.7237 440.71,449.6137 " fill="none" id="Map-backto-FacultyReadService" style="stroke:#181818;stroke-width:1.0;stroke-dasharray:7.0,7.0;"/><polygon fill="#181818" points="393.16,181.4937,390.7939,191.0541,394.0335,186.4168,398.6708,189.6564,393.16,181.4937" style="stroke:#181818;stroke-width:1.0;"/></g><!--SRC=[XLBTJi8m5BxVK_GI8lG1bgOneYP4ZOc8zoVTOLJAshG5inZUtMwTR842lLhFztEwxnm3OWCb4crBweoLLRcoiCKVRJVKURIeVMsG_6Oa75c5oWe4aWNQlHIO7RBCT0xVi0UwyrATaMTQAHHUweezyHFi3GnxcNp5ib3W77at3HKK-nnMbylvux2Tq5iAOeiqsEoKhobMNlgwQnurpn4YZ4MGywiE5ersqckRTFdeKSQ4hhpLYlFmVTyZDnguc5hQ7Oekr5FxhXmkKTUSAUaVcv-_yCYxI_YFhah70-rALiL3FIz6iiZR0OoFWXFMo25OiPvP6GOh8M_dkl3DFat8gtI-kt0UB0RxqBd5GH-Qy19vwEcK9wQGjnca1DJASktfKPJax4mW_E_nHKAxTXVH_aykSq8IsHy0]--></g></svg>