<?xml version="1.0" encoding="us-ascii" standalone="no"?><svg xmlns="http://www.w3.org/2000/svg" xmlns:xlink="http://www.w3.org/1999/xlink" contentStyleType="text/css" height="1408px" preserveAspectRatio="none" style="width:1923px;height:1408px;background:#FFFFFF;" version="1.1" viewBox="0 0 1923 1408" width="1923px" zoomAndPan="magnify"><defs/><g><!--cluster org--><g id="cluster_org"><path d="M8.5,6.0137 L33.5,6.0137 A3.75,3.75 0 0 1 36,8.5137 L43,30.6348 L1426.5,30.6348 A2.5,2.5 0 0 1 1429,33.1348 L1429,599.5137 A2.5,2.5 0 0 1 1426.5,602.0137 L8.5,602.0137 A2.5,2.5 0 0 1 6,599.5137 L6,8.5137 A2.5,2.5 0 0 1 8.5,6.0137 " fill="none" style="stroke:#000000;stroke-width:1.5;"/><line style="stroke:#000000;stroke-width:1.5;" x1="6" x2="43" y1="30.6348" y2="30.6348"/><text fill="#000000" font-family="sans-serif" font-size="14" font-weight="bold" lengthAdjust="spacing" textLength="24" x="10" y="23.1211">org</text></g><!--cluster springframework--><g id="cluster_springframework"><path d="M32.5,51.0137 L152.5,51.0137 A3.75,3.75 0 0 1 155,53.5137 L162,75.6348 L1402.5,75.6348 A2.5,2.5 0 0 1 1405,78.1348 L1405,575.5137 A2.5,2.5 0 0 1 1402.5,578.0137 L32.5,578.0137 A2.5,2.5 0 0 1 30,575.5137 L30,53.5137 A2.5,2.5 0 0 1 32.5,51.0137 " fill="none" style="stroke:#000000;stroke-width:1.5;"/><line style="stroke:#000000;stroke-width:1.5;" x1="30" x2="162" y1="75.6348" y2="75.6348"/><text fill="#000000" font-family="sans-serif" font-size="14" font-weight="bold" lengthAdjust="spacing" textLength="119" x="34" y="68.1211">springframework</text></g><!--cluster stereotype--><g id="cluster_stereotype"><path d="M56.5,186.0137 L133.5,186.0137 A3.75,3.75 0 0 1 136,188.5137 L143,210.6348 L191.5,210.6348 A2.5,2.5 0 0 1 194,213.1348 L194,268.5137 A2.5,2.5 0 0 1 191.5,271.0137 L56.5,271.0137 A2.5,2.5 0 0 1 54,268.5137 L54,188.5137 A2.5,2.5 0 0 1 56.5,186.0137 " fill="none" style="stroke:#000000;stroke-width:1.5;"/><line style="stroke:#000000;stroke-width:1.5;" x1="54" x2="143" y1="210.6348" y2="210.6348"/><text fill="#000000" font-family="sans-serif" font-size="14" font-weight="bold" lengthAdjust="spacing" textLength="76" x="58" y="203.1211">stereotype</text></g><!--cluster web--><g id="cluster_web"><path d="M220.5,96.0137 L250.5,96.0137 A3.75,3.75 0 0 1 253,98.5137 L260,120.6348 L1018.5,120.6348 A2.5,2.5 0 0 1 1021,123.1348 L1021,316.5137 A2.5,2.5 0 0 1 1018.5,319.0137 L220.5,319.0137 A2.5,2.5 0 0 1 218,316.5137 L218,98.5137 A2.5,2.5 0 0 1 220.5,96.0137 " fill="none" style="stroke:#000000;stroke-width:1.5;"/><line style="stroke:#000000;stroke-width:1.5;" x1="218" x2="260" y1="120.6348" y2="120.6348"/><text fill="#000000" font-family="sans-serif" font-size="14" font-weight="bold" lengthAdjust="spacing" textLength="29" x="222" y="113.1211">web</text></g><!--cluster bind--><g id="cluster_bind"><path d="M244.5,141.0137 L276.5,141.0137 A3.75,3.75 0 0 1 279,143.5137 L286,165.6348 L994.5,165.6348 A2.5,2.5 0 0 1 997,168.1348 L997,292.5137 A2.5,2.5 0 0 1 994.5,295.0137 L244.5,295.0137 A2.5,2.5 0 0 1 242,292.5137 L242,143.5137 A2.5,2.5 0 0 1 244.5,141.0137 " fill="none" style="stroke:#000000;stroke-width:1.5;"/><line style="stroke:#000000;stroke-width:1.5;" x1="242" x2="286" y1="165.6348" y2="165.6348"/><text fill="#000000" font-family="sans-serif" font-size="14" font-weight="bold" lengthAdjust="spacing" textLength="31" x="246" y="158.1211">bind</text></g><!--cluster annotation--><g id="cluster_annotation"><path d="M268.5,186.0137 L344.5,186.0137 A3.75,3.75 0 0 1 347,188.5137 L354,210.6348 L970.5,210.6348 A2.5,2.5 0 0 1 973,213.1348 L973,268.5137 A2.5,2.5 0 0 1 970.5,271.0137 L268.5,271.0137 A2.5,2.5 0 0 1 266,268.5137 L266,188.5137 A2.5,2.5 0 0 1 268.5,186.0137 " fill="none" style="stroke:#000000;stroke-width:1.5;"/><line style="stroke:#000000;stroke-width:1.5;" x1="266" x2="354" y1="210.6348" y2="210.6348"/><text fill="#000000" font-family="sans-serif" font-size="14" font-weight="bold" lengthAdjust="spacing" textLength="75" x="270" y="203.1211">annotation</text></g><!--cluster http--><g id="cluster_http"><path d="M1047.5,186.0137 L1076.5,186.0137 A3.75,3.75 0 0 1 1079,188.5137 L1086,210.6348 L1378.5,210.6348 A2.5,2.5 0 0 1 1381,213.1348 L1381,551.5137 A2.5,2.5 0 0 1 1378.5,554.0137 L1047.5,554.0137 A2.5,2.5 0 0 1 1045,551.5137 L1045,188.5137 A2.5,2.5 0 0 1 1047.5,186.0137 " fill="none" style="stroke:#000000;stroke-width:1.5;"/><line style="stroke:#000000;stroke-width:1.5;" x1="1045" x2="1086" y1="210.6348" y2="210.6348"/><text fill="#000000" font-family="sans-serif" font-size="14" font-weight="bold" lengthAdjust="spacing" textLength="28" x="1049" y="203.1211">http</text></g><!--cluster converter--><g id="cluster_converter"><path d="M1071.5,445.0137 L1142.5,445.0137 A3.75,3.75 0 0 1 1145,447.5137 L1152,469.6348 L1354.5,469.6348 A2.5,2.5 0 0 1 1357,472.1348 L1357,527.5137 A2.5,2.5 0 0 1 1354.5,530.0137 L1071.5,530.0137 A2.5,2.5 0 0 1 1069,527.5137 L1069,447.5137 A2.5,2.5 0 0 1 1071.5,445.0137 " fill="none" style="stroke:#000000;stroke-width:1.5;"/><line style="stroke:#000000;stroke-width:1.5;" x1="1069" x2="1152" y1="469.6348" y2="469.6348"/><text fill="#000000" font-family="sans-serif" font-size="14" font-weight="bold" lengthAdjust="spacing" textLength="70" x="1073" y="462.1211">converter</text></g><!--cluster jakarta--><g id="cluster_jakarta"><path d="M1636.5,734.1937 L1684.5,734.1937 A3.75,3.75 0 0 1 1687,736.6937 L1694,758.8148 L1913.5,758.8148 A2.5,2.5 0 0 1 1916,761.3148 L1916,954.6937 A2.5,2.5 0 0 1 1913.5,957.1937 L1636.5,957.1937 A2.5,2.5 0 0 1 1634,954.6937 L1634,736.6937 A2.5,2.5 0 0 1 1636.5,734.1937 " fill="none" style="stroke:#000000;stroke-width:1.5;"/><line style="stroke:#000000;stroke-width:1.5;" x1="1634" x2="1694" y1="758.8148" y2="758.8148"/><text fill="#000000" font-family="sans-serif" font-size="14" font-weight="bold" lengthAdjust="spacing" textLength="47" x="1638" y="751.3011">jakarta</text></g><!--cluster servlet--><g id="cluster_servlet"><path d="M1660.5,779.1937 L1711.5,779.1937 A3.75,3.75 0 0 1 1714,781.6937 L1721,803.8148 L1889.5,803.8148 A2.5,2.5 0 0 1 1892,806.3148 L1892,930.6937 A2.5,2.5 0 0 1 1889.5,933.1937 L1660.5,933.1937 A2.5,2.5 0 0 1 1658,930.6937 L1658,781.6937 A2.5,2.5 0 0 1 1660.5,779.1937 " fill="none" style="stroke:#000000;stroke-width:1.5;"/><line style="stroke:#000000;stroke-width:1.5;" x1="1658" x2="1721" y1="803.8148" y2="803.8148"/><text fill="#000000" font-family="sans-serif" font-size="14" font-weight="bold" lengthAdjust="spacing" textLength="50" x="1662" y="796.3011">servlet</text></g><!--cluster http--><g id="cluster_http"><path d="M1684.5,824.1937 L1713.5,824.1937 A3.75,3.75 0 0 1 1716,826.6937 L1723,848.8148 L1865.5,848.8148 A2.5,2.5 0 0 1 1868,851.3148 L1868,906.6937 A2.5,2.5 0 0 1 1865.5,909.1937 L1684.5,909.1937 A2.5,2.5 0 0 1 1682,906.6937 L1682,826.6937 A2.5,2.5 0 0 1 1684.5,824.1937 " fill="none" style="stroke:#000000;stroke-width:1.5;"/><line style="stroke:#000000;stroke-width:1.5;" x1="1682" x2="1723" y1="848.8148" y2="848.8148"/><text fill="#000000" font-family="sans-serif" font-size="14" font-weight="bold" lengthAdjust="spacing" textLength="28" x="1686" y="841.3011">http</text></g><!--cluster java--><g id="cluster_java"><path d="M1636.5,994.3737 L1666.5,994.3737 A3.75,3.75 0 0 1 1669,996.8737 L1676,1018.9948 L1815.5,1018.9948 A2.5,2.5 0 0 1 1818,1021.4948 L1818,1316.3737 A2.5,2.5 0 0 1 1815.5,1318.8737 L1636.5,1318.8737 A2.5,2.5 0 0 1 1634,1316.3737 L1634,996.8737 A2.5,2.5 0 0 1 1636.5,994.3737 " fill="none" style="stroke:#000000;stroke-width:1.5;"/><line style="stroke:#000000;stroke-width:1.5;" x1="1634" x2="1676" y1="1018.9948" y2="1018.9948"/><text fill="#000000" font-family="sans-serif" font-size="14" font-weight="bold" lengthAdjust="spacing" textLength="29" x="1638" y="1011.4811">java</text></g><!--cluster util--><g id="cluster_util"><path d="M1660.5,1039.3737 L1683.5,1039.3737 A3.75,3.75 0 0 1 1686,1041.8737 L1693,1063.9948 L1791.5,1063.9948 A2.5,2.5 0 0 1 1794,1066.4948 L1794,1292.3737 A2.5,2.5 0 0 1 1791.5,1294.8737 L1660.5,1294.8737 A2.5,2.5 0 0 1 1658,1292.3737 L1658,1041.8737 A2.5,2.5 0 0 1 1660.5,1039.3737 " fill="none" style="stroke:#000000;stroke-width:1.5;"/><line style="stroke:#000000;stroke-width:1.5;" x1="1658" x2="1693" y1="1063.9948" y2="1063.9948"/><text fill="#000000" font-family="sans-serif" font-size="14" font-weight="bold" lengthAdjust="spacing" textLength="22" x="1662" y="1056.4811">util</text></g><!--cluster com--><g id="cluster_com"><path d="M303.5,635.0137 L333.5,635.0137 A3.75,3.75 0 0 1 336,637.5137 L343,659.6348 L1607.5,659.6348 A2.5,2.5 0 0 1 1610,662.1348 L1610,1378.6437 A2.5,2.5 0 0 1 1607.5,1381.1437 L303.5,1381.1437 A2.5,2.5 0 0 1 301,1378.6437 L301,637.5137 A2.5,2.5 0 0 1 303.5,635.0137 " fill="none" style="stroke:#000000;stroke-width:1.5;"/><line style="stroke:#000000;stroke-width:1.5;" x1="301" x2="343" y1="659.6348" y2="659.6348"/><text fill="#000000" font-family="sans-serif" font-size="14" font-weight="bold" lengthAdjust="spacing" textLength="29" x="305" y="652.1211">com</text></g><!--cluster acme--><g id="cluster_acme"><path d="M327.5,680.0137 L365.5,680.0137 A3.75,3.75 0 0 1 368,682.5137 L375,704.6348 L1583.5,704.6348 A2.5,2.5 0 0 1 1586,707.1348 L1586,1354.6437 A2.5,2.5 0 0 1 1583.5,1357.1437 L327.5,1357.1437 A2.5,2.5 0 0 1 325,1354.6437 L325,682.5137 A2.5,2.5 0 0 1 327.5,680.0137 " fill="none" style="stroke:#000000;stroke-width:1.5;"/><line style="stroke:#000000;stroke-width:1.5;" x1="325" x2="375" y1="704.6348" y2="704.6348"/><text fill="#000000" font-family="sans-serif" font-size="14" font-weight="bold" lengthAdjust="spacing" textLength="37" x="329" y="697.1211">acme</text></g><!--cluster faculty--><g id="cluster_faculty"><path d="M351.5,725.0137 L398.5,725.0137 A3.75,3.75 0 0 1 401,727.5137 L408,749.6348 L1559.5,749.6348 A2.5,2.5 0 0 1 1562,752.1348 L1562,1330.6437 A2.5,2.5 0 0 1 1559.5,1333.1437 L351.5,1333.1437 A2.5,2.5 0 0 1 349,1330.6437 L349,727.5137 A2.5,2.5 0 0 1 351.5,725.0137 " fill="none" style="stroke:#000000;stroke-width:1.5;"/><line style="stroke:#000000;stroke-width:1.5;" x1="349" x2="408" y1="749.6348" y2="749.6348"/><text fill="#000000" font-family="sans-serif" font-size="14" font-weight="bold" lengthAdjust="spacing" textLength="46" x="353" y="742.1211">faculty</text></g><!--cluster service--><g id="cluster_service"><path d="M545.5,1195.6037 L599.5,1195.6037 A3.75,3.75 0 0 1 602,1198.1037 L609,1220.2248 L1318.5,1220.2248 A2.5,2.5 0 0 1 1321,1222.7248 L1321,1306.6437 A2.5,2.5 0 0 1 1318.5,1309.1437 L545.5,1309.1437 A2.5,2.5 0 0 1 543,1306.6437 L543,1198.1037 A2.5,2.5 0 0 1 545.5,1195.6037 " fill="none" style="stroke:#000000;stroke-width:1.5;"/><line style="stroke:#000000;stroke-width:1.5;" x1="543" x2="609" y1="1220.2248" y2="1220.2248"/><text fill="#000000" font-family="sans-serif" font-size="14" font-weight="bold" lengthAdjust="spacing" textLength="53" x="547" y="1212.7111">service</text></g><!--cluster controller--><g id="cluster_rest"><path d="M375.5,770.0137 L404.5,770.0137 A3.75,3.75 0 0 1 407,772.5137 L414,794.6348 L1447.5,794.6348 A2.5,2.5 0 0 1 1450,797.1348 L1450,1160.1037 A2.5,2.5 0 0 1 1447.5,1162.6037 L375.5,1162.6037 A2.5,2.5 0 0 1 373,1160.1037 L373,772.5137 A2.5,2.5 0 0 1 375.5,770.0137 " fill="#DDDDDD" style="stroke:#000000;stroke-width:1.5;"/><line style="stroke:#000000;stroke-width:1.5;" x1="373" x2="414" y1="794.6348" y2="794.6348"/><text fill="#000000" font-family="sans-serif" font-size="14" font-weight="bold" lengthAdjust="spacing" textLength="28" x="377" y="787.1211">rest</text></g><!--cluster patch--><g id="cluster_patch"><path d="M1147.5,1033.0837 L1187.5,1033.0837 A3.75,3.75 0 0 1 1190,1035.5837 L1197,1057.7048 L1304.5,1057.7048 A2.5,2.5 0 0 1 1307,1060.2048 L1307,1128.1737 A2.5,2.5 0 0 1 1304.5,1130.6737 L1147.5,1130.6737 A2.5,2.5 0 0 1 1145,1128.1737 L1145,1035.5837 A2.5,2.5 0 0 1 1147.5,1033.0837 " fill="none" style="stroke:#000000;stroke-width:1.5;"/><line style="stroke:#000000;stroke-width:1.5;" x1="1145" x2="1197" y1="1057.7048" y2="1057.7048"/><text fill="#000000" font-family="sans-serif" font-size="14" font-weight="bold" lengthAdjust="spacing" textLength="39" x="1149" y="1050.1911">patch</text></g><!--class Controller--><g id="elem_Controller"><rect codeLine="4" fill="#F1F1F1" height="32" id="Controller" rx="2.5" ry="2.5" style="stroke:#181818;stroke-width:0.5;" width="108" x="70" y="223.0137"/><ellipse cx="85" cy="239.0137" fill="#B4A7E5" rx="11" ry="11" style="stroke:#181818;stroke-width:1.0;"/><path d="M85.9531,235.6543 L85.9531,242.3105 L87.6719,242.3105 Q88.2813,242.3105 88.5469,242.5449 Q88.8125,242.7793 88.8125,243.1699 Q88.8125,243.5449 88.5469,243.7793 Q88.2813,244.0137 87.6719,244.0137 L82.5313,244.0137 Q81.9219,244.0137 81.6563,243.7793 Q81.3906,243.5449 81.3906,243.1543 Q81.3906,242.7793 81.6563,242.5449 Q81.9219,242.3105 82.5313,242.3105 L84.25,242.3105 L84.25,235.6543 L82.5313,235.6543 Q81.9219,235.6543 81.6563,235.4199 Q81.3906,235.1855 81.3906,234.7949 Q81.3906,234.4199 81.6563,234.1855 Q81.9219,233.9512 82.5313,233.9512 L87.6719,233.9512 Q88.2813,233.9512 88.5469,234.1855 Q88.8125,234.4199 88.8125,234.7949 Q88.8125,235.1855 88.5469,235.4199 Q88.2813,235.6543 87.6719,235.6543 L85.9531,235.6543 Z " fill="#000000"/><text fill="#000000" font-family="sans-serif" font-size="14" font-style="italic" lengthAdjust="spacing" textLength="76" x="99" y="244.8105">@Controller</text></g><!--class RequestMapping--><g id="elem_RequestMapping"><rect codeLine="8" fill="#F1F1F1" height="32" id="RequestMapping" rx="2.5" ry="2.5" style="stroke:#181818;stroke-width:0.5;" width="154" x="803" y="223.0137"/><ellipse cx="818" cy="239.0137" fill="#B4A7E5" rx="11" ry="11" style="stroke:#181818;stroke-width:1.0;"/><path d="M818.9531,235.6543 L818.9531,242.3105 L820.6719,242.3105 Q821.2813,242.3105 821.5469,242.5449 Q821.8125,242.7793 821.8125,243.1699 Q821.8125,243.5449 821.5469,243.7793 Q821.2813,244.0137 820.6719,244.0137 L815.5313,244.0137 Q814.9219,244.0137 814.6563,243.7793 Q814.3906,243.5449 814.3906,243.1543 Q814.3906,242.7793 814.6563,242.5449 Q814.9219,242.3105 815.5313,242.3105 L817.25,242.3105 L817.25,235.6543 L815.5313,235.6543 Q814.9219,235.6543 814.6563,235.4199 Q814.3906,235.1855 814.3906,234.7949 Q814.3906,234.4199 814.6563,234.1855 Q814.9219,233.9512 815.5313,233.9512 L820.6719,233.9512 Q821.2813,233.9512 821.5469,234.1855 Q821.8125,234.4199 821.8125,234.7949 Q821.8125,235.1855 821.5469,235.4199 Q821.2813,235.6543 820.6719,235.6543 L818.9531,235.6543 Z " fill="#000000"/><text fill="#000000" font-family="sans-serif" font-size="14" font-style="italic" lengthAdjust="spacing" textLength="122" x="832" y="244.8105">@RequestMapping</text></g><!--class PathVariable--><g id="elem_PathVariable"><rect codeLine="9" fill="#F1F1F1" height="32" id="PathVariable" rx="2.5" ry="2.5" style="stroke:#181818;stroke-width:0.5;" width="127" x="640.5" y="223.0137"/><ellipse cx="655.5" cy="239.0137" fill="#B4A7E5" rx="11" ry="11" style="stroke:#181818;stroke-width:1.0;"/><path d="M656.4531,235.6543 L656.4531,242.3105 L658.1719,242.3105 Q658.7813,242.3105 659.0469,242.5449 Q659.3125,242.7793 659.3125,243.1699 Q659.3125,243.5449 659.0469,243.7793 Q658.7813,244.0137 658.1719,244.0137 L653.0313,244.0137 Q652.4219,244.0137 652.1563,243.7793 Q651.8906,243.5449 651.8906,243.1543 Q651.8906,242.7793 652.1563,242.5449 Q652.4219,242.3105 653.0313,242.3105 L654.75,242.3105 L654.75,235.6543 L653.0313,235.6543 Q652.4219,235.6543 652.1563,235.4199 Q651.8906,235.1855 651.8906,234.7949 Q651.8906,234.4199 652.1563,234.1855 Q652.4219,233.9512 653.0313,233.9512 L658.1719,233.9512 Q658.7813,233.9512 659.0469,234.1855 Q659.3125,234.4199 659.3125,234.7949 Q659.3125,235.1855 659.0469,235.4199 Q658.7813,235.6543 658.1719,235.6543 L656.4531,235.6543 Z " fill="#000000"/><text fill="#000000" font-family="sans-serif" font-size="14" font-style="italic" lengthAdjust="spacing" textLength="95" x="669.5" y="244.8105">@PathVariable</text></g><!--class RequestBody--><g id="elem_RequestBody"><rect codeLine="10" fill="#F1F1F1" height="32" id="RequestBody" rx="2.5" ry="2.5" style="stroke:#181818;stroke-width:0.5;" width="131" x="474.5" y="223.0137"/><ellipse cx="489.5" cy="239.0137" fill="#B4A7E5" rx="11" ry="11" style="stroke:#181818;stroke-width:1.0;"/><path d="M490.4531,235.6543 L490.4531,242.3105 L492.1719,242.3105 Q492.7813,242.3105 493.0469,242.5449 Q493.3125,242.7793 493.3125,243.1699 Q493.3125,243.5449 493.0469,243.7793 Q492.7813,244.0137 492.1719,244.0137 L487.0313,244.0137 Q486.4219,244.0137 486.1563,243.7793 Q485.8906,243.5449 485.8906,243.1543 Q485.8906,242.7793 486.1563,242.5449 Q486.4219,242.3105 487.0313,242.3105 L488.75,242.3105 L488.75,235.6543 L487.0313,235.6543 Q486.4219,235.6543 486.1563,235.4199 Q485.8906,235.1855 485.8906,234.7949 Q485.8906,234.4199 486.1563,234.1855 Q486.4219,233.9512 487.0313,233.9512 L492.1719,233.9512 Q492.7813,233.9512 493.0469,234.1855 Q493.3125,234.4199 493.3125,234.7949 Q493.3125,235.1855 493.0469,235.4199 Q492.7813,235.6543 492.1719,235.6543 L490.4531,235.6543 Z " fill="#000000"/><text fill="#000000" font-family="sans-serif" font-size="14" font-style="italic" lengthAdjust="spacing" textLength="99" x="503.5" y="244.8105">@RequestBody</text></g><!--class ExceptionHandler--><g id="elem_ExceptionHandler"><rect codeLine="11" fill="#F1F1F1" height="32" id="ExceptionHandler" rx="2.5" ry="2.5" style="stroke:#181818;stroke-width:0.5;" width="157" x="282.5" y="223.0137"/><ellipse cx="297.5" cy="239.0137" fill="#B4A7E5" rx="11" ry="11" style="stroke:#181818;stroke-width:1.0;"/><path d="M298.4531,235.6543 L298.4531,242.3105 L300.1719,242.3105 Q300.7813,242.3105 301.0469,242.5449 Q301.3125,242.7793 301.3125,243.1699 Q301.3125,243.5449 301.0469,243.7793 Q300.7813,244.0137 300.1719,244.0137 L295.0313,244.0137 Q294.4219,244.0137 294.1563,243.7793 Q293.8906,243.5449 293.8906,243.1543 Q293.8906,242.7793 294.1563,242.5449 Q294.4219,242.3105 295.0313,242.3105 L296.75,242.3105 L296.75,235.6543 L295.0313,235.6543 Q294.4219,235.6543 294.1563,235.4199 Q293.8906,235.1855 293.8906,234.7949 Q293.8906,234.4199 294.1563,234.1855 Q294.4219,233.9512 295.0313,233.9512 L300.1719,233.9512 Q300.7813,233.9512 301.0469,234.1855 Q301.3125,234.4199 301.3125,234.7949 Q301.3125,235.1855 301.0469,235.4199 Q300.7813,235.6543 300.1719,235.6543 L298.4531,235.6543 Z " fill="#000000"/><text fill="#000000" font-family="sans-serif" font-size="14" font-style="italic" lengthAdjust="spacing" textLength="125" x="311.5" y="244.8105">@ExceptionHandler</text></g><!--class ResponseEntity--><g id="elem_ResponseEntity"><rect codeLine="15" fill="#F1F1F1" height="32" id="ResponseEntity" rx="2.5" ry="2.5" style="stroke:#181818;stroke-width:0.5;" width="142" x="1202" y="223.0137"/><ellipse cx="1217" cy="239.0137" fill="#ADD1B2" rx="11" ry="11" style="stroke:#181818;stroke-width:1.0;"/><path d="M1219.7656,234.8887 Q1219.9219,234.6699 1220.1094,234.5605 Q1220.2969,234.4512 1220.5156,234.4512 Q1220.8906,234.4512 1221.125,234.7168 Q1221.3594,234.9668 1221.3594,235.5762 L1221.3594,237.0293 Q1221.3594,237.6387 1221.125,237.9043 Q1220.8906,238.1699 1220.5156,238.1699 Q1220.1719,238.1699 1219.9688,237.9668 Q1219.7656,237.7793 1219.6563,237.2637 Q1219.6094,236.9043 1219.4219,236.7168 Q1219.0938,236.3418 1218.4844,236.123 Q1217.875,235.9043 1217.25,235.9043 Q1216.4844,235.9043 1215.8438,236.2324 Q1215.2188,236.5605 1214.7188,237.3105 Q1214.2344,238.0605 1214.2344,239.0918 L1214.2344,240.1855 Q1214.2344,241.4199 1215.125,242.248 Q1216.0156,243.0605 1217.6094,243.0605 Q1218.5469,243.0605 1219.2031,242.8105 Q1219.5938,242.6543 1220.0156,242.2168 Q1220.2813,241.9512 1220.4219,241.873 Q1220.5781,241.7949 1220.7813,241.7949 Q1221.1094,241.7949 1221.3594,242.0605 Q1221.625,242.3105 1221.625,242.6543 Q1221.625,242.998 1221.2813,243.4043 Q1220.7813,243.9824 1219.9844,244.3105 Q1218.9063,244.7637 1217.6094,244.7637 Q1216.0938,244.7637 1214.8906,244.1387 Q1213.9063,243.6387 1213.2188,242.5762 Q1212.5313,241.498 1212.5313,240.2168 L1212.5313,239.0605 Q1212.5313,237.7324 1213.1406,236.5918 Q1213.7656,235.4355 1214.8594,234.8262 Q1215.9531,234.2012 1217.1875,234.2012 Q1217.9219,234.2012 1218.5625,234.373 Q1219.2188,234.5293 1219.7656,234.8887 Z " fill="#000000"/><text fill="#000000" font-family="sans-serif" font-size="14" lengthAdjust="spacing" textLength="99" x="1231" y="244.8105">ResponseEntity</text><rect fill="#FFFFFF" height="17.9609" style="stroke:#181818;stroke-width:1.0;stroke-dasharray:2.0,2.0;" width="9" x="1338" y="220.0137"/><text fill="#000000" font-family="sans-serif" font-size="12" font-style="italic" lengthAdjust="spacing" textLength="7" x="1339" y="233.9629">T</text></g><!--class ProblemDetail--><g id="elem_ProblemDetail"><rect codeLine="16" fill="#F1F1F1" height="32" id="ProblemDetail" rx="2.5" ry="2.5" style="stroke:#181818;stroke-width:0.5;" width="120" x="1153" y="366.0137"/><ellipse cx="1168" cy="382.0137" fill="#ADD1B2" rx="11" ry="11" style="stroke:#181818;stroke-width:1.0;"/><path d="M1170.7656,377.8887 Q1170.9219,377.6699 1171.1094,377.5605 Q1171.2969,377.4512 1171.5156,377.4512 Q1171.8906,377.4512 1172.125,377.7168 Q1172.3594,377.9668 1172.3594,378.5762 L1172.3594,380.0293 Q1172.3594,380.6387 1172.125,380.9043 Q1171.8906,381.1699 1171.5156,381.1699 Q1171.1719,381.1699 1170.9688,380.9668 Q1170.7656,380.7793 1170.6563,380.2637 Q1170.6094,379.9043 1170.4219,379.7168 Q1170.0938,379.3418 1169.4844,379.123 Q1168.875,378.9043 1168.25,378.9043 Q1167.4844,378.9043 1166.8438,379.2324 Q1166.2188,379.5605 1165.7188,380.3105 Q1165.2344,381.0605 1165.2344,382.0918 L1165.2344,383.1855 Q1165.2344,384.4199 1166.125,385.248 Q1167.0156,386.0605 1168.6094,386.0605 Q1169.5469,386.0605 1170.2031,385.8105 Q1170.5938,385.6543 1171.0156,385.2168 Q1171.2813,384.9512 1171.4219,384.873 Q1171.5781,384.7949 1171.7813,384.7949 Q1172.1094,384.7949 1172.3594,385.0605 Q1172.625,385.3105 1172.625,385.6543 Q1172.625,385.998 1172.2813,386.4043 Q1171.7813,386.9824 1170.9844,387.3105 Q1169.9063,387.7637 1168.6094,387.7637 Q1167.0938,387.7637 1165.8906,387.1387 Q1164.9063,386.6387 1164.2188,385.5762 Q1163.5313,384.498 1163.5313,383.2168 L1163.5313,382.0605 Q1163.5313,380.7324 1164.1406,379.5918 Q1164.7656,378.4355 1165.8594,377.8262 Q1166.9531,377.2012 1168.1875,377.2012 Q1168.9219,377.2012 1169.5625,377.373 Q1170.2188,377.5293 1170.7656,377.8887 Z " fill="#000000"/><text fill="#000000" font-family="sans-serif" font-size="14" lengthAdjust="spacing" textLength="88" x="1182" y="387.8105">ProblemDetail</text></g><!--class HttpMessageNotReadableException--><g id="elem_HttpMessageNotReadableException"><rect codeLine="19" fill="#F1F1F1" height="32" id="HttpMessageNotReadableException" rx="2.5" ry="2.5" style="stroke:#181818;stroke-width:0.5;" width="257" x="1084.5" y="482.0137"/><ellipse cx="1099.5" cy="498.0137" fill="#ADD1B2" rx="11" ry="11" style="stroke:#181818;stroke-width:1.0;"/><path d="M1102.2656,493.8887 Q1102.4219,493.6699 1102.6094,493.5605 Q1102.7969,493.4512 1103.0156,493.4512 Q1103.3906,493.4512 1103.625,493.7168 Q1103.8594,493.9668 1103.8594,494.5762 L1103.8594,496.0293 Q1103.8594,496.6387 1103.625,496.9043 Q1103.3906,497.1699 1103.0156,497.1699 Q1102.6719,497.1699 1102.4688,496.9668 Q1102.2656,496.7793 1102.1563,496.2637 Q1102.1094,495.9043 1101.9219,495.7168 Q1101.5938,495.3418 1100.9844,495.123 Q1100.375,494.9043 1099.75,494.9043 Q1098.9844,494.9043 1098.3438,495.2324 Q1097.7188,495.5605 1097.2188,496.3105 Q1096.7344,497.0605 1096.7344,498.0918 L1096.7344,499.1855 Q1096.7344,500.4199 1097.625,501.248 Q1098.5156,502.0605 1100.1094,502.0605 Q1101.0469,502.0605 1101.7031,501.8105 Q1102.0938,501.6543 1102.5156,501.2168 Q1102.7813,500.9512 1102.9219,500.873 Q1103.0781,500.7949 1103.2813,500.7949 Q1103.6094,500.7949 1103.8594,501.0605 Q1104.125,501.3105 1104.125,501.6543 Q1104.125,501.998 1103.7813,502.4043 Q1103.2813,502.9824 1102.4844,503.3105 Q1101.4063,503.7637 1100.1094,503.7637 Q1098.5938,503.7637 1097.3906,503.1387 Q1096.4063,502.6387 1095.7188,501.5762 Q1095.0313,500.498 1095.0313,499.2168 L1095.0313,498.0605 Q1095.0313,496.7324 1095.6406,495.5918 Q1096.2656,494.4355 1097.3594,493.8262 Q1098.4531,493.2012 1099.6875,493.2012 Q1100.4219,493.2012 1101.0625,493.373 Q1101.7188,493.5293 1102.2656,493.8887 Z " fill="#000000"/><text fill="#000000" font-family="sans-serif" font-size="14" lengthAdjust="spacing" textLength="225" x="1113.5" y="503.8105">HttpMessageNotReadableException</text></g><!--class HttpServletRequest--><g id="elem_HttpServletRequest"><rect codeLine="28" fill="#F1F1F1" height="32" id="HttpServletRequest" rx="2.5" ry="2.5" style="stroke:#181818;stroke-width:0.5;" width="154" x="1698" y="861.1937"/><ellipse cx="1713" cy="877.1937" fill="#B4A7E5" rx="11" ry="11" style="stroke:#181818;stroke-width:1.0;"/><path d="M1713.9531,873.8343 L1713.9531,880.4905 L1715.6719,880.4905 Q1716.2813,880.4905 1716.5469,880.7249 Q1716.8125,880.9593 1716.8125,881.3499 Q1716.8125,881.7249 1716.5469,881.9593 Q1716.2813,882.1937 1715.6719,882.1937 L1710.5313,882.1937 Q1709.9219,882.1937 1709.6563,881.9593 Q1709.3906,881.7249 1709.3906,881.3343 Q1709.3906,880.9593 1709.6563,880.7249 Q1709.9219,880.4905 1710.5313,880.4905 L1712.25,880.4905 L1712.25,873.8343 L1710.5313,873.8343 Q1709.9219,873.8343 1709.6563,873.5999 Q1709.3906,873.3655 1709.3906,872.9749 Q1709.3906,872.5999 1709.6563,872.3655 Q1709.9219,872.1312 1710.5313,872.1312 L1715.6719,872.1312 Q1716.2813,872.1312 1716.5469,872.3655 Q1716.8125,872.5999 1716.8125,872.9749 Q1716.8125,873.3655 1716.5469,873.5999 Q1716.2813,873.8343 1715.6719,873.8343 L1713.9531,873.8343 Z " fill="#000000"/><text fill="#000000" font-family="sans-serif" font-size="14" font-style="italic" lengthAdjust="spacing" textLength="122" x="1727" y="882.9905">HttpServletRequest</text></g><!--class Collection--><g id="elem_Collection"><rect codeLine="32" fill="#F1F1F1" height="32" id="Collection" rx="2.5" ry="2.5" style="stroke:#181818;stroke-width:0.5;" width="105" x="1673.5" y="1076.3737"/><ellipse cx="1688.5" cy="1092.3737" fill="#B4A7E5" rx="11" ry="11" style="stroke:#181818;stroke-width:1.0;"/><path d="M1689.4531,1089.0143 L1689.4531,1095.6705 L1691.1719,1095.6705 Q1691.7813,1095.6705 1692.0469,1095.9049 Q1692.3125,1096.1393 1692.3125,1096.5299 Q1692.3125,1096.9049 1692.0469,1097.1393 Q1691.7813,1097.3737 1691.1719,1097.3737 L1686.0313,1097.3737 Q1685.4219,1097.3737 1685.1563,1097.1393 Q1684.8906,1096.9049 1684.8906,1096.5143 Q1684.8906,1096.1393 1685.1563,1095.9049 Q1685.4219,1095.6705 1686.0313,1095.6705 L1687.75,1095.6705 L1687.75,1089.0143 L1686.0313,1089.0143 Q1685.4219,1089.0143 1685.1563,1088.7799 Q1684.8906,1088.5455 1684.8906,1088.1549 Q1684.8906,1087.7799 1685.1563,1087.5455 Q1685.4219,1087.3112 1686.0313,1087.3112 L1691.1719,1087.3112 Q1691.7813,1087.3112 1692.0469,1087.5455 Q1692.3125,1087.7799 1692.3125,1088.1549 Q1692.3125,1088.5455 1692.0469,1088.7799 Q1691.7813,1089.0143 1691.1719,1089.0143 L1689.4531,1089.0143 Z " fill="#000000"/><text fill="#000000" font-family="sans-serif" font-size="14" font-style="italic" lengthAdjust="spacing" textLength="62" x="1702.5" y="1098.1705">Collection</text><rect fill="#FFFFFF" height="17.9609" style="stroke:#181818;stroke-width:1.0;stroke-dasharray:2.0,2.0;" width="9" x="1772.5" y="1073.3737"/><text fill="#000000" font-family="sans-serif" font-size="12" font-style="italic" lengthAdjust="spacing" textLength="7" x="1773.5" y="1087.3229">T</text></g><!--class UUID--><g id="elem_UUID"><rect codeLine="33" fill="#F1F1F1" height="32" id="UUID" rx="2.5" ry="2.5" style="stroke:#181818;stroke-width:0.5;" width="63" x="1684.5" y="1246.8737"/><ellipse cx="1699.5" cy="1262.8737" fill="#ADD1B2" rx="11" ry="11" style="stroke:#181818;stroke-width:1.0;"/><path d="M1702.2656,1258.7487 Q1702.4219,1258.5299 1702.6094,1258.4205 Q1702.7969,1258.3112 1703.0156,1258.3112 Q1703.3906,1258.3112 1703.625,1258.5768 Q1703.8594,1258.8268 1703.8594,1259.4362 L1703.8594,1260.8893 Q1703.8594,1261.4987 1703.625,1261.7643 Q1703.3906,1262.0299 1703.0156,1262.0299 Q1702.6719,1262.0299 1702.4688,1261.8268 Q1702.2656,1261.6393 1702.1563,1261.1237 Q1702.1094,1260.7643 1701.9219,1260.5768 Q1701.5938,1260.2018 1700.9844,1259.983 Q1700.375,1259.7643 1699.75,1259.7643 Q1698.9844,1259.7643 1698.3438,1260.0924 Q1697.7188,1260.4205 1697.2188,1261.1705 Q1696.7344,1261.9205 1696.7344,1262.9518 L1696.7344,1264.0455 Q1696.7344,1265.2799 1697.625,1266.108 Q1698.5156,1266.9205 1700.1094,1266.9205 Q1701.0469,1266.9205 1701.7031,1266.6705 Q1702.0938,1266.5143 1702.5156,1266.0768 Q1702.7813,1265.8112 1702.9219,1265.733 Q1703.0781,1265.6549 1703.2813,1265.6549 Q1703.6094,1265.6549 1703.8594,1265.9205 Q1704.125,1266.1705 1704.125,1266.5143 Q1704.125,1266.858 1703.7813,1267.2643 Q1703.2813,1267.8424 1702.4844,1268.1705 Q1701.4063,1268.6237 1700.1094,1268.6237 Q1698.5938,1268.6237 1697.3906,1267.9987 Q1696.4063,1267.4987 1695.7188,1266.4362 Q1695.0313,1265.358 1695.0313,1264.0768 L1695.0313,1262.9205 Q1695.0313,1261.5924 1695.6406,1260.4518 Q1696.2656,1259.2955 1697.3594,1258.6862 Q1698.4531,1258.0612 1699.6875,1258.0612 Q1700.4219,1258.0612 1701.0625,1258.233 Q1701.7188,1258.3893 1702.2656,1258.7487 Z " fill="#000000"/><text fill="#000000" font-family="sans-serif" font-size="14" lengthAdjust="spacing" textLength="31" x="1713.5" y="1268.6705">UUID</text></g><!--class FacultyWriteService--><g id="elem_FacultyWriteService"><rect codeLine="41" fill="#F1F1F1" height="60.543" id="FacultyWriteService" rx="2.5" ry="2.5" style="stroke:#181818;stroke-width:0.5;" width="158" x="1147" y="1232.6037"/><ellipse cx="1162" cy="1262.8752" fill="#ADD1B2" rx="11" ry="11" style="stroke:#181818;stroke-width:1.0;"/><path d="M1164.7656,1258.7502 Q1164.9219,1258.5314 1165.1094,1258.422 Q1165.2969,1258.3127 1165.5156,1258.3127 Q1165.8906,1258.3127 1166.125,1258.5783 Q1166.3594,1258.8283 1166.3594,1259.4377 L1166.3594,1260.8908 Q1166.3594,1261.5002 1166.125,1261.7658 Q1165.8906,1262.0314 1165.5156,1262.0314 Q1165.1719,1262.0314 1164.9688,1261.8283 Q1164.7656,1261.6408 1164.6563,1261.1252 Q1164.6094,1260.7658 1164.4219,1260.5783 Q1164.0938,1260.2033 1163.4844,1259.9845 Q1162.875,1259.7658 1162.25,1259.7658 Q1161.4844,1259.7658 1160.8438,1260.0939 Q1160.2188,1260.422 1159.7188,1261.172 Q1159.2344,1261.922 1159.2344,1262.9533 L1159.2344,1264.047 Q1159.2344,1265.2814 1160.125,1266.1095 Q1161.0156,1266.922 1162.6094,1266.922 Q1163.5469,1266.922 1164.2031,1266.672 Q1164.5938,1266.5158 1165.0156,1266.0783 Q1165.2813,1265.8127 1165.4219,1265.7345 Q1165.5781,1265.6564 1165.7813,1265.6564 Q1166.1094,1265.6564 1166.3594,1265.922 Q1166.625,1266.172 1166.625,1266.5158 Q1166.625,1266.8595 1166.2813,1267.2658 Q1165.7813,1267.8439 1164.9844,1268.172 Q1163.9063,1268.6252 1162.6094,1268.6252 Q1161.0938,1268.6252 1159.8906,1268.0002 Q1158.9063,1267.5002 1158.2188,1266.4377 Q1157.5313,1265.3595 1157.5313,1264.0783 L1157.5313,1262.922 Q1157.5313,1261.5939 1158.1406,1260.4533 Q1158.7656,1259.297 1159.8594,1258.6877 Q1160.9531,1258.0627 1162.1875,1258.0627 Q1162.9219,1258.0627 1163.5625,1258.2345 Q1164.2188,1258.3908 1164.7656,1258.7502 Z " fill="#000000"/><text fill="#000000" font-family="sans-serif" font-size="12" font-style="italic" lengthAdjust="spacing" textLength="51" x="1213.5" y="1250.5529">&#171;control&#187;</text><text fill="#000000" font-family="sans-serif" font-size="12" font-style="italic" lengthAdjust="spacing" textLength="67" x="1205.5" y="1266.5138">&#171;@Service&#187;</text><text fill="#000000" font-family="sans-serif" font-size="14" lengthAdjust="spacing" textLength="126" x="1176" y="1284.633">FacultyWriteService</text></g><!--class NotFoundException--><g id="elem_NotFoundException"><rect codeLine="42" fill="#F1F1F1" height="32" id="NotFoundException" rx="2.5" ry="2.5" style="stroke:#181818;stroke-width:0.5;" width="155" x="957.5" y="1246.8737"/><ellipse cx="972.5" cy="1262.8737" fill="#ADD1B2" rx="11" ry="11" style="stroke:#181818;stroke-width:1.0;"/><path d="M975.2656,1258.7487 Q975.4219,1258.5299 975.6094,1258.4205 Q975.7969,1258.3112 976.0156,1258.3112 Q976.3906,1258.3112 976.625,1258.5768 Q976.8594,1258.8268 976.8594,1259.4362 L976.8594,1260.8893 Q976.8594,1261.4987 976.625,1261.7643 Q976.3906,1262.0299 976.0156,1262.0299 Q975.6719,1262.0299 975.4688,1261.8268 Q975.2656,1261.6393 975.1563,1261.1237 Q975.1094,1260.7643 974.9219,1260.5768 Q974.5938,1260.2018 973.9844,1259.983 Q973.375,1259.7643 972.75,1259.7643 Q971.9844,1259.7643 971.3438,1260.0924 Q970.7188,1260.4205 970.2188,1261.1705 Q969.7344,1261.9205 969.7344,1262.9518 L969.7344,1264.0455 Q969.7344,1265.2799 970.625,1266.108 Q971.5156,1266.9205 973.1094,1266.9205 Q974.0469,1266.9205 974.7031,1266.6705 Q975.0938,1266.5143 975.5156,1266.0768 Q975.7813,1265.8112 975.9219,1265.733 Q976.0781,1265.6549 976.2813,1265.6549 Q976.6094,1265.6549 976.8594,1265.9205 Q977.125,1266.1705 977.125,1266.5143 Q977.125,1266.858 976.7813,1267.2643 Q976.2813,1267.8424 975.4844,1268.1705 Q974.4063,1268.6237 973.1094,1268.6237 Q971.5938,1268.6237 970.3906,1267.9987 Q969.4063,1267.4987 968.7188,1266.4362 Q968.0313,1265.358 968.0313,1264.0768 L968.0313,1262.9205 Q968.0313,1261.5924 968.6406,1260.4518 Q969.2656,1259.2955 970.3594,1258.6862 Q971.4531,1258.0612 972.6875,1258.0612 Q973.4219,1258.0612 974.0625,1258.233 Q974.7188,1258.3893 975.2656,1258.7487 Z " fill="#000000"/><text fill="#000000" font-family="sans-serif" font-size="14" lengthAdjust="spacing" textLength="123" x="986.5" y="1268.6705">NotFoundException</text></g><!--class NameExistsException--><g id="elem_NameExistsException"><rect codeLine="43" fill="#F1F1F1" height="32" id="NameExistsException" rx="2.5" ry="2.5" style="stroke:#181818;stroke-width:0.5;" width="165" x="559.5" y="1246.8737"/><ellipse cx="574.5" cy="1262.8737" fill="#ADD1B2" rx="11" ry="11" style="stroke:#181818;stroke-width:1.0;"/><path d="M577.2656,1258.7487 Q577.4219,1258.5299 577.6094,1258.4205 Q577.7969,1258.3112 578.0156,1258.3112 Q578.3906,1258.3112 578.625,1258.5768 Q578.8594,1258.8268 578.8594,1259.4362 L578.8594,1260.8893 Q578.8594,1261.4987 578.625,1261.7643 Q578.3906,1262.0299 578.0156,1262.0299 Q577.6719,1262.0299 577.4688,1261.8268 Q577.2656,1261.6393 577.1563,1261.1237 Q577.1094,1260.7643 576.9219,1260.5768 Q576.5938,1260.2018 575.9844,1259.983 Q575.375,1259.7643 574.75,1259.7643 Q573.9844,1259.7643 573.3438,1260.0924 Q572.7188,1260.4205 572.2188,1261.1705 Q571.7344,1261.9205 571.7344,1262.9518 L571.7344,1264.0455 Q571.7344,1265.2799 572.625,1266.108 Q573.5156,1266.9205 575.1094,1266.9205 Q576.0469,1266.9205 576.7031,1266.6705 Q577.0938,1266.5143 577.5156,1266.0768 Q577.7813,1265.8112 577.9219,1265.733 Q578.0781,1265.6549 578.2813,1265.6549 Q578.6094,1265.6549 578.8594,1265.9205 Q579.125,1266.1705 579.125,1266.5143 Q579.125,1266.858 578.7813,1267.2643 Q578.2813,1267.8424 577.4844,1268.1705 Q576.4063,1268.6237 575.1094,1268.6237 Q573.5938,1268.6237 572.3906,1267.9987 Q571.4063,1267.4987 570.7188,1266.4362 Q570.0313,1265.358 570.0313,1264.0768 L570.0313,1262.9205 Q570.0313,1261.5924 570.6406,1260.4518 Q571.2656,1259.2955 572.3594,1258.6862 Q573.4531,1258.0612 574.6875,1258.0612 Q575.4219,1258.0612 576.0625,1258.233 Q576.7188,1258.3893 577.2656,1258.7487 Z " fill="#000000"/><text fill="#000000" font-family="sans-serif" font-size="14" lengthAdjust="spacing" textLength="133" x="588.5" y="1268.6705">NameExistsException</text></g><!--class DeanExistsException--><g id="elem_DeanExistsException"><rect codeLine="44" fill="#F1F1F1" height="32" id="DeanExistsException" rx="2.5" ry="2.5" style="stroke:#181818;stroke-width:0.5;" width="163" x="759.5" y="1246.8737"/><ellipse cx="774.5" cy="1262.8737" fill="#ADD1B2" rx="11" ry="11" style="stroke:#181818;stroke-width:1.0;"/><path d="M777.2656,1258.7487 Q777.4219,1258.5299 777.6094,1258.4205 Q777.7969,1258.3112 778.0156,1258.3112 Q778.3906,1258.3112 778.625,1258.5768 Q778.8594,1258.8268 778.8594,1259.4362 L778.8594,1260.8893 Q778.8594,1261.4987 778.625,1261.7643 Q778.3906,1262.0299 778.0156,1262.0299 Q777.6719,1262.0299 777.4688,1261.8268 Q777.2656,1261.6393 777.1563,1261.1237 Q777.1094,1260.7643 776.9219,1260.5768 Q776.5938,1260.2018 775.9844,1259.983 Q775.375,1259.7643 774.75,1259.7643 Q773.9844,1259.7643 773.3438,1260.0924 Q772.7188,1260.4205 772.2188,1261.1705 Q771.7344,1261.9205 771.7344,1262.9518 L771.7344,1264.0455 Q771.7344,1265.2799 772.625,1266.108 Q773.5156,1266.9205 775.1094,1266.9205 Q776.0469,1266.9205 776.7031,1266.6705 Q777.0938,1266.5143 777.5156,1266.0768 Q777.7813,1265.8112 777.9219,1265.733 Q778.0781,1265.6549 778.2813,1265.6549 Q778.6094,1265.6549 778.8594,1265.9205 Q779.125,1266.1705 779.125,1266.5143 Q779.125,1266.858 778.7813,1267.2643 Q778.2813,1267.8424 777.4844,1268.1705 Q776.4063,1268.6237 775.1094,1268.6237 Q773.5938,1268.6237 772.3906,1267.9987 Q771.4063,1267.4987 770.7188,1266.4362 Q770.0313,1265.358 770.0313,1264.0768 L770.0313,1262.9205 Q770.0313,1261.5924 770.6406,1260.4518 Q771.2656,1259.2955 772.3594,1258.6862 Q773.4531,1258.0612 774.6875,1258.0612 Q775.4219,1258.0612 776.0625,1258.233 Q776.7188,1258.3893 777.2656,1258.7487 Z " fill="#000000"/><text fill="#000000" font-family="sans-serif" font-size="14" lengthAdjust="spacing" textLength="131" x="788.5" y="1268.6705">DeanExistsException</text></g><!--class FacultyDTO--><g id="elem_FacultyDTO"><rect codeLine="52" fill="#F1F1F1" height="44.582" id="FacultyDTO" rx="2.5" ry="2.5" style="stroke:#181818;stroke-width:0.5;" width="108" x="1326" y="1070.0837"/><ellipse cx="1341" cy="1092.3747" fill="#ADD1B2" rx="11" ry="11" style="stroke:#181818;stroke-width:1.0;"/><path d="M1343.7656,1088.2497 Q1343.9219,1088.0309 1344.1094,1087.9216 Q1344.2969,1087.8122 1344.5156,1087.8122 Q1344.8906,1087.8122 1345.125,1088.0778 Q1345.3594,1088.3278 1345.3594,1088.9372 L1345.3594,1090.3903 Q1345.3594,1090.9997 1345.125,1091.2653 Q1344.8906,1091.5309 1344.5156,1091.5309 Q1344.1719,1091.5309 1343.9688,1091.3278 Q1343.7656,1091.1403 1343.6563,1090.6247 Q1343.6094,1090.2653 1343.4219,1090.0778 Q1343.0938,1089.7028 1342.4844,1089.4841 Q1341.875,1089.2653 1341.25,1089.2653 Q1340.4844,1089.2653 1339.8438,1089.5934 Q1339.2188,1089.9216 1338.7188,1090.6716 Q1338.2344,1091.4216 1338.2344,1092.4528 L1338.2344,1093.5466 Q1338.2344,1094.7809 1339.125,1095.6091 Q1340.0156,1096.4216 1341.6094,1096.4216 Q1342.5469,1096.4216 1343.2031,1096.1716 Q1343.5938,1096.0153 1344.0156,1095.5778 Q1344.2813,1095.3122 1344.4219,1095.2341 Q1344.5781,1095.1559 1344.7813,1095.1559 Q1345.1094,1095.1559 1345.3594,1095.4216 Q1345.625,1095.6716 1345.625,1096.0153 Q1345.625,1096.3591 1345.2813,1096.7653 Q1344.7813,1097.3434 1343.9844,1097.6716 Q1342.9063,1098.1247 1341.6094,1098.1247 Q1340.0938,1098.1247 1338.8906,1097.4997 Q1337.9063,1096.9997 1337.2188,1095.9372 Q1336.5313,1094.8591 1336.5313,1093.5778 L1336.5313,1092.4216 Q1336.5313,1091.0934 1337.1406,1089.9528 Q1337.7656,1088.7966 1338.8594,1088.1872 Q1339.9531,1087.5622 1341.1875,1087.5622 Q1341.9219,1087.5622 1342.5625,1087.7341 Q1343.2188,1087.8903 1343.7656,1088.2497 Z " fill="#000000"/><text fill="#000000" font-family="sans-serif" font-size="12" font-style="italic" lengthAdjust="spacing" textLength="43" x="1371.5" y="1088.0329">&#171;entity&#187;</text><text fill="#000000" font-family="sans-serif" font-size="14" lengthAdjust="spacing" textLength="76" x="1355" y="1106.152">FacultyDTO</text></g><!--class FacultyWriteController--><g id="elem_FacultyWriteController"><rect codeLine="54" fill="#F1F1F1" height="140.3672" id="FacultyWriteController" rx="2.5" ry="2.5" style="stroke:#181818;stroke-width:0.5;" width="804" x="630" y="807.0137"/><ellipse cx="957.25" cy="845.2656" fill="#ADD1B2" rx="11" ry="11" style="stroke:#181818;stroke-width:1.0;"/><path d="M960.0156,841.1406 Q960.1719,840.9219 960.3594,840.8125 Q960.5469,840.7031 960.7656,840.7031 Q961.1406,840.7031 961.375,840.9688 Q961.6094,841.2188 961.6094,841.8281 L961.6094,843.2813 Q961.6094,843.8906 961.375,844.1563 Q961.1406,844.4219 960.7656,844.4219 Q960.4219,844.4219 960.2188,844.2188 Q960.0156,844.0313 959.9063,843.5156 Q959.8594,843.1563 959.6719,842.9688 Q959.3438,842.5938 958.7344,842.375 Q958.125,842.1563 957.5,842.1563 Q956.7344,842.1563 956.0938,842.4844 Q955.4688,842.8125 954.9688,843.5625 Q954.4844,844.3125 954.4844,845.3438 L954.4844,846.4375 Q954.4844,847.6719 955.375,848.5 Q956.2656,849.3125 957.8594,849.3125 Q958.7969,849.3125 959.4531,849.0625 Q959.8438,848.9063 960.2656,848.4688 Q960.5313,848.2031 960.6719,848.125 Q960.8281,848.0469 961.0313,848.0469 Q961.3594,848.0469 961.6094,848.3125 Q961.875,848.5625 961.875,848.9063 Q961.875,849.25 961.5313,849.6563 Q961.0313,850.2344 960.2344,850.5625 Q959.1563,851.0156 957.8594,851.0156 Q956.3438,851.0156 955.1406,850.3906 Q954.1563,849.8906 953.4688,848.8281 Q952.7813,847.75 952.7813,846.4688 L952.7813,845.3125 Q952.7813,843.9844 953.3906,842.8438 Q954.0156,841.6875 955.1094,841.0781 Q956.2031,840.4531 957.4375,840.4531 Q958.1719,840.4531 958.8125,840.625 Q959.4688,840.7813 960.0156,841.1406 Z " fill="#000000"/><text fill="#000000" font-family="sans-serif" font-size="12" font-style="italic" lengthAdjust="spacing" textLength="67" x="1014.75" y="824.9629">&#171;boundary&#187;</text><text fill="#000000" font-family="sans-serif" font-size="12" font-style="italic" lengthAdjust="spacing" textLength="68" x="1014.25" y="840.9238">&#171;Controller&#187;</text><text fill="#000000" font-family="sans-serif" font-size="12" font-style="italic" lengthAdjust="spacing" textLength="119" x="988.75" y="856.8848">&#171;@RequestMapping&#187;</text><text fill="#000000" font-family="sans-serif" font-size="14" lengthAdjust="spacing" textLength="141" x="977.75" y="875.0039">FacultyWriteController</text><line style="stroke:#181818;stroke-width:0.5;" x1="631" x2="1433" y1="883.5176" y2="883.5176"/><ellipse cx="641" cy="898.3281" fill="#84BE84" rx="3" ry="3" style="stroke:#038048;stroke-width:1.0;"/><text fill="#000000" font-family="sans-serif" font-size="14" lengthAdjust="spacing" textLength="529" x="650" y="902.625">post(facultyDTO: FacultyDTO, request: HttpServletRequest): ResponseEntity&lt;Void&gt;</text><ellipse cx="641" cy="916.9492" fill="#84BE84" rx="3" ry="3" style="stroke:#038048;stroke-width:1.0;"/><text fill="#000000" font-family="sans-serif" font-size="14" lengthAdjust="spacing" textLength="243" x="650" y="921.2461">put(id: UUID, facultyDTO: FacultyDTO)</text><ellipse cx="641" cy="935.5703" fill="#84BE84" rx="3" ry="3" style="stroke:#038048;stroke-width:1.0;"/><text fill="#000000" font-family="sans-serif" font-size="14" lengthAdjust="spacing" textLength="778" x="650" y="939.8672">@ExceptionHandler onConstraintViolations(ex: MethodArgumentNotValidException, req: HttpServletRequest): ProblemDetail</text></g><!--class CommonExceptionHandler--><g id="elem_CommonExceptionHandler"><rect codeLine="60" fill="#F1F1F1" height="108.4453" id="CommonExceptionHandler" rx="2.5" ry="2.5" style="stroke:#181818;stroke-width:0.5;" width="737" x="388.5" y="1038.1537"/><ellipse cx="669.75" cy="1060.4447" fill="#ADD1B2" rx="11" ry="11" style="stroke:#181818;stroke-width:1.0;"/><path d="M672.5156,1056.3197 Q672.6719,1056.1009 672.8594,1055.9916 Q673.0469,1055.8822 673.2656,1055.8822 Q673.6406,1055.8822 673.875,1056.1478 Q674.1094,1056.3978 674.1094,1057.0072 L674.1094,1058.4603 Q674.1094,1059.0697 673.875,1059.3353 Q673.6406,1059.6009 673.2656,1059.6009 Q672.9219,1059.6009 672.7188,1059.3978 Q672.5156,1059.2103 672.4063,1058.6947 Q672.3594,1058.3353 672.1719,1058.1478 Q671.8438,1057.7728 671.2344,1057.5541 Q670.625,1057.3353 670,1057.3353 Q669.2344,1057.3353 668.5938,1057.6634 Q667.9688,1057.9916 667.4688,1058.7416 Q666.9844,1059.4916 666.9844,1060.5228 L666.9844,1061.6166 Q666.9844,1062.8509 667.875,1063.6791 Q668.7656,1064.4916 670.3594,1064.4916 Q671.2969,1064.4916 671.9531,1064.2416 Q672.3438,1064.0853 672.7656,1063.6478 Q673.0313,1063.3822 673.1719,1063.3041 Q673.3281,1063.2259 673.5313,1063.2259 Q673.8594,1063.2259 674.1094,1063.4916 Q674.375,1063.7416 674.375,1064.0853 Q674.375,1064.4291 674.0313,1064.8353 Q673.5313,1065.4134 672.7344,1065.7416 Q671.6563,1066.1947 670.3594,1066.1947 Q668.8438,1066.1947 667.6406,1065.5697 Q666.6563,1065.0697 665.9688,1064.0072 Q665.2813,1062.9291 665.2813,1061.6478 L665.2813,1060.4916 Q665.2813,1059.1634 665.8906,1058.0228 Q666.5156,1056.8666 667.6094,1056.2572 Q668.7031,1055.6322 669.9375,1055.6322 Q670.6719,1055.6322 671.3125,1055.8041 Q671.9688,1055.9603 672.5156,1056.3197 Z " fill="#000000"/><text fill="#000000" font-family="sans-serif" font-size="12" font-style="italic" lengthAdjust="spacing" textLength="117" x="714.75" y="1056.1029">&#171;@ControllerAdvice&#187;</text><text fill="#000000" font-family="sans-serif" font-size="14" lengthAdjust="spacing" textLength="166" x="690.25" y="1074.222">CommonExceptionHandler</text><line style="stroke:#181818;stroke-width:0.5;" x1="389.5" x2="1124.5" y1="1082.7357" y2="1082.7357"/><ellipse cx="399.5" cy="1097.5463" fill="#84BE84" rx="3" ry="3" style="stroke:#038048;stroke-width:1.0;"/><text fill="#000000" font-family="sans-serif" font-size="14" lengthAdjust="spacing" textLength="691" x="408.5" y="1101.8431">@ExceptionHandler ProblemDetail onNotFound(final NotFoundException ex, final HttpServletRequest request)</text><ellipse cx="399.5" cy="1116.1673" fill="#84BE84" rx="3" ry="3" style="stroke:#038048;stroke-width:1.0;"/><text fill="#000000" font-family="sans-serif" font-size="14" lengthAdjust="spacing" textLength="711" x="408.5" y="1120.4642">@ExceptionHandler ProblemDetail onNameExists(final NameExistsException ex, final HttpServletRequest request)</text><ellipse cx="399.5" cy="1134.7884" fill="#84BE84" rx="3" ry="3" style="stroke:#038048;stroke-width:1.0;"/><text fill="#000000" font-family="sans-serif" font-size="14" lengthAdjust="spacing" textLength="707" x="408.5" y="1139.0853">@ExceptionHandler ProblemDetail onDeanExists(final DeanExistsException ex, final HttpServletRequest request)</text></g><!--class FacultyModel--><g id="elem_FacultyModel"><rect fill="#F1F1F1" height="32" id="FacultyModel" rx="2.5" ry="2.5" style="stroke:#181818;stroke-width:0.5;" width="116" x="479" y="861.1937"/><ellipse cx="494" cy="877.1937" fill="#ADD1B2" rx="11" ry="11" style="stroke:#181818;stroke-width:1.0;"/><path d="M496.7656,873.0687 Q496.9219,872.8499 497.1094,872.7405 Q497.2969,872.6312 497.5156,872.6312 Q497.8906,872.6312 498.125,872.8968 Q498.3594,873.1468 498.3594,873.7562 L498.3594,875.2093 Q498.3594,875.8187 498.125,876.0843 Q497.8906,876.3499 497.5156,876.3499 Q497.1719,876.3499 496.9688,876.1468 Q496.7656,875.9593 496.6563,875.4437 Q496.6094,875.0843 496.4219,874.8968 Q496.0938,874.5218 495.4844,874.303 Q494.875,874.0843 494.25,874.0843 Q493.4844,874.0843 492.8438,874.4124 Q492.2188,874.7405 491.7188,875.4905 Q491.2344,876.2405 491.2344,877.2718 L491.2344,878.3655 Q491.2344,879.5999 492.125,880.428 Q493.0156,881.2405 494.6094,881.2405 Q495.5469,881.2405 496.2031,880.9905 Q496.5938,880.8343 497.0156,880.3968 Q497.2813,880.1312 497.4219,880.053 Q497.5781,879.9749 497.7813,879.9749 Q498.1094,879.9749 498.3594,880.2405 Q498.625,880.4905 498.625,880.8343 Q498.625,881.178 498.2813,881.5843 Q497.7813,882.1624 496.9844,882.4905 Q495.9063,882.9437 494.6094,882.9437 Q493.0938,882.9437 491.8906,882.3187 Q490.9063,881.8187 490.2188,880.7562 Q489.5313,879.678 489.5313,878.3968 L489.5313,877.2405 Q489.5313,875.9124 490.1406,874.7718 Q490.7656,873.6155 491.8594,873.0062 Q492.9531,872.3812 494.1875,872.3812 Q494.9219,872.3812 495.5625,872.553 Q496.2188,872.7093 496.7656,873.0687 Z " fill="#000000"/><text fill="#000000" font-family="sans-serif" font-size="14" lengthAdjust="spacing" textLength="84" x="508" y="882.9905">FacultyModel</text></g><!--class PatchOperation--><g id="elem_PatchOperation"><rect codeLine="49" fill="#F1F1F1" height="44.582" id="PatchOperation" rx="2.5" ry="2.5" style="stroke:#181818;stroke-width:0.5;" width="131" x="1160.5" y="1070.0837"/><ellipse cx="1175.5" cy="1092.3747" fill="#ADD1B2" rx="11" ry="11" style="stroke:#181818;stroke-width:1.0;"/><path d="M1178.2656,1088.2497 Q1178.4219,1088.0309 1178.6094,1087.9216 Q1178.7969,1087.8122 1179.0156,1087.8122 Q1179.3906,1087.8122 1179.625,1088.0778 Q1179.8594,1088.3278 1179.8594,1088.9372 L1179.8594,1090.3903 Q1179.8594,1090.9997 1179.625,1091.2653 Q1179.3906,1091.5309 1179.0156,1091.5309 Q1178.6719,1091.5309 1178.4688,1091.3278 Q1178.2656,1091.1403 1178.1563,1090.6247 Q1178.1094,1090.2653 1177.9219,1090.0778 Q1177.5938,1089.7028 1176.9844,1089.4841 Q1176.375,1089.2653 1175.75,1089.2653 Q1174.9844,1089.2653 1174.3438,1089.5934 Q1173.7188,1089.9216 1173.2188,1090.6716 Q1172.7344,1091.4216 1172.7344,1092.4528 L1172.7344,1093.5466 Q1172.7344,1094.7809 1173.625,1095.6091 Q1174.5156,1096.4216 1176.1094,1096.4216 Q1177.0469,1096.4216 1177.7031,1096.1716 Q1178.0938,1096.0153 1178.5156,1095.5778 Q1178.7813,1095.3122 1178.9219,1095.2341 Q1179.0781,1095.1559 1179.2813,1095.1559 Q1179.6094,1095.1559 1179.8594,1095.4216 Q1180.125,1095.6716 1180.125,1096.0153 Q1180.125,1096.3591 1179.7813,1096.7653 Q1179.2813,1097.3434 1178.4844,1097.6716 Q1177.4063,1098.1247 1176.1094,1098.1247 Q1174.5938,1098.1247 1173.3906,1097.4997 Q1172.4063,1096.9997 1171.7188,1095.9372 Q1171.0313,1094.8591 1171.0313,1093.5778 L1171.0313,1092.4216 Q1171.0313,1091.0934 1171.6406,1089.9528 Q1172.2656,1088.7966 1173.3594,1088.1872 Q1174.4531,1087.5622 1175.6875,1087.5622 Q1176.4219,1087.5622 1177.0625,1087.7341 Q1177.7188,1087.8903 1178.2656,1088.2497 Z " fill="#000000"/><text fill="#000000" font-family="sans-serif" font-size="12" font-style="italic" lengthAdjust="spacing" textLength="43" x="1217.5" y="1088.0329">&#171;entity&#187;</text><text fill="#000000" font-family="sans-serif" font-size="14" lengthAdjust="spacing" textLength="99" x="1189.5" y="1106.152">PatchOperation</text></g><!--link ResponseEntity to ProblemDetail--><!--link ProblemDetail to HttpMessageNotReadableException--><!--reverse link Collection to UUID--><!--reverse link HttpServletRequest to Collection--><!--link FacultyWriteController to FacultyWriteService--><g id="link_FacultyWriteController_FacultyWriteService"><path codeLine="66" d="M1400.7298,952.2751 C1429.0198,963.6051 1439.84,971.9737 1451,986.3737 C1501.14,1051.1037 1496.74,1102.6937 1451,1170.6037 C1418.68,1218.5837 1362.2092,1240.1078 1311.3292,1250.9078 " fill="none" id="FacultyWriteController-FacultyWriteService" style="stroke:#181818;stroke-width:1.0;"/><polygon fill="none" points="1389.59,947.8137,1393.6728,953.7577,1400.7298,952.2751,1396.6471,946.3311,1389.59,947.8137" style="stroke:#181818;stroke-width:1.0;"/><polygon fill="#181818" points="1305.46,1252.1537,1315.0944,1254.1978,1310.351,1251.1155,1313.4333,1246.3721,1305.46,1252.1537" style="stroke:#181818;stroke-width:1.0;"/><text fill="#000000" font-family="sans-serif" font-size="13" lengthAdjust="spacing" textLength="40" x="1488" y="1097.902">service</text><text fill="#000000" font-family="sans-serif" font-size="13" lengthAdjust="spacing" textLength="7" x="1313.1079" y="1247.4234">1</text></g><!--link FacultyWriteController to FacultyDTO--><g id="link_FacultyWriteController_FacultyDTO"><path codeLine="67" d="M1246.53,947.7937 C1267.97,959.0137 1288.59,971.8237 1307,986.3737 C1335.74,1009.1037 1355.0132,1040.8142 1367.0432,1064.2842 " fill="none" id="FacultyWriteController-to-FacultyDTO" style="stroke:#181818;stroke-width:1.0;stroke-dasharray:7.0,7.0;"/><polygon fill="#181818" points="1369.78,1069.6237,1369.2344,1059.7899,1367.4993,1065.1741,1362.1151,1063.4391,1369.78,1069.6237" style="stroke:#181818;stroke-width:1.0;"/></g><!--link FacultyWriteController to PatchOperation--><g id="link_FacultyWriteController_PatchOperation"><path codeLine="68" d="M1118.68,947.6537 C1132.11,959.9637 1145.37,973.1037 1157,986.3737 C1180.14,1012.7937 1198.4942,1042.3036 1211.1342,1064.4336 " fill="none" id="FacultyWriteController-to-PatchOperation" style="stroke:#181818;stroke-width:1.0;stroke-dasharray:7.0,7.0;"/><polygon fill="#181818" points="1214.11,1069.6437,1213.1196,1059.8447,1211.6302,1065.302,1206.1729,1063.8125,1214.11,1069.6437" style="stroke:#181818;stroke-width:1.0;"/></g><!--reverse link ResponseEntity to FacultyWriteController--><g id="link_ResponseEntity_FacultyWriteController"><path codeLine="70" d="M1339.5272,257.3041 C1393.7972,274.5841 1464.72,306.4537 1503,366.0137 C1561.64,457.2537 1559.06,519.6937 1499,610.0137 C1438.47,701.0237 1335.58,764.4737 1241.75,806.5337 " fill="none" id="ResponseEntity-backto-FacultyWriteController" style="stroke:#181818;stroke-width:1.0;stroke-dasharray:7.0,7.0;"/><polygon fill="#181818" points="1333.81,255.4837,1341.1722,262.0257,1338.5743,257.0007,1343.5994,254.4028,1333.81,255.4837" style="stroke:#181818;stroke-width:1.0;"/></g><!--reverse link ProblemDetail to FacultyWriteController--><g id="link_ProblemDetail_FacultyWriteController"><path codeLine="71" d="M1146.9948,391.7478 C1116.9948,398.6978 1088.82,410.8237 1069,437.0137 C987.48,544.6837 1000.78,712.6537 1016.9,806.5937 " fill="none" id="ProblemDetail-backto-FacultyWriteController" style="stroke:#181818;stroke-width:1.0;stroke-dasharray:7.0,7.0;"/><polygon fill="#181818" points="1152.84,390.3937,1143.1694,388.5281,1147.969,391.5221,1144.975,396.3217,1152.84,390.3937" style="stroke:#181818;stroke-width:1.0;"/></g><!--reverse link HttpMessageNotReadableException to FacultyWriteController--><g id="link_HttpMessageNotReadableException_FacultyWriteController"><path codeLine="72" d="M1203.0844,519.6732 C1179.7744,568.2532 1108.83,716.0837 1065.28,806.8537 " fill="none" id="HttpMessageNotReadableException-backto-FacultyWriteController" style="stroke:#181818;stroke-width:1.0;stroke-dasharray:7.0,7.0;"/><polygon fill="#181818" points="1205.68,514.2637,1198.1802,520.6475,1203.517,518.7716,1205.3929,524.1083,1205.68,514.2637" style="stroke:#181818;stroke-width:1.0;"/></g><!--link FacultyWriteController to HttpServletRequest--><g id="link_FacultyWriteController_HttpServletRequest"><path codeLine="73" d="M1434.34,877.1937 C1522.16,877.1937 1603.99,877.1937 1691.82,877.1937 " fill="none" id="FacultyWriteController-to-HttpServletRequest" style="stroke:#181818;stroke-width:1.0;stroke-dasharray:7.0,7.0;"/><polygon fill="#181818" points="1697.82,877.1937,1688.82,873.1937,1692.82,877.1937,1688.82,881.1937,1697.82,877.1937" style="stroke:#181818;stroke-width:1.0;"/></g><!--reverse link Controller to FacultyWriteController--><g id="link_Controller_FacultyWriteController"><path codeLine="75" d="M141.9429,259.8379 C192.9229,315.4879 372.53,504.0537 561,610.0137 C581.83,621.7237 590.27,617.0837 612,627.0137 C724.97,678.6337 846.19,752.7737 929.22,806.7637 " fill="none" id="Controller-backto-FacultyWriteController" style="stroke:#181818;stroke-width:1.0;stroke-dasharray:7.0,7.0;"/><polygon fill="#181818" points="137.89,255.4137,141.0199,264.752,141.2675,259.1005,146.9189,259.348,137.89,255.4137" style="stroke:#181818;stroke-width:1.0;"/></g><!--reverse link RequestMapping to FacultyWriteController--><g id="link_RequestMapping_FacultyWriteController"><path codeLine="76" d="M906.265,258.8962 C936.475,279.7862 989.34,312.6437 1045,327.0137 C1055.65,329.7637 1433.3,327.1537 1441,335.0137 C1529.35,425.1637 1502.04,508.5237 1441,619.0137 C1393.75,704.5437 1304.8,765.4937 1221.89,806.5137 " fill="none" id="RequestMapping-backto-FacultyWriteController" style="stroke:#181818;stroke-width:1.0;stroke-dasharray:7.0,7.0;"/><polygon fill="#181818" points="901.33,255.4837,906.4575,263.8925,905.4425,258.3275,911.0076,257.3125,901.33,255.4837" style="stroke:#181818;stroke-width:1.0;"/></g><!--reverse link PathVariable to FacultyWriteController--><g id="link_PathVariable_FacultyWriteController"><path codeLine="77" d="M716.1584,260.3438 C729.1184,280.8238 752,311.3437 785,327.0137 C799.99,334.1237 1369.66,353.9037 1381,366.0137 C1513.6,507.5737 1284.98,703.5737 1139.11,806.5637 " fill="none" id="PathVariable-backto-FacultyWriteController" style="stroke:#181818;stroke-width:1.0;stroke-dasharray:7.0,7.0;"/><polygon fill="#181818" points="712.95,255.2737,714.3826,265.0178,715.6237,259.4988,721.1427,260.7399,712.95,255.2737" style="stroke:#181818;stroke-width:1.0;"/></g><!--reverse link RequestBody to FacultyWriteController--><g id="link_RequestBody_FacultyWriteController"><path codeLine="78" d="M552.992,260.32 C566.612,280.54 590.19,310.4837 623,327.0137 C648.6,339.9037 662.77,319.6937 687,335.0137 C864.53,447.2537 967.67,687.6237 1009.72,806.5737 " fill="none" id="RequestBody-backto-FacultyWriteController" style="stroke:#181818;stroke-width:1.0;stroke-dasharray:7.0,7.0;"/><polygon fill="#181818" points="549.64,255.3437,551.3505,265.0429,552.4333,259.4906,557.9856,260.5735,549.64,255.3437" style="stroke:#181818;stroke-width:1.0;"/></g><!--reverse link ExceptionHandler to FacultyWriteController--><g id="link_ExceptionHandler_FacultyWriteController"><path codeLine="79" d="M381.6043,259.5516 C460.8643,334.6916 804.84,660.8237 958.61,806.6137 " fill="none" id="ExceptionHandler-backto-FacultyWriteController" style="stroke:#181818;stroke-width:1.0;stroke-dasharray:7.0,7.0;"/><polygon fill="#181818" points="377.25,255.4237,381.0295,264.5185,380.8786,258.8636,386.5334,258.7127,377.25,255.4237" style="stroke:#181818;stroke-width:1.0;"/></g><!--link FacultyWriteController to UUID--><g id="link_FacultyWriteController_UUID"><path codeLine="80" d="M1434.33,946.2037 C1478.95,958.3337 1515.88,971.7937 1537,986.3737 C1617.22,1041.7537 1602.78,1088.9337 1656,1170.6037 C1673.39,1197.2937 1690.4954,1223.2457 1702.4654,1241.3857 " fill="none" id="FacultyWriteController-to-UUID" style="stroke:#181818;stroke-width:1.0;stroke-dasharray:7.0,7.0;"/><polygon fill="#181818" points="1705.77,1246.3937,1704.1518,1236.6787,1703.0162,1242.2204,1697.4745,1241.0848,1705.77,1246.3937" style="stroke:#181818;stroke-width:1.0;"/></g><!--link FacultyWriteController to Collection--><g id="link_FacultyWriteController_Collection"><path codeLine="81" d="M1434.26,922.1137 C1520.93,936.6337 1597.95,954.9537 1636,977.3737 C1676.62,1001.3237 1703.1875,1045.772 1716.0275,1070.872 " fill="none" id="FacultyWriteController-to-Collection" style="stroke:#181818;stroke-width:1.0;stroke-dasharray:7.0,7.0;"/><polygon fill="#181818" points="1718.76,1076.2137,1718.2223,1066.3795,1716.4829,1071.7623,1711.1001,1070.0229,1718.76,1076.2137" style="stroke:#181818;stroke-width:1.0;"/></g><!--reverse link ExceptionHandler to CommonExceptionHandler--><g id="link_ExceptionHandler_CommonExceptionHandler"><path codeLine="83" d="M369.1418,261.0072 C378.6718,286.6272 394,334.2537 394,381.0137 C394,381.0137 394,381.0137 394,878.1937 C394,955.9437 456.68,1005.8837 529.94,1037.7037 " fill="none" id="ExceptionHandler-backto-CommonExceptionHandler" style="stroke:#181818;stroke-width:1.0;stroke-dasharray:7.0,7.0;"/><polygon fill="#181818" points="367.05,255.3837,366.4387,265.2135,368.7932,260.07,373.9368,262.4244,367.05,255.3837" style="stroke:#181818;stroke-width:1.0;"/></g><!--link CommonExceptionHandler to NotFoundException--><g id="link_CommonExceptionHandler_NotFoundException"><path codeLine="84" d="M869.2,1146.9137 C893.04,1159.4537 917.73,1173.3437 940,1187.6037 C968.56,1205.8837 994.4577,1226.8768 1012.9677,1242.6868 " fill="none" id="CommonExceptionHandler-to-NotFoundException" style="stroke:#181818;stroke-width:1.0;stroke-dasharray:7.0,7.0;"/><polygon fill="#181818" points="1017.53,1246.5837,1013.2844,1237.6969,1013.7281,1243.3363,1008.0886,1243.78,1017.53,1246.5837" style="stroke:#181818;stroke-width:1.0;"/></g><!--link CommonExceptionHandler to NameExistsException--><g id="link_CommonExceptionHandler_NameExistsException"><path codeLine="85" d="M720.61,1146.6937 C696.92,1181.4037 671.0617,1219.2874 655.7917,1241.6674 " fill="none" id="CommonExceptionHandler-to-NameExistsException" style="stroke:#181818;stroke-width:1.0;stroke-dasharray:7.0,7.0;"/><polygon fill="#181818" points="652.41,1246.6237,660.7867,1241.4438,655.2281,1242.4935,654.1783,1236.9349,652.41,1246.6237" style="stroke:#181818;stroke-width:1.0;"/></g><!--link CommonExceptionHandler to DeanExistsException--><g id="link_CommonExceptionHandler_DeanExistsException"><path codeLine="86" d="M783.58,1146.6937 C800.88,1181.4037 819.5625,1218.8742 830.7225,1241.2542 " fill="none" id="CommonExceptionHandler-to-DeanExistsException" style="stroke:#181818;stroke-width:1.0;stroke-dasharray:7.0,7.0;"/><polygon fill="#181818" points="833.4,1246.6237,832.9633,1236.7845,831.1687,1242.1491,825.8041,1240.3545,833.4,1246.6237" style="stroke:#181818;stroke-width:1.0;"/></g><!--reverse link FacultyModel to CommonExceptionHandler--><!--link PatchOperation to FacultyWriteService--><text fill="#888888" font-family="sans-serif" font-size="10" lengthAdjust="spacing" textLength="119" x="895" y="1397.9347">(c) Juergen Zimmermann</text><!--SRC=[jLPBRzim3BxxLmZP9S5Q0xi6WT6kQT4Do5hqaG4RTb1i9j5gIveajmc6_lT9jXnBVgKzBATO_4X-f4YA7CTFU0E8YKqekI1qinOuWnScdj3V025kvLA10ARs78fZyoDKdwrn36XqTi6e4YnDGOmGbgZ-BB2lWMFf1LRXYj0an9GoXHLXjDFa7Vp9GQe5vbopAipwHnqwjrXjbrWGl4gXq70F-dryPidUTM2-Ez2NknYuuNkDQLA5sZmC6k5kbUA7-E8KI-D5SaObN595r7xs47dIMy4qsMmE2fCqiABAMipeCmXDwM2oLhpMdXOWfSPzO-eES6AYFl2p-DVAfCy2XJ-t94c0_WgZ1eKIxfrvwED-NmFjjGhXDtx2Gk5GWdXEGOLEWkfa6vlt9S3UYM_Y6OUvqZoQUXUcw6BZjafhcPl7no_pCd3p3uKvTmAebGf4_Td03PEAMHRYE8DG4ybJdL6lVRGQYQlUAJbTbRZlWYYuj_BPp5onwHqKHURhh994RZWwprSifub_kLQcs_ToHwIINT8vODgMUXKhT63emxpuMSALY6CLRvtIinLhJcyuYBAPPpCeIYgA3ZXRT5xSyuSR5zgJc7gIc6oiJD1Ox6ro7A7DbZyXp6bDzYFYJAhn-k1-wb0vqM4NgjEEQvvCcpsxP2I9NCkv6fDaMbJN2UfsCN7mhLc26DNHI2MmBkObOMcHIpc6tHGjG6rPSYusUQRJfUz-YLDIttr1lOTskvEzgxXWMSPeYul9P9tRyyGMe9VBTWJ-X62qAjBncb2SjciMmKwdgf2rkLVNCNcVoqFjLqxRpV0VtDPDPTrsTDaxtDehwca3Tfgm5teQeT6dKUSCcLRJPiXAgETPNPh7a7w73zBJ8rCh-Ero7D-kqq7uMvwwFWE2RBQgUveVTznOR8xaeBMj3EUWkQkynVfXLHa4TomfnnDKl9bl0Jhlftr0EwVA09K-3OtlVkg657hUlm6LxaTnA11dAx3PMR04xBhMU0_3DjZjrse_qY10a76zEMIGhK3885WpPdQzSJn1NtCG6w3e1yao49bUdeD_]--></g></svg>
